<?xml version="1.0" encoding="UTF-8"?>
<svg version="1.1" xmlns="http://www.w3.org/2000/svg" width="662" height="832">
<path d="M0 0 C8.93959142 8.53324636 9.62861975 20.71145227 9.95458984 32.41796875 C10.06030065 38.07184405 10.07617655 43.72440724 10.06567383 49.37915039 C10.06254079 52.8917629 10.08594126 56.40350831 10.11132812 59.91601562 C10.28732565 122.40116806 -8.94219139 181.71836682 -53 226.75 C-83.48959033 257.12561845 -126.81421238 274.08906655 -169.25 277.625 C-170.21010986 277.70967529 -171.17021973 277.79435059 -172.15942383 277.8815918 C-202.21770329 280.39418936 -231.55766503 278.21304369 -260.25 268.625 C-261.42046875 268.24730469 -262.5909375 267.86960937 -263.796875 267.48046875 C-278.05091842 262.4631873 -290.98749855 254.62314464 -302.25 244.625 C-303.49136719 243.69880859 -303.49136719 243.69880859 -304.7578125 242.75390625 C-314.32485553 234.58143219 -321.06365822 221.10896583 -322.25 208.625 C-322.35712907 199.53093249 -320.73586315 191.98232894 -315 184.8125 C-310.52996542 181.25679068 -306.17809533 178.17389652 -300.25 178.5 C-292.11750436 180.1360294 -287.42893522 186.50279574 -282.6171875 192.71875 C-273.3856929 204.05246615 -263.11250297 212.71098585 -250.25 219.625 C-249.57598145 219.98819336 -248.90196289 220.35138672 -248.20751953 220.72558594 C-218.57268694 236.34518528 -184.52718357 240.82909613 -152.05859375 231.8125 C-130.47782844 225.08372805 -110.09101771 214.0456077 -95.25 196.625 C-95.25 195.965 -95.25 195.305 -95.25 194.625 C-94.52425781 194.20863281 -93.79851562 193.79226563 -93.05078125 193.36328125 C-83.5039268 187.43810659 -77.43767501 174.32268076 -72.25 164.625 C-71.80140625 163.84382812 -71.3528125 163.06265625 -70.890625 162.2578125 C-64.10659878 149.87916725 -60.44992468 135.50961848 -57.4375 121.8125 C-57.24285156 120.93182861 -57.04820312 120.05115723 -56.84765625 119.14379883 C-54.38919362 107.33949919 -53.2219584 95.47571122 -52.5390625 83.45703125 C-52.48343643 82.4801384 -52.42781036 81.50324554 -52.37049866 80.49674988 C-52.14479932 76.45833882 -51.92363757 72.41990042 -51.72363281 68.38012695 C-50.52656055 44.62739213 -44.3975953 24.02651971 -26.6328125 7.13671875 C-18.67945195 0.52503452 -10.30692907 -4.36062384 0 0 Z " fill="#FED426" transform="translate(472.25,396.375)"/>
<path d="M0 0 C4.79943395 2.82788225 8.0000143 5.98132406 11.4375 10.25 C12.40196495 11.41697983 13.36680774 12.58364751 14.33203125 13.75 C14.79174316 14.31074219 15.25145508 14.87148438 15.72509766 15.44921875 C39.99930811 44.97617869 72.38968184 62.27932742 110.4699707 66.47387695 C117.27941271 67.12426648 124.12222377 67.39136452 130.95874023 67.57128906 C136.73108713 67.76309434 140.91523215 68.1346814 145.375 72.125 C147.14377066 75.25436347 147.46716445 77.17508918 146.78515625 80.7109375 C141.75576058 95.37375274 128.44633481 107.20295163 115 114 C101.6883282 119.95193893 87.62653235 121.07348897 73.21875 121.28125 C71.71526756 121.30811638 71.71526756 121.30811638 70.18141174 121.33552551 C68.05302609 121.37348667 65.92461152 121.40985541 63.7961731 121.44473267 C58.22716019 121.53810898 52.65853536 121.65105634 47.08984375 121.76171875 C44.94645221 121.80389315 42.80306029 121.84604888 40.65966797 121.88818359 C39.67617371 121.90766052 38.69267944 121.92713745 37.67938232 121.94720459 C36.06501259 121.97901465 34.4506349 122.01042912 32.83624268 122.04107666 C14.29471922 122.39594709 -4.14161568 123.96635496 -22.61303711 125.5402832 C-109.93312945 132.92003507 -109.93312945 132.92003507 -130 117 C-131.52017255 115.47982745 -131.31610603 114.11887658 -131.4375 112 C-131.34365904 106.09740363 -128.92508546 102.2797133 -125 98 C-117.60651672 91.75025999 -109.2443865 88.84886132 -99.765625 87.71875 C-99.00634705 87.61912964 -98.24706909 87.51950928 -97.46478271 87.41687012 C-95.06091792 87.10219358 -92.65575304 86.79987135 -90.25 86.5 C-68.99743486 83.82723734 -50.88921439 80.68294204 -36.03515625 63.76171875 C-27.44904801 52.58286885 -24.24107438 37.94453409 -20.53515625 24.60107422 C-15.0861781 5.18424744 -15.0861781 5.18424744 -7 -0.375 C-4.22239005 -1.24300311 -2.76345216 -0.92115072 0 0 Z " fill="#FED526" transform="translate(286,313)"/>
<path d="M0 0 C6.23596439 3.8351181 8.85825571 8.35661915 10.89453125 15.21875 C13.46191167 25.99476168 12.33632532 37.30673908 11.03125 48.19140625 C10.8981543 49.3112793 10.76505859 50.43115234 10.62792969 51.58496094 C9.13255143 63.51118799 6.82214061 75.21324339 4.21875 86.94140625 C3.96077637 88.111875 3.70280273 89.28234375 3.43701172 90.48828125 C-4.62019033 126.74810137 -14.67086666 162.29419571 -29.296875 196.484375 C-33.39811268 206.27551661 -36.46104395 216.33837395 -39.44702148 226.51342773 C-42.70536253 237.3982022 -45.86737039 247.47508685 -55.78125 253.94140625 C-61.12214386 256.6151298 -66.07562175 257.70997415 -71.96875 258.50390625 C-72.82500977 258.62612549 -73.68126953 258.74834473 -74.56347656 258.87426758 C-83.93967317 260.17386236 -93.35544188 261.08907254 -102.78125 261.94140625 C-101.31293812 254.73261975 -99.28968288 247.76232468 -97.16156006 240.72299194 C-87.57568849 208.87575068 -79.26993502 176.66155974 -70.96875 144.4609375 C-70.71132145 143.46250006 -70.4538929 142.46406261 -70.18866348 141.43536949 C-67.58536006 131.33605683 -64.98659215 121.23560219 -62.39995766 111.13200665 C-57.42517279 91.70406983 -52.40619726 72.28798897 -47.18384171 52.92489624 C-46.68077056 51.05679716 -46.18018259 49.18802714 -45.68239975 47.31851196 C-43.31254621 38.43237785 -40.83417573 29.63776028 -37.64013672 21.0078125 C-37.40399721 20.36534576 -37.1678577 19.72287903 -36.92456245 19.0609436 C-33.53685041 10.24120655 -28.28464639 4.08219058 -19.78125 -0.05859375 C-13.59798345 -2.1196826 -6.12111203 -2.32980528 0 0 Z " fill="#FED426" transform="translate(284.78125,125.05859375)"/>
<path d="M0 0 C1.47231079 0.07951904 1.47231079 0.07951904 2.97436523 0.16064453 C6.19230943 0.34215792 9.4084393 0.54551965 12.625 0.75 C13.78306152 0.81735352 14.94112305 0.88470703 16.13427734 0.95410156 C19.65327865 1.16135681 23.17028556 1.38949221 26.6875 1.625 C27.78690918 1.69106445 28.88631836 1.75712891 30.01904297 1.82519531 C36.52049832 2.30019671 41.87701075 2.82472112 46.5625 7.8125 C50.17391125 17.79698993 43.95054204 28.62942763 39.75341797 37.61621094 C37.85409161 41.58724302 35.85477727 45.50333322 33.82910156 49.41113281 C32.48992212 52.01237756 31.1788542 54.62696751 29.8671875 57.2421875 C7.96158359 100.54210743 7.96158359 100.54210743 -11.8125 111.6875 C-17.82698619 113.48129413 -22.90130238 113.70823349 -28.6875 111.0625 C-34.61382916 107.69954337 -37.0219491 103.02480239 -39.375 96.75 C-45.89540798 69.71211613 -37.5953286 34.25191198 -25.375 9.75 C-22.39173281 5.01062517 -20.17654324 2.36165933 -14.796875 0.53515625 C-9.83031453 -0.55124325 -5.04574549 -0.30925396 0 0 Z " fill="#FDD426" transform="translate(169.375,451.25)"/>
<path d="M0 0 C4.49500192 2.59231164 7.24877037 4.97355635 8.73828125 10.09375 C9.50448454 18.85423364 7.98259882 26.25350499 5.23828125 34.53125 C4.87879395 35.65217041 4.51930664 36.77309082 4.14892578 37.92797852 C-2.10803075 57.15783688 -8.26938886 74.78506184 -21.5925293 90.26293945 C-28.65430226 98.571339 -31.92758317 106.12363376 -31.26171875 117.09375 C-30.58165625 121.25913281 -29.52229172 124.27780062 -26.26171875 127.09375 C-26.26171875 127.75375 -26.26171875 128.41375 -26.26171875 129.09375 C-25.27171875 129.42375 -24.28171875 129.75375 -23.26171875 130.09375 C-24.74185303 134.46553734 -27.98796944 136.10261405 -31.82421875 138.21875 C-32.45610107 138.57130859 -33.0879834 138.92386719 -33.73901367 139.28710938 C-38.47165124 141.84274574 -42.8534871 143.63714508 -48.26171875 144.09375 C-49.02097656 144.16207031 -49.78023437 144.23039063 -50.5625 144.30078125 C-55.78827116 144.53791708 -59.64568579 143.75684594 -64.26171875 141.09375 C-69.98309452 135.6266576 -71.29177556 129.88367907 -71.57421875 122.28125 C-70.6713454 85.71487919 -53.43751447 41.16806618 -30.26171875 13.09375 C-29.5346875 12.10955078 -29.5346875 12.10955078 -28.79296875 11.10546875 C-22.35436552 2.75316956 -10.61222541 -4.25222158 0 0 Z " fill="#FDD427" transform="translate(172.26171875,312.90625)"/>
<path d="M0 0 C0.99 0.495 0.99 0.495 2 1 C2.43896484 2.78735352 2.43896484 2.78735352 2.7109375 5.12890625 C2.87311768 6.42260132 2.87311768 6.42260132 3.03857422 7.74243164 C3.20510498 9.13836548 3.20510498 9.13836548 3.375 10.5625 C6.1837139 31.85920264 11.13429668 53.27010628 28.66015625 67.33203125 C39.40971757 74.77403524 52.58337409 77.65159541 65.2565918 79.70727539 C66.55077026 79.92178345 66.55077026 79.92178345 67.87109375 80.140625 C68.64380615 80.25954102 69.41651855 80.37845703 70.21264648 80.50097656 C70.80247314 80.6656543 71.3922998 80.83033203 72 81 C72.33 81.66 72.66 82.32 73 83 C72.37134033 83.12528076 71.74268066 83.25056152 71.0949707 83.37963867 C48.78151467 87.87988294 26.68846342 93.24204453 13.125 113.3125 C4.95837496 127.21109896 3.15680455 143.89546654 2.2109375 159.75 C2 162 2 162 1 165 C0.01 164.67 -0.98 164.34 -2 164 C-2.06993164 163.23034912 -2.13986328 162.46069824 -2.21191406 161.66772461 C-5.32058973 126.44469592 -5.32058973 126.44469592 -25 98 C-28.19764023 95.6649125 -31.43802098 93.72300381 -35 92 C-35.96292969 91.50628906 -36.92585938 91.01257813 -37.91796875 90.50390625 C-43.67447068 88.07512706 -49.9992851 87.43536825 -56.125 86.4375 C-58.62843276 86.02452309 -61.13107849 85.60673964 -63.6328125 85.18359375 C-64.73512207 85.00368896 -65.83743164 84.82378418 -66.97314453 84.63842773 C-69.83895469 84.03396786 -72.32547699 83.17821902 -75 82 C-74.505 81.01 -74.505 81.01 -74 80 C-71.1330223 79.61773631 -68.31775507 79.3444004 -65.4375 79.125 C-48.89627773 77.57275366 -32.74759748 74.33486086 -20.625 62 C-8.41739235 46.75358873 -5.09881739 28.00698215 -2.30566406 9.21508789 C-2.07121582 7.64295532 -2.07121582 7.64295532 -1.83203125 6.0390625 C-1.69514893 5.09240723 -1.5582666 4.14575195 -1.41723633 3.17041016 C-1 1 -1 1 0 0 Z " fill="#FDD527" transform="translate(421,79)"/>
<path d="M0 0 C2.16236283 3.24354424 2.25497556 4.15334576 2.2746582 7.90087891 C2.28419022 8.90108063 2.29372223 9.90128235 2.30354309 10.93179321 C2.30217598 12.56270401 2.30217598 12.56270401 2.30078125 14.2265625 C2.30506638 15.36161224 2.3093515 16.49666199 2.31376648 17.66610718 C2.31952286 20.08550349 2.32000048 22.50491712 2.31567383 24.92431641 C2.31257761 28.5345057 2.33572998 32.14382236 2.36132812 35.75390625 C2.53438588 98.45849982 -16.50922364 157.90635486 -60.75 203.125 C-91.24730042 233.50829972 -134.55899575 250.44831696 -177 254 C-177.9485083 254.08612549 -178.8970166 254.17225098 -179.87426758 254.26098633 C-188.11248796 254.96425668 -196.29637838 255.18313332 -204.5625 255.1875 C-205.78646484 255.19974609 -207.01042969 255.21199219 -208.27148438 255.22460938 C-216.04913741 255.23702713 -223.37730604 254.55125733 -231 253 C-231 252.67 -231 252.34 -231 252 C-229.77821045 252.01571045 -228.5564209 252.0314209 -227.29760742 252.04760742 C-193.03943447 252.47136628 -193.03943447 252.47136628 -159 249 C-158.16227051 248.87189941 -157.32454102 248.74379883 -156.46142578 248.61181641 C-149.20980575 247.4808298 -142.75692922 245.97243598 -136 243 C-134.05085357 242.38666859 -132.09209131 241.80308138 -130.125 241.25 C-109.06026834 234.8557802 -91.34006621 224.48696426 -73.85253906 211.27758789 C-71.97023667 209.97947397 -70.0668356 208.97193888 -68 208 C-68 207.34 -68 206.68 -68 206 C-66.390625 204.44921875 -66.390625 204.44921875 -64.25 202.6875 C-61.08464796 200.00056672 -58.52493188 197.30853143 -56 194 C-54.33333333 192.33333333 -52.66666667 190.66666667 -51 189 C-38.63481255 175.34732618 -27.92500645 159.17101648 -21.203125 142.0078125 C-20.39923373 139.99808433 -19.53353079 138.0120287 -18.609375 136.0546875 C-5.72882456 108.46319261 -1.08705767 75.89180561 -0.68359375 45.703125 C-0.6524221 43.73095001 -0.6524221 43.73095001 -0.62062073 41.71893311 C-0.56610183 38.26677016 -0.51639102 34.81455511 -0.46777344 31.36230469 C-0.41703713 27.8222199 -0.3616266 24.28220838 -0.30664062 20.7421875 C-0.19992109 13.82818877 -0.09829438 6.91412351 0 0 Z " fill="#FCC30C" transform="translate(480,420)"/>
<path d="M0 0 C4.49500192 2.59231164 7.24877037 4.97355635 8.73828125 10.09375 C9.50448454 18.85423364 7.98259882 26.25350499 5.23828125 34.53125 C4.87879395 35.65217041 4.51930664 36.77309082 4.14892578 37.92797852 C-2.10803075 57.15783688 -8.26938886 74.78506184 -21.5925293 90.26293945 C-28.65430226 98.571339 -31.92758317 106.12363376 -31.26171875 117.09375 C-30.58165625 121.25913281 -29.52229172 124.27780062 -26.26171875 127.09375 C-26.26171875 127.75375 -26.26171875 128.41375 -26.26171875 129.09375 C-25.27171875 129.42375 -24.28171875 129.75375 -23.26171875 130.09375 C-24.74185303 134.46553734 -27.98796944 136.10261405 -31.82421875 138.21875 C-32.45610107 138.57130859 -33.0879834 138.92386719 -33.73901367 139.28710938 C-38.47165124 141.84274574 -42.8534871 143.63714508 -48.26171875 144.09375 C-49.02097656 144.16207031 -49.78023437 144.23039063 -50.5625 144.30078125 C-56.36068813 144.56389231 -61.36765257 143.71560203 -65.83984375 139.6640625 C-67.26171875 138.09375 -67.26171875 138.09375 -69.26171875 135.09375 C-68.93171875 134.10375 -68.60171875 133.11375 -68.26171875 132.09375 C-67.56046875 133.2075 -66.85921875 134.32125 -66.13671875 135.46875 C-63.5010971 139.08269104 -61.80778693 140.34984793 -57.26171875 141.09375 C-45.74837054 142.14344745 -37.98534923 138.76586778 -28.26171875 133.09375 C-27.60171875 133.09375 -26.94171875 133.09375 -26.26171875 133.09375 C-26.84953125 132.165625 -26.84953125 132.165625 -27.44921875 131.21875 C-28.04734375 130.1875 -28.64546875 129.15625 -29.26171875 128.09375 C-29.69484375 127.37703125 -30.12796875 126.6603125 -30.57421875 125.921875 C-34.12382469 119.5890553 -35.59738708 114.32031371 -34.26171875 107.09375 C-31.48175744 98.4275228 -25.84071665 91.99056902 -20.09106445 85.15966797 C-12.26225416 75.7021504 -8.0307768 65.1455223 -4.375 53.53515625 C-3.45719026 50.69799701 -2.43900369 48.01574051 -1.26171875 45.28125 C3.21022295 34.28467204 7.98682586 21.03914325 5.73828125 9.09375 C4.08200545 5.8299124 2.05948397 3.75435136 -1.26171875 2.09375 C-8.92717883 1.35285051 -15.45222919 1.95885755 -21.51171875 6.9453125 C-30.44773689 15.48887038 -36.45482129 25.7400619 -42.07421875 36.65625 C-42.37408691 37.2372345 -42.67395508 37.81821899 -42.98291016 38.41680908 C-52.63053854 57.18848687 -60.19019874 76.5974515 -65.26171875 97.09375 C-65.4328418 97.77050781 -65.60396484 98.44726562 -65.78027344 99.14453125 C-68.39139686 109.71823517 -68.92347999 120.25844613 -69.26171875 131.09375 C-75.26947919 120.58615305 -69.80748833 102.72106631 -66.890625 91.703125 C-59.26894206 64.70194794 -48.31719784 34.96550081 -30.26171875 13.09375 C-29.5346875 12.10955078 -29.5346875 12.10955078 -28.79296875 11.10546875 C-22.35436552 2.75316956 -10.61222541 -4.25222158 0 0 Z " fill="#FCC40C" transform="translate(172.26171875,312.90625)"/>
<path d="M0 0 C4.79943395 2.82788225 8.0000143 5.98132406 11.4375 10.25 C12.40196495 11.41697983 13.36680774 12.58364751 14.33203125 13.75 C14.79174316 14.31074219 15.25145508 14.87148438 15.72509766 15.44921875 C34.44805757 38.2236809 55.44151462 51.26047111 83 61 C83 61.66 83 62.32 83 63 C75.58232069 61.19018517 68.75521634 58.87103012 61.875 55.5625 C60.97700684 55.13219482 60.07901367 54.70188965 59.15380859 54.25854492 C47.83993872 48.65758955 37.33181211 41.72039595 28.58056641 32.57714844 C27.05092918 31.05081905 25.4678844 29.74466929 23.75 28.4375 C19.52273188 24.91477656 16.39665458 20.53153496 13.06323242 16.19213867 C6.70320508 7.71951058 6.70320508 7.71951058 -2 2 C-5.26046468 2.08360166 -6.82559679 2.87791775 -9.5 4.75 C-16.80840463 12.81208385 -18.7023997 26.82217514 -21.47851562 37.078125 C-25.84136265 53.15693201 -33.53513899 68.83793936 -48 78 C-48.66 78 -49.32 78 -50 78 C-50 78.66 -50 79.32 -50 80 C-65.04451937 85.94728657 -80.01435908 88.19025751 -96.04418945 89.82275391 C-104.6656109 90.75839081 -113.26806536 91.78468231 -120 97.6875 C-123.84057971 101 -123.84057971 101 -126 101 C-126.433125 102.175625 -126.433125 102.175625 -126.875 103.375 C-128 106 -128 106 -130 108 C-129.73251399 103.58648089 -127.94229425 100.92408524 -125.03515625 97.76953125 C-113.59559678 87.82304288 -97.59737264 87.3093079 -83.25 85.5 C-64.18935708 83.08386217 -49.13049306 78.67946824 -36.03515625 63.76171875 C-27.44904801 52.58286885 -24.24107438 37.94453409 -20.53515625 24.60107422 C-15.0861781 5.18424744 -15.0861781 5.18424744 -7 -0.375 C-4.22239005 -1.24300311 -2.76345216 -0.92115072 0 0 Z " fill="#FDC50C" transform="translate(286,313)"/>
<path d="M0 0 C0 0.33 0 0.66 0 1 C-1.24136719 1.04898437 -2.48273438 1.09796875 -3.76171875 1.1484375 C-5.40366694 1.22349799 -7.04559297 1.29904439 -8.6875 1.375 C-9.50412109 1.4059375 -10.32074219 1.436875 -11.16210938 1.46875 C-18.52717945 1.75580114 -18.52717945 1.75580114 -24.58984375 5.6015625 C-39.57194971 28.09643464 -46.78050996 64.90889343 -42.25 91.25 C-40.62164041 98.33279487 -38.23405883 103.89864551 -32 108 C-27.58111841 110.2094408 -21.54149572 109.64113957 -16.84765625 108.45703125 C-5.10448723 103.34190855 4.73677613 89.34882646 10 78 C10.66 78 11.32 78 12 78 C12.11827148 77.42701172 12.23654297 76.85402344 12.35839844 76.26367188 C13.0468718 73.83462889 14.00965045 71.96920256 15.265625 69.78125 C15.73758301 68.944729 16.20954102 68.10820801 16.69580078 67.24633789 C17.20868652 66.34004639 17.72157227 65.43375488 18.25 64.5 C23.24506067 55.51393014 27.79837923 46.38269827 32.125 37.0625 C32.6809082 35.87269531 33.23681641 34.68289063 33.80957031 33.45703125 C39.09271602 22.21705707 39.09271602 22.21705707 40 10 C39.0785608 7.57695632 39.0785608 7.57695632 37 6 C30.52591919 3.61717859 23.90013398 3.34924181 17.0625 2.875 C15.90169922 2.78863281 14.74089844 2.70226562 13.54492188 2.61328125 C10.69702554 2.40232597 7.84881487 2.19809534 5 2 C5 1.67 5 1.34 5 1 C33.40816801 0.48571761 33.40816801 0.48571761 40.125 5.1875 C43.07363304 9.61044956 43.48328142 12.48003259 42.5078125 17.56640625 C34.90959229 45.318001 18.13282851 76.42388298 -1 98 C-1.70769531 98.80179688 -2.41539062 99.60359375 -3.14453125 100.4296875 C-9.08096535 106.77158733 -15.62894982 112.06787181 -24.625 112.5625 C-30.546974 112.18517068 -35.15097084 109.84902916 -39.3125 105.6875 C-49.39568249 89.62909825 -46.42660394 65.19200978 -42.55224609 47.35839844 C-33.55121675 8.91898932 -33.55121675 8.91898932 -23 1 C-15.88441486 -2.36451209 -7.5147278 -1.25245463 0 0 Z " fill="#FCC40A" transform="translate(174,452)"/>
<path d="M0 0 C0.99 0.495 0.99 0.495 2 1 C2.43896484 2.78735352 2.43896484 2.78735352 2.7109375 5.12890625 C2.87311768 6.42260132 2.87311768 6.42260132 3.03857422 7.74243164 C3.20510498 9.13836548 3.20510498 9.13836548 3.375 10.5625 C6.18375972 31.85955005 11.12600444 53.75346046 29 67.54296875 C30.64455707 68.72665196 32.31935653 69.86813807 34 71 C28.31273442 71 24.10211788 66.62985264 20 63 C7.89878853 49.20499532 4.24516699 32.57849499 1.38549805 14.90087891 C1.07049614 12.92389184 1.07049614 12.92389184 0 11 C-0.10489746 11.92111572 -0.10489746 11.92111572 -0.21191406 12.86083984 C-0.54363918 15.70076953 -0.89670043 18.53767668 -1.25 21.375 C-1.35957031 22.34050781 -1.46914063 23.30601563 -1.58203125 24.30078125 C-2.44476347 31.06641817 -4.15805627 36.81047473 -7 43 C-7.32226562 43.71510742 -7.64453125 44.43021484 -7.9765625 45.16699219 C-15.03675756 60.45202514 -15.03675756 60.45202514 -21 66 C-21.845625 66.845625 -22.69125 67.69125 -23.5625 68.5625 C-36.25721669 78.65829831 -52.49050158 80.56393533 -68 82 C-66.93523437 82.09796875 -65.87046875 82.1959375 -64.7734375 82.296875 C-46.47169358 84.11707858 -28.33254722 88.2318638 -16.03515625 103.01171875 C-11.11882144 110.2305213 -4 121.17577231 -4 130 C-4.66 130 -5.32 130 -6 130 C-6.3403125 128.97261719 -6.680625 127.94523437 -7.03125 126.88671875 C-12.19031852 111.90093939 -20.00375988 99.57784932 -34.3125 91.8125 C-44.55822625 87.32004895 -56.0878851 86.25019544 -67.06835938 84.59082031 C-69.90971915 84.01819451 -72.35363776 83.16679406 -75 82 C-74.505 81.01 -74.505 81.01 -74 80 C-71.1330223 79.61773631 -68.31775507 79.3444004 -65.4375 79.125 C-48.89627773 77.57275366 -32.74759748 74.33486086 -20.625 62 C-8.41739235 46.75358873 -5.09881739 28.00698215 -2.30566406 9.21508789 C-2.07121582 7.64295532 -2.07121582 7.64295532 -1.83203125 6.0390625 C-1.69514893 5.09240723 -1.5582666 4.14575195 -1.41723633 3.17041016 C-1 1 -1 1 0 0 Z " fill="#FBC60E" transform="translate(421,79)"/>
<path d="M0 0 C0.33 0 0.66 0 1 0 C1.144375 1.051875 1.28875 2.10375 1.4375 3.1875 C2.45146751 6.71496442 3.91697543 7.98217734 7.0625 9.8125 C35.32924315 24.78927349 84.77466836 16.17324629 114.953125 13.234375 C117.76003335 12.96456375 120.56731292 12.69908302 123.375 12.4375 C124.08231262 12.37156647 124.78962524 12.30563293 125.51837158 12.23770142 C144.23240175 10.53640204 162.99535161 10.41152959 181.77322388 10.13165283 C213.51280902 10.45509186 213.51280902 10.45509186 243.9519043 2.94458008 C245.61580001 2.2495404 247.30626556 1.61878328 249 1 C249.99 1.495 249.99 1.495 251 2 C236.19702274 10.37750911 220.93584785 12.04018851 204.21875 12.28125 C203.21642838 12.29916092 202.21410675 12.31707184 201.18141174 12.33552551 C199.05302609 12.37348667 196.92461152 12.40985541 194.7961731 12.44473267 C189.22716019 12.53810898 183.65853536 12.65105634 178.08984375 12.76171875 C175.94645221 12.80389315 173.80306029 12.84604888 171.65966797 12.88818359 C170.18442657 12.91739899 170.18442657 12.91739899 168.67938232 12.94720459 C167.06501259 12.97901465 165.4506349 13.01042912 163.83624268 13.04107666 C145.29471922 13.39594709 126.85838432 14.96635496 108.38696289 16.5402832 C21.06687055 23.92003507 21.06687055 23.92003507 1 8 C0 7 0 7 -0.0625 3.4375 C-0.041875 2.303125 -0.02125 1.16875 0 0 Z " fill="#FDC70E" transform="translate(155,422)"/>
<path d="M0 0 C-1.62182673 14.65962864 -20.75551264 28.38787726 -31.59765625 37.42578125 C-34.16695419 39.1094025 -35.93914546 39.80901919 -39 40 C-41 38 -41 38 -41.375 35.6875 C-40.63933614 30.41524236 -36.30177138 27.22510918 -32.3125 24.0625 C-31.35601562 23.29550781 -30.39953125 22.52851563 -29.4140625 21.73828125 C-28.87942383 21.31111816 -28.34478516 20.88395508 -27.79394531 20.44384766 C-24.23262378 17.57753634 -20.71373585 14.65926835 -17.1875 11.75 C-16.47053955 11.15968994 -15.7535791 10.56937988 -15.01489258 9.96118164 C-13.97691528 9.10641235 -13.97691528 9.10641235 -12.91796875 8.234375 C-12.25200684 7.68845703 -11.58604492 7.14253906 -10.89990234 6.58007812 C-9.67242251 5.55922879 -8.45801403 4.5223587 -7.26025391 3.46679688 C-3.30464355 0 -3.30464355 0 0 0 Z " fill="#FBC40D" transform="translate(381,187)"/>
<path d="M0 0 C0.33 0 0.66 0 1 0 C0.68484454 8.63564265 -0.90504023 15.98894356 -3.9375 24.0625 C-4.33501465 25.14088135 -4.7325293 26.2192627 -5.14208984 27.33032227 C-10.34950354 41.06144996 -16.90627603 54.40044986 -26 66 C-26.66257812 66.86367188 -27.32515625 67.72734375 -28.0078125 68.6171875 C-37.63366448 80.79613284 -48.16178904 90.35859865 -61 99 C-62.18529297 99.86238281 -62.18529297 99.86238281 -63.39453125 100.7421875 C-69.75010259 105.29367273 -76.75121804 108.14983338 -84 111 C-85.12148438 111.44666016 -85.12148438 111.44666016 -86.265625 111.90234375 C-91.40513756 113.77401663 -96.7359395 114.92108092 -102.0625 116.125 C-102.81885742 116.29596191 -103.57521484 116.46692383 -104.35449219 116.64306641 C-111.40049725 118.18140839 -118.26089144 119.1447626 -125.5 119.0625 C-127.06234375 119.04896484 -127.06234375 119.04896484 -128.65625 119.03515625 C-129.4296875 119.02355469 -130.203125 119.01195312 -131 119 C-131 118.67 -131 118.34 -131 118 C-130.26064209 117.89977539 -129.52128418 117.79955078 -128.75952148 117.69628906 C-94.61739454 113.0112084 -62.41109672 104.34184876 -39 77 C-39 76.34 -39 75.68 -39 75 C-37.91138672 74.37544922 -37.91138672 74.37544922 -36.80078125 73.73828125 C-27.2539268 67.81310659 -21.18767501 54.69768076 -16 45 C-15.32710937 43.82824219 -15.32710937 43.82824219 -14.640625 42.6328125 C-7.52610907 29.65113083 -3.84749749 14.21901246 0 0 Z " fill="#FDC70B" transform="translate(416,516)"/>
<path d="M0 0 C2.23828125 -0.25 2.23828125 -0.25 5 0 C7.10546875 1.6875 7.10546875 1.6875 9.1875 4 C14.57754862 9.71507668 20.46203554 14.64135703 27 19 C27 19.66 27 20.32 27 21 C27.639375 21.309375 28.27875 21.61875 28.9375 21.9375 C31 23 31 23 32 24 C32.04063832 25.66617115 32.042721 27.33388095 32 29 C30 30.375 30 30.375 27 31 C20.94993651 27.63541962 15.99384912 22.27406042 11.1875 17.375 C10.53330078 16.72015625 9.87910156 16.0653125 9.20507812 15.390625 C1 7.11011715 1 7.11011715 1 4 C0.34 3.67 -0.32 3.34 -1 3 C-0.67 2.01 -0.34 1.02 0 0 Z " fill="#FCD929" transform="translate(444,201)"/>
<path d="M0 0 C3.40667322 0.44824648 5.07914607 1.05276405 8 3 C8 3.66 8 4.32 8 5 C8.66 5 9.32 5 10 5 C10 5.66 10 6.32 10 7 C10.57073242 7.24476074 11.14146484 7.48952148 11.72949219 7.74169922 C14.39732454 9.2201947 16.18716315 10.96126548 18.328125 13.1328125 C19.12734375 13.93847656 19.9265625 14.74414062 20.75 15.57421875 C21.575 16.41597656 22.4 17.25773437 23.25 18.125 C24.09046875 18.97449219 24.9309375 19.82398437 25.796875 20.69921875 C27.86915683 22.79504923 29.93662393 24.89540713 32 27 C31.67 27.66 31.34 28.32 31 29 C25.71889359 28.5599078 22.37604172 26.55877522 18.25 23.4375 C17.64236816 22.98930908 17.03473633 22.54111816 16.40869141 22.0793457 C14.59509956 20.73312273 12.79578503 19.36985517 11 18 C10.01257813 17.25234375 9.02515625 16.5046875 8.0078125 15.734375 C3.75814825 12.43048172 0.2749822 9.30489741 -3 5 C-1.125 1.125 -1.125 1.125 0 0 Z " fill="#FBD321" transform="translate(336,105)"/>
<path d="M0 0 C1.07333299 3.21999897 0.94939374 4.10783609 0.1796875 7.2890625 C-0.02317871 8.13887695 -0.22604492 8.98869141 -0.43505859 9.86425781 C-0.77657959 11.2308252 -0.77657959 11.2308252 -1.125 12.625 C-1.35654785 13.57213867 -1.5880957 14.51927734 -1.82666016 15.49511719 C-3.56911192 22.51926513 -5.52941064 29.45741917 -7.625 36.3828125 C-9.2987635 41.93823047 -10.8274944 47.533392 -12.375 53.125 C-15.71307912 65.14670181 -19.30605958 77.08335159 -23 89 C-22.01 88.505 -22.01 88.505 -21 88 C-18.33096325 87.83914287 -15.67137654 87.72182136 -13 87.625 C-6.39734197 87.31284761 0.0949719 86.72123758 6.625 85.6875 C7.70587891 85.52918701 7.70587891 85.52918701 8.80859375 85.36767578 C15.40567751 84.25235248 20.98135021 82.01864979 25.75 77.25 C28.27057377 73.60917122 30.13263987 70.0113662 32 66 C33.12018942 69.36056826 33.0193672 69.72745395 31.5625 72.75 C27.75711179 79.87526137 21.61573185 84.4833421 14 87 C10.95779908 87.69669528 7.9042487 88.14597444 4.8125 88.5625 C3.52811035 88.74582886 3.52811035 88.74582886 2.21777344 88.93286133 C-7.15842317 90.23245611 -16.57419188 91.14766629 -26 92 C-24.51601669 84.70705529 -22.4650154 77.65055147 -20.31686401 70.52780151 C-14.91717736 52.59386672 -10.02580731 34.53003368 -5.20385742 16.43334961 C-4.93152283 15.41591675 -4.65918823 14.39848389 -4.37860107 13.35021973 C-3.86266909 11.42199231 -3.34965023 9.49298247 -2.83990479 7.56311035 C-2.49750763 6.28458191 -2.49750763 6.28458191 -2.14819336 4.98022461 C-1.94963242 4.23228134 -1.75107147 3.48433807 -1.54649353 2.71372986 C-1 1 -1 1 0 0 Z " fill="#FDC80C" transform="translate(208,295)"/>
<path d="M0 0 C6.23596439 3.8351181 8.85825571 8.35661915 10.89453125 15.21875 C13.46207228 25.99543583 12.33490757 37.30607786 11.03125 48.19140625 C10.90177979 49.29170166 10.77230957 50.39199707 10.63891602 51.52563477 C9.6197703 59.70612497 8.25496986 67.79258475 6.65625 75.87890625 C6.44653564 76.94463867 6.23682129 78.01037109 6.02075195 79.10839844 C4.479042 86.55096826 4.479042 86.55096826 2.21875 89.94140625 C2.76142372 82.61838946 3.74721878 75.51913424 5.15625 68.31640625 C11.79634455 37.38202655 11.79634455 37.38202655 4.9296875 7.8671875 C1.63574696 3.52517498 -1.28586375 1.80909882 -6.78125 0.94140625 C-13.06909955 0.22957423 -18.2563762 2.05340404 -23.78125 4.94140625 C-24.79181869 5.93072466 -25.7943966 6.92843026 -26.78125 7.94140625 C-27.44125 7.94140625 -28.10125 7.94140625 -28.78125 7.94140625 C-29.05453125 8.66328125 -29.3278125 9.38515625 -29.609375 10.12890625 C-30.75026105 12.86703276 -32.09564953 15.34806346 -33.53125 17.94140625 C-38.03228745 26.76610035 -40.27899312 36.39903758 -42.78125 45.94140625 C-43.11125 45.94140625 -43.44125 45.94140625 -43.78125 45.94140625 C-43.25287512 39.53088205 -42.07736011 33.94312241 -39.96875 27.87890625 C-39.72060547 27.12802734 -39.47246094 26.37714844 -39.21679688 25.60351562 C-35.40539063 14.38265806 -30.61031108 5.62779606 -19.78125 -0.05859375 C-13.59798345 -2.1196826 -6.12111203 -2.32980528 0 0 Z " fill="#FCC50C" transform="translate(284.78125,125.05859375)"/>
<path d="M0 0 C1.98073365 0.280828 3.95958448 0.57496614 5.9375 0.875 C7.03964844 1.03742188 8.14179688 1.19984375 9.27734375 1.3671875 C10.17582031 1.57601562 11.07429688 1.78484375 12 2 C12.495 2.99 12.495 2.99 13 4 C12.37134033 4.12528076 11.74268066 4.25056152 11.0949707 4.37963867 C-11.21848533 8.87988294 -33.31153658 14.24204453 -46.875 34.3125 C-55.04162504 48.21109896 -56.84319545 64.89546654 -57.7890625 80.75 C-58 83 -58 83 -59 86 C-59.99 85.67 -60.98 85.34 -62 85 C-62.43069251 81.10429463 -62.85782462 77.20821658 -63.28173828 73.31176758 C-63.49716153 71.33850027 -63.71535919 69.36553649 -63.93359375 67.39257812 C-64.06894531 66.14541016 -64.20429688 64.89824219 -64.34375 63.61328125 C-64.46943359 62.46641846 -64.59511719 61.31955566 -64.72460938 60.13793945 C-64.96475705 57.40157597 -65.05393931 54.74416227 -65 52 C-64.34 52.33 -63.68 52.66 -63 53 C-62.49755859 55.22485352 -62.49755859 55.22485352 -62.1484375 58.12890625 C-62.01953125 59.16337891 -61.890625 60.19785156 -61.7578125 61.26367188 C-61.63148438 62.35228516 -61.50515625 63.44089844 -61.375 64.5625 C-61.2409375 65.65498047 -61.106875 66.74746094 -60.96875 67.87304688 C-60.63762867 70.58114631 -60.31510912 73.2899984 -60 76 C-59.93006836 75.36610352 -59.86013672 74.73220703 -59.78808594 74.07910156 C-57.35841974 52.57147764 -53.61946791 33.56884806 -36 19 C-24.09361553 10.218605 -11.07437195 6.74090061 3 3 C2.01 2.67 1.02 2.34 0 2 C0 1.34 0 0.68 0 0 Z " fill="#FAC30E" transform="translate(481,158)"/>
<path d="M0 0 C2.1875 0.3125 2.1875 0.3125 4 1 C3.42008587 4.36937448 2.39650321 5.96552427 -0.0625 8.3125 C-0.69285156 8.91578125 -1.32320313 9.5190625 -1.97265625 10.140625 C-4.61864927 12.56739316 -7.29050038 14.95592585 -10.01953125 17.2890625 C-11.33254099 18.4233786 -12.62243069 19.58505907 -13.88671875 20.7734375 C-18.37406192 24.92009301 -18.37406192 24.92009301 -21.9375 25.375 C-22.618125 25.25125 -23.29875 25.1275 -24 25 C-23.49760294 20.75178957 -22.33891694 18.85803613 -19.25 15.9375 C-18.53070313 15.25558594 -17.81140625 14.57367188 -17.0703125 13.87109375 C-10.57411273 8 -10.57411273 8 -8 8 C-8 7.34 -8 6.68 -8 6 C-6.34928604 4.97388051 -4.68029994 3.97691857 -3 3 C-2.484375 2.4225 -1.96875 1.845 -1.4375 1.25 C-0.963125 0.8375 -0.48875 0.425 0 0 Z " fill="#FDD726" transform="translate(366,199)"/>
<path d="M0 0 C2.73536201 3.30027373 5.05658065 6.63373114 7.25 10.3125 C21.71759299 33.02995733 50.74302548 44.94371421 76.03271484 50.68896484 C81.9985582 51.93500148 87.98678717 53.01009482 94 54 C94 54.33 94 54.66 94 55 C87.29410496 55.22983914 81.49526372 54.50307472 75 52.875 C74.08573242 52.6490918 73.17146484 52.42318359 72.22949219 52.19042969 C51.52034148 46.92490302 33.48272262 38.73181305 17 25 C15.98808594 24.21238281 14.97617188 23.42476562 13.93359375 22.61328125 C10.7666303 19.79211142 8.5702617 16.9502307 6.25 13.4375 C5.86457031 12.87353516 5.47914063 12.30957031 5.08203125 11.72851562 C0 4.21097805 0 4.21097805 0 0 Z " fill="#FBC40B" transform="translate(154,617)"/>
<path d="M0 0 C0.94822053 3.37119314 0.9134255 5.20333212 -0.1171875 8.578125 C-0.38966309 9.47926025 -0.66213867 10.38039551 -0.94287109 11.30883789 C-1.4042749 12.76471313 -1.4042749 12.76471313 -1.875 14.25 C-2.19162598 15.26634521 -2.50825195 16.28269043 -2.83447266 17.32983398 C-7.34200827 31.54045605 -12.64298383 45.45590546 -18.43188477 59.19042969 C-18.80498779 60.07633789 -19.17809082 60.96224609 -19.5625 61.875 C-19.93109131 62.74930664 -20.29968262 63.62361328 -20.67944336 64.52441406 C-24.20315199 73.09295704 -26.87598505 81.88893207 -29.43774414 90.78662109 C-29.8997522 92.37144287 -29.8997522 92.37144287 -30.37109375 93.98828125 C-30.7721936 95.40427612 -30.7721936 95.40427612 -31.18139648 96.84887695 C-32 99 -32 99 -34 100 C-30.8803423 84.40171152 -26.14810877 68.61851941 -19.2578125 54.28125 C-15.25081387 45.67876513 -12.31879762 36.74024492 -9.3125 27.75 C-8.73958394 26.05446717 -8.16601949 24.35915329 -7.59179688 22.6640625 C-5.03887136 15.11682623 -2.51742284 7.55914046 0 0 Z " fill="#FDC50A" transform="translate(275,260)"/>
<path d="M0 0 C4.39120156 4.19160149 7.34789038 9.1688933 8.05859375 15.27734375 C8.06194032 17.39572545 7.92028461 19.51347085 7.75 21.625 C7.42 21.625 7.09 21.625 6.75 21.625 C6.45996094 20.30435547 6.45996094 20.30435547 6.1640625 18.95703125 C5.77347656 17.21486328 5.77347656 17.21486328 5.375 15.4375 C5.11976563 14.28894531 4.86453125 13.14039063 4.6015625 11.95703125 C3.85527548 9.03692652 2.94568212 6.38546611 1.75 3.625 C1.09 3.625 0.43 3.625 -0.25 3.625 C-0.25 2.965 -0.25 2.305 -0.25 1.625 C-11.06771555 1.14539685 -16.65306153 2.17299134 -24.8125 9.3125 C-35.60153039 19.51277021 -45.17921897 33.02384424 -46.8125 48.125 C-47.0290625 49.8575 -47.0290625 49.8575 -47.25 51.625 C-48.24 52.12 -48.24 52.12 -49.25 52.625 C-50.42037019 37.11759497 -40.21698264 22.46257563 -30.57763672 11.08935547 C-22.66773417 2.36489877 -11.88217917 -5.0270758 0 0 Z " fill="#FCC40C" transform="translate(472.25,396.375)"/>
<path d="M0 0 C8.01046717 -0.13375548 15.99654119 0.04854039 24 0.375 C24.9077417 0.40585693 25.8154834 0.43671387 26.75073242 0.46850586 C32.56670825 0.72876117 36.88496397 1.10759934 41.375 5.125 C43.14377066 8.25436347 43.46716445 10.17508918 42.78515625 13.7109375 C38.81704362 25.27966388 28.23703694 36.64131186 18 43 C17.34 42.67 16.68 42.34 16 42 C21.75 37 21.75 37 24 37 C24.33 36.01 24.66 35.02 25 34 C26.14781766 32.85218234 27.29904313 31.70753408 28.46875 30.58203125 C33.787952 25.08642714 39.35349823 18.61786979 40.4375 10.875 C39.88230502 7.22657586 38.85032604 6.28302668 36 4 C33.38937614 3.39499497 33.38937614 3.39499497 30.52734375 3.4609375 C28.92922852 3.42613281 28.92922852 3.42613281 27.29882812 3.390625 C26.18958984 3.38546875 25.08035156 3.3803125 23.9375 3.375 C15.73630721 3.2773086 8.02938238 2.74591099 0 1 C0 0.67 0 0.34 0 0 Z " fill="#FBC60C" transform="translate(390,380)"/>
<path d="M0 0 C7.87601846 4.19951766 13.14780344 11.72170516 18 19 C17.01 19.495 17.01 19.495 16 20 C15.43152344 19.27554688 14.86304688 18.55109375 14.27734375 17.8046875 C11.89892986 14.82670684 9.46908263 11.90316329 7 9 C6.42765625 8.31808594 5.8553125 7.63617187 5.265625 6.93359375 C1.73483614 3.30666955 -1.06592554 2.57884549 -6.125 2.375 C-9.68932732 2.57918313 -11.73784843 2.86613537 -14.9375 4.5 C-15.618125 5.325 -16.29875 6.15 -17 7 C-17.44988281 7.48984375 -17.89976562 7.9796875 -18.36328125 8.484375 C-24.27153856 16.00700121 -23.52597948 27.42603652 -22.5625 36.5 C-22.376875 37.655 -22.19125 38.81 -22 40 C-24 39 -24 39 -24.66796875 37.13671875 C-26.82293412 26.97759629 -26.51118205 17.04876512 -21 8 C-15.75323855 1.44154818 -8.35750815 -3.01980275 0 0 Z " fill="#FCC60C" transform="translate(176,576)"/>
<path d="M0 0 C2.23828125 -0.25 2.23828125 -0.25 5 0 C7.10546875 1.6875 7.10546875 1.6875 9.1875 4 C14.57754862 9.71507668 20.46203554 14.64135703 27 19 C27 19.66 27 20.32 27 21 C27.639375 21.309375 28.27875 21.61875 28.9375 21.9375 C31 23 31 23 32 24 C32.04063832 25.66617115 32.042721 27.33388095 32 29 C30 30.375 30 30.375 27 31 C20.94993651 27.63541962 15.99384912 22.27406042 11.1875 17.375 C10.53330078 16.72015625 9.87910156 16.0653125 9.20507812 15.390625 C1 7.11011715 1 7.11011715 1 4 C0.34 3.67 -0.32 3.34 -1 3 C-0.67 2.01 -0.34 1.02 0 0 Z M2 2 C4.68184368 7.99010339 7.56424481 12.13209359 12.3125 16.625 C12.89064453 17.18405029 13.46878906 17.74310059 14.06445312 18.3190918 C15.69929983 19.89072382 17.34843216 21.44598865 19 23 C19.73605469 23.71542969 20.47210938 24.43085938 21.23046875 25.16796875 C23.79570263 27.55199406 25.40883787 28.92453249 28.9375 29.375 C29.618125 29.25125 30.29875 29.1275 31 29 C29.73175428 23.96304685 28.12246262 21.79691428 24 18.6875 C19.19814369 14.9583317 14.66636343 11.05902932 10.19140625 6.9453125 C6.58406054 3.35352587 6.58406054 3.35352587 2 2 Z " fill="#F9C20B" transform="translate(444,201)"/>
<path d="M0 0 C0 1.32 0 2.64 0 4 C-0.99 4 -1.98 4 -3 4 C-3.226875 4.70125 -3.45375 5.4025 -3.6875 6.125 C-5.31656867 9.69343613 -7.40640731 12.06514511 -10 15 C-10.66 14.34 -11.32 13.68 -12 13 C-15.78903708 13.25260247 -17.54186593 15.27849443 -20 18 C-20.99 17.67 -21.98 17.34 -23 17 C-18.11862893 12.57663412 -13.16861217 8.23770876 -8.125 4 C-7.22007812 3.236875 -6.31515625 2.47375 -5.3828125 1.6875 C-3 0 -3 0 0 0 Z " fill="#FDD81F" transform="translate(381,187)"/>
<path d="M0 0 C3.62278401 1.32321544 6.57341088 2.94994694 9.75 5.125 C21.28073781 12.57419805 34.00427045 17.7161462 47 22 C47 22.66 47 23.32 47 24 C40.61908202 22.78931997 34.78564599 20.97729706 28.8125 18.4375 C27.99313965 18.09033936 27.1737793 17.74317871 26.32958984 17.38549805 C16.50684166 13.08672957 7.4375519 7.8355021 0 0 Z " fill="#FDC60C" transform="translate(206,607)"/>
<path d="M0 0 C3.46629835 1.48653506 5.69022036 3.45722351 8.328125 6.1328125 C9.12734375 6.93847656 9.9265625 7.74414062 10.75 8.57421875 C11.575 9.41597656 12.4 10.25773437 13.25 11.125 C14.51070313 12.39923828 14.51070313 12.39923828 15.796875 13.69921875 C17.86915683 15.79504923 19.93662393 17.89540713 22 20 C21.67 20.66 21.34 21.32 21 22 C15.2902045 21.58221009 12.39042858 19.42453429 8 16 C8.66 15.67 9.32 15.34 10 15 C12.03144641 15.93446535 14.03533587 16.93224776 16 18 C15.36058256 14.9194894 15.36058256 14.9194894 13.1875 14.0625 C12.465625 13.711875 11.74375 13.36125 11 13 C8.75 11 8.75 11 7 9 C7 8.34 7 7.68 7 7 C6.401875 6.731875 5.80375 6.46375 5.1875 6.1875 C3.00152146 5.00082594 1.58667406 3.90400887 0 2 C0 1.34 0 0.68 0 0 Z " fill="#FCC811" transform="translate(346,112)"/>
<path d="M0 0 C4.29405419 0.47711713 6.10857745 2.97409268 9 6 C10.7968636 7.51683291 12.61343664 9.00321647 14.44921875 10.47265625 C16.17379096 12.17116439 17.03692051 13.79393122 18 16 C10.80040636 13.45896695 5.01039522 8.57644306 -1 4 C-0.67 2.68 -0.34 1.36 0 0 Z " fill="#FCD92A" transform="translate(345,115)"/>
<path d="M0 0 C0.391875 0.556875 0.78375 1.11375 1.1875 1.6875 C5.5994712 7.3165667 11.10792726 11.58585123 16.671875 16.01171875 C19 18 19 18 20 20 C12.26655229 16.51345763 3.62321595 10.19166925 -1 3 C-0.67 2.01 -0.34 1.02 0 0 Z " fill="#FBC40B" transform="translate(334,107)"/>
<path d="M0 0 C0.66 0.33 1.32 0.66 2 1 C-0.80804268 3.96404505 -3.18315774 6.44499019 -7 8 C-7 8.66 -7 9.32 -7 10 C-8.42578125 11.54296875 -8.42578125 11.54296875 -10.3125 13.1875 C-10.92738281 13.73792969 -11.54226563 14.28835937 -12.17578125 14.85546875 C-12.77777344 15.23316406 -13.37976563 15.61085937 -14 16 C-14.99 15.67 -15.98 15.34 -17 15 C-11.35782624 9.97167385 -5.69637192 4.9668638 0 0 Z " fill="#FCC50A" transform="translate(375,189)"/>
<path d="M0 0 C0.66 0.33 1.32 0.66 2 1 C2 3.31 2 5.62 2 8 C1.34 8 0.68 8 0 8 C-0.33 10.64 -0.66 13.28 -1 16 C-1.33 16 -1.66 16 -2 16 C-2.20413361 10.26157749 -2.27141454 5.39460953 0 0 Z " fill="#F1C017" transform="translate(421,79)"/>
<path d="M0 0 C1.485 0.99 1.485 0.99 3 2 C2.67 4.64 2.34 7.28 2 10 C1.01 9.67 0.02 9.34 -1 9 C-1.09765625 2.84765625 -1.09765625 2.84765625 -1 1 C-0.67 0.67 -0.34 0.34 0 0 Z " fill="#F9CB19" transform="translate(420,234)"/>
<path d="M0 0 C0 0.33 0 0.66 0 1 C2.97 1.495 2.97 1.495 6 2 C6 2.33 6 2.66 6 3 C-0.44070471 3.10655578 -6.62641289 2.96205088 -13 2 C-13 1.67 -13 1.34 -13 1 C-8.59085217 -0.10228696 -4.51617599 -0.07654536 0 0 Z " fill="#FDD015" transform="translate(182,452)"/>
<path d="M0 0 C3.028162 2.01877466 3.66941791 2.81408973 5.1875 5.9375 C5.70376953 6.97197266 5.70376953 6.97197266 6.23046875 8.02734375 C7 10 7 10 7 13 C5.99406757 11.8803014 4.9954151 10.7540588 4 9.625 C3.1646875 8.68527344 3.1646875 8.68527344 2.3125 7.7265625 C1 6 1 6 1 4 C0.34 3.67 -0.32 3.34 -1 3 C-0.67 2.01 -0.34 1.02 0 0 Z " fill="#FCCC11" transform="translate(444,201)"/>
<path d="M0 0 C3.87511727 0.54984772 5.59576506 2.27555331 8.25 5.0625 C8.95640625 5.79597656 9.6628125 6.52945313 10.390625 7.28515625 C10.92171875 7.85105469 11.4528125 8.41695312 12 9 C8.26071501 9 7.59097747 8.08040398 4.875 5.625 C4.17117187 4.99851562 3.46734375 4.37203125 2.7421875 3.7265625 C1 2 1 2 0 0 Z " fill="#FCC40D" transform="translate(194,597)"/>
<path d="" fill="#3F3F3F" transform="translate(0,0)"/>
<path d="" fill="#2A2A2A" transform="translate(0,0)"/>
<path d="" fill="#000000" transform="translate(0,0)"/>
<path d="" fill="#000000" transform="translate(0,0)"/>
<path d="" fill="#000000" transform="translate(0,0)"/>
<path d="" fill="#3F3F3F" transform="translate(0,0)"/>
<path d="" fill="#000000" transform="translate(0,0)"/>
<path d="" fill="#000000" transform="translate(0,0)"/>
<path d="" fill="#000000" transform="translate(0,0)"/>
<path d="M0 0 C2 1 2 1 2 1 Z " fill="#FFFF00" transform="translate(254,675)"/>
<path d="M0 0 C2 1 2 1 2 1 Z " fill="#FFFF00" transform="translate(456,394)"/>
<path d="M0 0 C2 1 2 1 2 1 Z " fill="#FFFF00" transform="translate(465,393)"/>
<path d="M0 0 C2 1 2 1 2 1 Z " fill="#FFFF00" transform="translate(413,379)"/>
<path d="" fill="#000000" transform="translate(0,0)"/>
<path d="" fill="#FFFF00" transform="translate(0,0)"/>
<path d="" fill="#000000" transform="translate(0,0)"/>
<path d="" fill="#000000" transform="translate(0,0)"/>
<path d="" fill="#7F7F7F" transform="translate(0,0)"/>
<path d="" fill="#000000" transform="translate(0,0)"/>
<path d="" fill="#000000" transform="translate(0,0)"/>
<path d="" fill="#000000" transform="translate(0,0)"/>
<path d="" fill="#000000" transform="translate(0,0)"/>
<path d="" fill="#000000" transform="translate(0,0)"/>
<path d="" fill="#555555" transform="translate(0,0)"/>
<path d="" fill="#000000" transform="translate(0,0)"/>
<path d="" fill="#000000" transform="translate(0,0)"/>
<path d="" fill="#000000" transform="translate(0,0)"/>
<path d="" fill="#000000" transform="translate(0,0)"/>
<path d="" fill="#000000" transform="translate(0,0)"/>
<path d="" fill="#000000" transform="translate(0,0)"/>
<path d="" fill="#000000" transform="translate(0,0)"/>
<path d="" fill="#000000" transform="translate(0,0)"/>
<path d="" fill="#000000" transform="translate(0,0)"/>
<path d="" fill="#000000" transform="translate(0,0)"/>
<path d="" fill="#000000" transform="translate(0,0)"/>
<path d="" fill="#000000" transform="translate(0,0)"/>
<path d="" fill="#7F7F7F" transform="translate(0,0)"/>
<path d="" fill="#000000" transform="translate(0,0)"/>
<path d="" fill="#7F7F7F" transform="translate(0,0)"/>
<path d="" fill="#7F7F7F" transform="translate(0,0)"/>
<path d="" fill="#000000" transform="translate(0,0)"/>
<path d="" fill="#000000" transform="translate(0,0)"/>
<path d="" fill="#000000" transform="translate(0,0)"/>
<path d="" fill="#555555" transform="translate(0,0)"/>
<path d="" fill="#000000" transform="translate(0,0)"/>
<path d="" fill="#000000" transform="translate(0,0)"/>
<path d="" fill="#000000" transform="translate(0,0)"/>
<path d="" fill="#000000" transform="translate(0,0)"/>
<path d="" fill="#7F7F7F" transform="translate(0,0)"/>
<path d="" fill="#000000" transform="translate(0,0)"/>
<path d="" fill="#000000" transform="translate(0,0)"/>
<path d="" fill="#000000" transform="translate(0,0)"/>
<path d="" fill="#000000" transform="translate(0,0)"/>
<path d="" fill="#7F7F7F" transform="translate(0,0)"/>
<path d="" fill="#7F7F7F" transform="translate(0,0)"/>
<path d="" fill="#000000" transform="translate(0,0)"/>
<path d="" fill="#000000" transform="translate(0,0)"/>
<path d="" fill="#7F7F7F" transform="translate(0,0)"/>
<path d="" fill="#555555" transform="translate(0,0)"/>
<path d="" fill="#000000" transform="translate(0,0)"/>
<path d="" fill="#000000" transform="translate(0,0)"/>
<path d="" fill="#000000" transform="translate(0,0)"/>
<path d="" fill="#000000" transform="translate(0,0)"/>
<path d="" fill="#000000" transform="translate(0,0)"/>
<path d="" fill="#7F7F7F" transform="translate(0,0)"/>
<path d="" fill="#555555" transform="translate(0,0)"/>
<path d="" fill="#000000" transform="translate(0,0)"/>
<path d="" fill="#000000" transform="translate(0,0)"/>
<path d="" fill="#000000" transform="translate(0,0)"/>
<path d="" fill="#000000" transform="translate(0,0)"/>
<path d="" fill="#000000" transform="translate(0,0)"/>
<path d="" fill="#7F7F7F" transform="translate(0,0)"/>
<path d="" fill="#FF0000" transform="translate(0,0)"/>
<path d="" fill="#555555" transform="translate(0,0)"/>
<path d="" fill="#000000" transform="translate(0,0)"/>
<path d="" fill="#7F7F7F" transform="translate(0,0)"/>
<path d="" fill="#7F7F7F" transform="translate(0,0)"/>
<path d="" fill="#7F7F3F" transform="translate(0,0)"/>
<path d="" fill="#000000" transform="translate(0,0)"/>
<path d="" fill="#000000" transform="translate(0,0)"/>
<path d="" fill="#000000" transform="translate(0,0)"/>
<path d="" fill="#000000" transform="translate(0,0)"/>
<path d="" fill="#000000" transform="translate(0,0)"/>
<path d="" fill="#7F7F7F" transform="translate(0,0)"/>
<path d="" fill="#7F7F7F" transform="translate(0,0)"/>
<path d="" fill="#000000" transform="translate(0,0)"/>
<path d="" fill="#000000" transform="translate(0,0)"/>
<path d="" fill="#000000" transform="translate(0,0)"/>
<path d="" fill="#000000" transform="translate(0,0)"/>
<path d="" fill="#000000" transform="translate(0,0)"/>
<path d="" fill="#000000" transform="translate(0,0)"/>
<path d="" fill="#000000" transform="translate(0,0)"/>
<path d="" fill="#7F7F7F" transform="translate(0,0)"/>
<path d="" fill="#000000" transform="translate(0,0)"/>
<path d="" fill="#000000" transform="translate(0,0)"/>
<path d="" fill="#000000" transform="translate(0,0)"/>
<path d="" fill="#7F7F7F" transform="translate(0,0)"/>
<path d="" fill="#000000" transform="translate(0,0)"/>
<path d="" fill="#000000" transform="translate(0,0)"/>
<path d="" fill="#000000" transform="translate(0,0)"/>
<path d="" fill="#000000" transform="translate(0,0)"/>
<path d="" fill="#000000" transform="translate(0,0)"/>
<path d="" fill="#000000" transform="translate(0,0)"/>
<path d="" fill="#AA5555" transform="translate(0,0)"/>
<path d="" fill="#000000" transform="translate(0,0)"/>
<path d="" fill="#7F7F00" transform="translate(0,0)"/>
<path d="" fill="#AA5555" transform="translate(0,0)"/>
<path d="" fill="#000000" transform="translate(0,0)"/>
<path d="" fill="#000000" transform="translate(0,0)"/>
<path d="" fill="#FFFF00" transform="translate(0,0)"/>
<path d="" fill="#000000" transform="translate(0,0)"/>
<path d="" fill="#FF0000" transform="translate(0,0)"/>
<path d="" fill="#000000" transform="translate(0,0)"/>
<path d="" fill="#7F7F00" transform="translate(0,0)"/>
<path d="" fill="#FF0000" transform="translate(0,0)"/>
<path d="" fill="#000000" transform="translate(0,0)"/>
<path d="" fill="#000000" transform="translate(0,0)"/>
<path d="" fill="#7F7F7F" transform="translate(0,0)"/>
<path d="" fill="#FF0000" transform="translate(0,0)"/>
<path d="" fill="#7F7F3F" transform="translate(0,0)"/>
<path d="" fill="#000000" transform="translate(0,0)"/>
<path d="" fill="#000000" transform="translate(0,0)"/>
<path d="" fill="#FFFF00" transform="translate(0,0)"/>
<path d="" fill="#000000" transform="translate(0,0)"/>
<path d="" fill="#FF0000" transform="translate(0,0)"/>
<path d="" fill="#AAAA55" transform="translate(0,0)"/>
<path d="" fill="#000000" transform="translate(0,0)"/>
<path d="" fill="#FFAA00" transform="translate(0,0)"/>
<path d="" fill="#FF0000" transform="translate(0,0)"/>
<path d="" fill="#000000" transform="translate(0,0)"/>
<path d="" fill="#7F7F00" transform="translate(0,0)"/>
<path d="" fill="#FFFF00" transform="translate(0,0)"/>
<path d="" fill="#AAAA55" transform="translate(0,0)"/>
<path d="" fill="#000000" transform="translate(0,0)"/>
<path d="" fill="#000000" transform="translate(0,0)"/>
<path d="" fill="#000000" transform="translate(0,0)"/>
<path d="" fill="#FFCC33" transform="translate(0,0)"/>
<path d="" fill="#7F7F00" transform="translate(0,0)"/>
<path d="" fill="#7F7F7F" transform="translate(0,0)"/>
<path d="" fill="#000000" transform="translate(0,0)"/>
<path d="" fill="#7F7F00" transform="translate(0,0)"/>
<path d="" fill="#FFFF00" transform="translate(0,0)"/>
<path d="" fill="#000000" transform="translate(0,0)"/>
<path d="" fill="#FF0000" transform="translate(0,0)"/>
<path d="" fill="#FFFF00" transform="translate(0,0)"/>
<path d="" fill="#000000" transform="translate(0,0)"/>
<path d="" fill="#000000" transform="translate(0,0)"/>
<path d="" fill="#7F7F00" transform="translate(0,0)"/>
<path d="" fill="#FFFF00" transform="translate(0,0)"/>
<path d="" fill="#000000" transform="translate(0,0)"/>
<path d="" fill="#FFFF00" transform="translate(0,0)"/>
<path d="" fill="#000000" transform="translate(0,0)"/>
<path d="" fill="#FFFF00" transform="translate(0,0)"/>
<path d="" fill="#7F7F7F" transform="translate(0,0)"/>
<path d="" fill="#FFFF00" transform="translate(0,0)"/>
<path d="" fill="#FFFF00" transform="translate(0,0)"/>
<path d="" fill="#FFAA00" transform="translate(0,0)"/>
<path d="" fill="#000000" transform="translate(0,0)"/>
<path d="" fill="#FFFF00" transform="translate(0,0)"/>
<path d="" fill="#7F7F7F" transform="translate(0,0)"/>
<path d="" fill="#FFFF00" transform="translate(0,0)"/>
<path d="" fill="#000000" transform="translate(0,0)"/>
<path d="" fill="#000000" transform="translate(0,0)"/>
<path d="" fill="#000000" transform="translate(0,0)"/>
<path d="" fill="#FF0000" transform="translate(0,0)"/>
<path d="" fill="#FF0000" transform="translate(0,0)"/>
<path d="" fill="#FFFF00" transform="translate(0,0)"/>
<path d="" fill="#000000" transform="translate(0,0)"/>
<path d="" fill="#000000" transform="translate(0,0)"/>
<path d="" fill="#7F7F00" transform="translate(0,0)"/>
<path d="" fill="#7F7F00" transform="translate(0,0)"/>
<path d="" fill="#AA5555" transform="translate(0,0)"/>
<path d="" fill="#7F7F00" transform="translate(0,0)"/>
<path d="" fill="#7F7F00" transform="translate(0,0)"/>
<path d="" fill="#FF0000" transform="translate(0,0)"/>
<path d="" fill="#FFFF00" transform="translate(0,0)"/>
<path d="" fill="#FFFF00" transform="translate(0,0)"/>
<path d="" fill="#FFFF00" transform="translate(0,0)"/>
<path d="" fill="#000000" transform="translate(0,0)"/>
<path d="" fill="#FF0000" transform="translate(0,0)"/>
<path d="" fill="#FFFF00" transform="translate(0,0)"/>
<path d="" fill="#FFFF00" transform="translate(0,0)"/>
<path d="" fill="#FFFF00" transform="translate(0,0)"/>
<path d="" fill="#FF0000" transform="translate(0,0)"/>
<path d="" fill="#000000" transform="translate(0,0)"/>
<path d="" fill="#FFFF00" transform="translate(0,0)"/>
<path d="" fill="#7F7F00" transform="translate(0,0)"/>
<path d="" fill="#000000" transform="translate(0,0)"/>
<path d="" fill="#FFFF00" transform="translate(0,0)"/>
<path d="" fill="#FFFF00" transform="translate(0,0)"/>
<path d="" fill="#FFFF00" transform="translate(0,0)"/>
<path d="" fill="#FFFF00" transform="translate(0,0)"/>
<path d="" fill="#FFFF00" transform="translate(0,0)"/>
<path d="" fill="#FFFF00" transform="translate(0,0)"/>
<path d="" fill="#FFFF00" transform="translate(0,0)"/>
<path d="" fill="#FF0000" transform="translate(0,0)"/>
<path d="" fill="#7F7F00" transform="translate(0,0)"/>
<path d="" fill="#FFFF00" transform="translate(0,0)"/>
<path d="" fill="#FF0000" transform="translate(0,0)"/>
<path d="" fill="#FFFF00" transform="translate(0,0)"/>
<path d="" fill="#FFFF00" transform="translate(0,0)"/>
<path d="" fill="#FF0000" transform="translate(0,0)"/>
<path d="" fill="#FFFF00" transform="translate(0,0)"/>
<path d="" fill="#FFFF00" transform="translate(0,0)"/>
<path d="" fill="#FFFF00" transform="translate(0,0)"/>
<path d="" fill="#FF0000" transform="translate(0,0)"/>
<path d="" fill="#FFFF00" transform="translate(0,0)"/>
<path d="" fill="#FFAA00" transform="translate(0,0)"/>
<path d="" fill="#FFFF00" transform="translate(0,0)"/>
<path d="" fill="#7F7F00" transform="translate(0,0)"/>
<path d="" fill="#FF0000" transform="translate(0,0)"/>
<path d="" fill="#FFFF00" transform="translate(0,0)"/>
<path d="" fill="#FFFF00" transform="translate(0,0)"/>
<path d="" fill="#FF0000" transform="translate(0,0)"/>
<path d="" fill="#FFFF00" transform="translate(0,0)"/>
<path d="" fill="#FFFF00" transform="translate(0,0)"/>
<path d="" fill="#FFFF00" transform="translate(0,0)"/>
<path d="" fill="#FF0000" transform="translate(0,0)"/>
<path d="" fill="#FFFF00" transform="translate(0,0)"/>
<path d="" fill="#FFFF00" transform="translate(0,0)"/>
<path d="" fill="#FFFF00" transform="translate(0,0)"/>
<path d="" fill="#FF0000" transform="translate(0,0)"/>
<path d="" fill="#FFFF00" transform="translate(0,0)"/>
<path d="" fill="#FF7F00" transform="translate(0,0)"/>
<path d="" fill="#FFFF00" transform="translate(0,0)"/>
<path d="" fill="#FFFF00" transform="translate(0,0)"/>
<path d="" fill="#FF0000" transform="translate(0,0)"/>
<path d="" fill="#FF0000" transform="translate(0,0)"/>
<path d="" fill="#FF7F00" transform="translate(0,0)"/>
<path d="" fill="#FFFF00" transform="translate(0,0)"/>
<path d="" fill="#FF0000" transform="translate(0,0)"/>
<path d="" fill="#FFFF00" transform="translate(0,0)"/>
<path d="" fill="#FF0000" transform="translate(0,0)"/>
<path d="" fill="#FFFF00" transform="translate(0,0)"/>
<path d="" fill="#FFFF00" transform="translate(0,0)"/>
<path d="" fill="#FF0000" transform="translate(0,0)"/>
<path d="" fill="#FFFF00" transform="translate(0,0)"/>
<path d="" fill="#FFFF00" transform="translate(0,0)"/>
<path d="" fill="#FFFF00" transform="translate(0,0)"/>
<path d="" fill="#FFFF00" transform="translate(0,0)"/>
<path d="" fill="#FFFF00" transform="translate(0,0)"/>
<path d="" fill="#FFFF00" transform="translate(0,0)"/>
<path d="" fill="#FF0000" transform="translate(0,0)"/>
<path d="" fill="#FFFF00" transform="translate(0,0)"/>
<path d="" fill="#FFFF00" transform="translate(0,0)"/>
<path d="" fill="#FFFF00" transform="translate(0,0)"/>
<path d="" fill="#FFFF00" transform="translate(0,0)"/>
<path d="" fill="#000000" transform="translate(0,0)"/>
<path d="" fill="#FFFF00" transform="translate(0,0)"/>
<path d="" fill="#FFFF00" transform="translate(0,0)"/>
<path d="" fill="#FFFF00" transform="translate(0,0)"/>
<path d="" fill="#FFFF00" transform="translate(0,0)"/>
<path d="" fill="#FF0000" transform="translate(0,0)"/>
<path d="" fill="#FFFF00" transform="translate(0,0)"/>
<path d="" fill="#FF0000" transform="translate(0,0)"/>
<path d="" fill="#FFFF00" transform="translate(0,0)"/>
<path d="" fill="#FF0000" transform="translate(0,0)"/>
<path d="" fill="#FFFF00" transform="translate(0,0)"/>
<path d="" fill="#FFFF00" transform="translate(0,0)"/>
<path d="" fill="#FF0000" transform="translate(0,0)"/>
<path d="" fill="#FFFF00" transform="translate(0,0)"/>
<path d="" fill="#FFFF00" transform="translate(0,0)"/>
<path d="" fill="#FFFF00" transform="translate(0,0)"/>
<path d="" fill="#FFFF00" transform="translate(0,0)"/>
<path d="" fill="#FFFF00" transform="translate(0,0)"/>
<path d="" fill="#FFFF00" transform="translate(0,0)"/>
<path d="" fill="#000000" transform="translate(0,0)"/>
<path d="" fill="#FFAA00" transform="translate(0,0)"/>
<path d="" fill="#FFFF00" transform="translate(0,0)"/>
<path d="" fill="#FF0000" transform="translate(0,0)"/>
<path d="" fill="#FFFF00" transform="translate(0,0)"/>
<path d="" fill="#FF0000" transform="translate(0,0)"/>
<path d="" fill="#FFFF00" transform="translate(0,0)"/>
<path d="" fill="#FFFF00" transform="translate(0,0)"/>
<path d="" fill="#FFD42A" transform="translate(0,0)"/>
<path d="" fill="#000000" transform="translate(0,0)"/>
<path d="" fill="#7F7F00" transform="translate(0,0)"/>
<path d="" fill="#FFFF00" transform="translate(0,0)"/>
<path d="" fill="#FFFF00" transform="translate(0,0)"/>
<path d="" fill="#FFFF00" transform="translate(0,0)"/>
<path d="" fill="#7F7F00" transform="translate(0,0)"/>
<path d="" fill="#FFFF00" transform="translate(0,0)"/>
<path d="" fill="#000000" transform="translate(0,0)"/>
<path d="" fill="#FFFF00" transform="translate(0,0)"/>
<path d="" fill="#FFFF00" transform="translate(0,0)"/>
<path d="" fill="#000000" transform="translate(0,0)"/>
<path d="" fill="#000000" transform="translate(0,0)"/>
<path d="" fill="#FFFF00" transform="translate(0,0)"/>
<path d="" fill="#FFFF00" transform="translate(0,0)"/>
<path d="" fill="#000000" transform="translate(0,0)"/>
<path d="" fill="#FFFF00" transform="translate(0,0)"/>
<path d="" fill="#FFFF00" transform="translate(0,0)"/>
<path d="" fill="#7F7F00" transform="translate(0,0)"/>
<path d="" fill="#000000" transform="translate(0,0)"/>
<path d="" fill="#000000" transform="translate(0,0)"/>
<path d="" fill="#FFFF00" transform="translate(0,0)"/>
<path d="" fill="#000000" transform="translate(0,0)"/>
<path d="" fill="#FFFF00" transform="translate(0,0)"/>
<path d="" fill="#FFFF00" transform="translate(0,0)"/>
<path d="" fill="#FFFF00" transform="translate(0,0)"/>
<path d="" fill="#FFFF00" transform="translate(0,0)"/>
<path d="" fill="#7F7F00" transform="translate(0,0)"/>
<path d="" fill="#000000" transform="translate(0,0)"/>
<path d="" fill="#FFFF00" transform="translate(0,0)"/>
<path d="" fill="#7F7F00" transform="translate(0,0)"/>
<path d="" fill="#FF0000" transform="translate(0,0)"/>
<path d="" fill="#FFFF00" transform="translate(0,0)"/>
<path d="" fill="#000000" transform="translate(0,0)"/>
<path d="" fill="#FFFF00" transform="translate(0,0)"/>
<path d="" fill="#7F7F00" transform="translate(0,0)"/>
<path d="" fill="#FFFF00" transform="translate(0,0)"/>
<path d="" fill="#000000" transform="translate(0,0)"/>
<path d="" fill="#FFFF00" transform="translate(0,0)"/>
<path d="" fill="#AAAA55" transform="translate(0,0)"/>
<path d="" fill="#000000" transform="translate(0,0)"/>
<path d="" fill="#FF0000" transform="translate(0,0)"/>
<path d="" fill="#FFFF00" transform="translate(0,0)"/>
<path d="" fill="#FF0000" transform="translate(0,0)"/>
<path d="" fill="#FFFF00" transform="translate(0,0)"/>
<path d="" fill="#FFFF00" transform="translate(0,0)"/>
<path d="" fill="#FF0000" transform="translate(0,0)"/>
<path d="" fill="#FF0000" transform="translate(0,0)"/>
<path d="" fill="#FFFF00" transform="translate(0,0)"/>
<path d="" fill="#000000" transform="translate(0,0)"/>
<path d="" fill="#FFFF00" transform="translate(0,0)"/>
<path d="" fill="#7F7F00" transform="translate(0,0)"/>
<path d="" fill="#FFFF00" transform="translate(0,0)"/>
<path d="" fill="#000000" transform="translate(0,0)"/>
<path d="" fill="#7F7F00" transform="translate(0,0)"/>
<path d="" fill="#FF0000" transform="translate(0,0)"/>
<path d="" fill="#FFFF00" transform="translate(0,0)"/>
<path d="" fill="#7F7F7F" transform="translate(0,0)"/>
<path d="" fill="#FF0000" transform="translate(0,0)"/>
<path d="" fill="#FFFF00" transform="translate(0,0)"/>
<path d="" fill="#7F7F00" transform="translate(0,0)"/>
<path d="" fill="#FFFF00" transform="translate(0,0)"/>
<path d="" fill="#FFFF00" transform="translate(0,0)"/>
<path d="" fill="#000000" transform="translate(0,0)"/>
<path d="" fill="#FFFF00" transform="translate(0,0)"/>
<path d="" fill="#7F7F7F" transform="translate(0,0)"/>
<path d="" fill="#7F7F00" transform="translate(0,0)"/>
<path d="" fill="#7F7F00" transform="translate(0,0)"/>
<path d="" fill="#FF0000" transform="translate(0,0)"/>
<path d="" fill="#FFFF00" transform="translate(0,0)"/>
<path d="" fill="#FFFF00" transform="translate(0,0)"/>
<path d="" fill="#7F7F7F" transform="translate(0,0)"/>
<path d="" fill="#FFBF3F" transform="translate(0,0)"/>
<path d="" fill="#000000" transform="translate(0,0)"/>
<path d="" fill="#7F7F7F" transform="translate(0,0)"/>
<path d="" fill="#000000" transform="translate(0,0)"/>
<path d="" fill="#FFFF00" transform="translate(0,0)"/>
<path d="" fill="#7F7F7F" transform="translate(0,0)"/>
<path d="" fill="#000000" transform="translate(0,0)"/>
<path d="" fill="#000000" transform="translate(0,0)"/>
<path d="" fill="#000000" transform="translate(0,0)"/>
<path d="" fill="#FFFF00" transform="translate(0,0)"/>
<path d="" fill="#FFFF00" transform="translate(0,0)"/>
<path d="" fill="#FFFF00" transform="translate(0,0)"/>
<path d="" fill="#FFFF00" transform="translate(0,0)"/>
<path d="" fill="#FFFF00" transform="translate(0,0)"/>
<path d="" fill="#FFFF00" transform="translate(0,0)"/>
<path d="" fill="#AA5555" transform="translate(0,0)"/>
<path d="" fill="#FFD42A" transform="translate(0,0)"/>
<path d="" fill="#FFFF00" transform="translate(0,0)"/>
<path d="" fill="#7F7F7F" transform="translate(0,0)"/>
<path d="" fill="#FFAA00" transform="translate(0,0)"/>
<path d="" fill="#FFFF00" transform="translate(0,0)"/>
<path d="" fill="#7F7F7F" transform="translate(0,0)"/>
<path d="" fill="#000000" transform="translate(0,0)"/>
<path d="" fill="#FFFF00" transform="translate(0,0)"/>
<path d="" fill="#000000" transform="translate(0,0)"/>
<path d="" fill="#FFFF00" transform="translate(0,0)"/>
<path d="" fill="#7F7F7F" transform="translate(0,0)"/>
<path d="" fill="#FFFF00" transform="translate(0,0)"/>
<path d="" fill="#FFFF00" transform="translate(0,0)"/>
<path d="" fill="#7F7F7F" transform="translate(0,0)"/>
<path d="" fill="#FFFF00" transform="translate(0,0)"/>
<path d="" fill="#FFFF00" transform="translate(0,0)"/>
<path d="" fill="#FF0000" transform="translate(0,0)"/>
<path d="" fill="#FFFF00" transform="translate(0,0)"/>
<path d="" fill="#FF0000" transform="translate(0,0)"/>
<path d="" fill="#000000" transform="translate(0,0)"/>
<path d="" fill="#000000" transform="translate(0,0)"/>
<path d="" fill="#FFFF00" transform="translate(0,0)"/>
<path d="" fill="#7F7F7F" transform="translate(0,0)"/>
<path d="" fill="#FFFF00" transform="translate(0,0)"/>
<path d="" fill="#000000" transform="translate(0,0)"/>
<path d="" fill="#FFFF00" transform="translate(0,0)"/>
<path d="" fill="#7F7F7F" transform="translate(0,0)"/>
<path d="" fill="#FFFF00" transform="translate(0,0)"/>
<path d="" fill="#FFFF00" transform="translate(0,0)"/>
<path d="" fill="#FFFF00" transform="translate(0,0)"/>
<path d="" fill="#FFFF00" transform="translate(0,0)"/>
<path d="" fill="#FFFF00" transform="translate(0,0)"/>
<path d="" fill="#555555" transform="translate(0,0)"/>
<path d="" fill="#7F7F7F" transform="translate(0,0)"/>
<path d="" fill="#7F7F00" transform="translate(0,0)"/>
<path d="" fill="#000000" transform="translate(0,0)"/>
<path d="" fill="#FF0000" transform="translate(0,0)"/>
<path d="" fill="#000000" transform="translate(0,0)"/>
<path d="" fill="#FFFF00" transform="translate(0,0)"/>
<path d="" fill="#000000" transform="translate(0,0)"/>
<path d="" fill="#000000" transform="translate(0,0)"/>
<path d="" fill="#000000" transform="translate(0,0)"/>
<path d="" fill="#FFFF00" transform="translate(0,0)"/>
<path d="" fill="#7F7F7F" transform="translate(0,0)"/>
<path d="" fill="#000000" transform="translate(0,0)"/>
<path d="" fill="#FF0000" transform="translate(0,0)"/>
<path d="" fill="#FFFF00" transform="translate(0,0)"/>
<path d="" fill="#FFFF00" transform="translate(0,0)"/>
<path d="" fill="#000000" transform="translate(0,0)"/>
<path d="" fill="#FF0000" transform="translate(0,0)"/>
<path d="" fill="#FFFF00" transform="translate(0,0)"/>
<path d="" fill="#555555" transform="translate(0,0)"/>
<path d="" fill="#FF0000" transform="translate(0,0)"/>
<path d="" fill="#000000" transform="translate(0,0)"/>
<path d="" fill="#7F7F00" transform="translate(0,0)"/>
<path d="" fill="#555555" transform="translate(0,0)"/>
<path d="" fill="#000000" transform="translate(0,0)"/>
<path d="" fill="#FF0000" transform="translate(0,0)"/>
<path d="" fill="#FFFF00" transform="translate(0,0)"/>
<path d="" fill="#FFFF00" transform="translate(0,0)"/>
<path d="" fill="#7F7F7F" transform="translate(0,0)"/>
<path d="" fill="#FF0000" transform="translate(0,0)"/>
<path d="" fill="#FF0000" transform="translate(0,0)"/>
<path d="" fill="#FFFF00" transform="translate(0,0)"/>
<path d="" fill="#555555" transform="translate(0,0)"/>
<path d="" fill="#000000" transform="translate(0,0)"/>
<path d="" fill="#000000" transform="translate(0,0)"/>
<path d="" fill="#FFFF00" transform="translate(0,0)"/>
<path d="" fill="#FFFF00" transform="translate(0,0)"/>
<path d="" fill="#FF0000" transform="translate(0,0)"/>
<path d="" fill="#7F7F7F" transform="translate(0,0)"/>
<path d="" fill="#FF0000" transform="translate(0,0)"/>
<path d="" fill="#000000" transform="translate(0,0)"/>
<path d="" fill="#000000" transform="translate(0,0)"/>
<path d="" fill="#000000" transform="translate(0,0)"/>
<path d="" fill="#7F7F00" transform="translate(0,0)"/>
<path d="" fill="#7F7F7F" transform="translate(0,0)"/>
<path d="" fill="#000000" transform="translate(0,0)"/>
<path d="" fill="#FF0000" transform="translate(0,0)"/>
<path d="" fill="#7F7F7F" transform="translate(0,0)"/>
<path d="" fill="#000000" transform="translate(0,0)"/>
<path d="" fill="#000000" transform="translate(0,0)"/>
<path d="" fill="#000000" transform="translate(0,0)"/>
<path d="" fill="#000000" transform="translate(0,0)"/>
<path d="" fill="#7F7F7F" transform="translate(0,0)"/>
<path d="" fill="#000000" transform="translate(0,0)"/>
<path d="" fill="#7F7F7F" transform="translate(0,0)"/>
<path d="" fill="#7F7F7F" transform="translate(0,0)"/>
<path d="" fill="#000000" transform="translate(0,0)"/>
<path d="" fill="#FF0000" transform="translate(0,0)"/>
<path d="" fill="#000000" transform="translate(0,0)"/>
<path d="" fill="#000000" transform="translate(0,0)"/>
<path d="" fill="#000000" transform="translate(0,0)"/>
<path d="" fill="#000000" transform="translate(0,0)"/>
<path d="" fill="#000000" transform="translate(0,0)"/>
<path d="" fill="#555555" transform="translate(0,0)"/>
<path d="" fill="#000000" transform="translate(0,0)"/>
<path d="" fill="#000000" transform="translate(0,0)"/>
<path d="" fill="#000000" transform="translate(0,0)"/>
<path d="" fill="#000000" transform="translate(0,0)"/>
<path d="" fill="#000000" transform="translate(0,0)"/>
<path d="" fill="#7F7F7F" transform="translate(0,0)"/>
<path d="" fill="#000000" transform="translate(0,0)"/>
<path d="" fill="#FF0000" transform="translate(0,0)"/>
<path d="" fill="#000000" transform="translate(0,0)"/>
<path d="" fill="#000000" transform="translate(0,0)"/>
<path d="" fill="#7F7F7F" transform="translate(0,0)"/>
<path d="" fill="#7F7F7F" transform="translate(0,0)"/>
<path d="" fill="#000000" transform="translate(0,0)"/>
<path d="" fill="#7F7F7F" transform="translate(0,0)"/>
<path d="" fill="#000000" transform="translate(0,0)"/>
</svg>
