<svg xmlns="http://www.w3.org/2000/svg" width="772" height="375"><path fill="#FAFAFA" d="m592 120 2 1 1.875-.5c2.449-.576 3.741-.192 6.125.5q3.129-.001 6.258-.07c11.673-.165 20.468.28 29.742 8.07 1.938 2.563 1.938 2.563 3 5l1.188 2.25c2.165 7.33.862 14.839-2.188 21.75-2.66 3.206-5.601 5.608-9 8l2 6h2l1 3 2 1v2l3.938.438c3.937.437 3.937.437 5.062 1.562.125 1.621.176 3.249.188 4.875l.042 2.68C647 190 647 190 645 193l-2.148-.5c-2.908-.51-5.53-.565-8.477-.5-3.232.07-5.282.031-8.375-1l-1-4-3-1c-1.57-2.18-1.57-2.18-3.125-4.875l-1.57-2.68C616 176 616 176 615 173l-8-1v6l6-1c2.03 3.315 2.127 5.432 1.625 9.25l-.336 2.703L614 191c-2.995.872-5.636 1.108-8.75 1.063l-2.422-.028L601 192l-1 2-1-1-1 2-3-1v-1l-2.082.035-2.73.028-2.708.035C585 193 585 193 582 192l-1 2-2-5-2 3c-5.188 1.138-10.399 1.183-15.687 1.188l-2.26.037c-6.944.018-6.944.018-10.053-2.225-1.262-2.525-1.099-4.312-1.062-7.125l.027-2.758L548 179h2l1-2-1-2 1-2q-4.344.212-8.687.438l-2.475.119c-4.035.212-7.895.487-11.838 1.443l1 2h3v14c-6.75 2.25-6.75 2.25-11 1l-1 3-2-2c-2.37-.319-2.37-.319-5-.25l-2.687-.016c-2.507.045-2.507.045-4.313 2.266v-3l-3-1c-.783-11.069-.783-11.069 2.313-14.75C508 175 508 175 511 175c2.145-5.279 4.198-10.594 6-16 2.702-6.478 5.816-12.749 9-19l-2-1h3l1-4-8 2c-1.095-3.285-1.1-5.737-1.062-9.187l.027-3.293L519 122c9.088-1.484 20.498-3.071 29 1 1.355 2.137 1.355 2.137 2.188 4.688l.937 2.71L552 133a172 172 0 0 0 1.688 3.813C555 140 555 140 555.563 142.875L556 145l2 1a169 169 0 0 1 3.375 8q.938 2.339 1.879 4.676l.91 2.272c.994 2.44 2.055 4.843 3.149 7.24 1.454 3.209 2.65 6.44 3.687 9.812l3-1 1 1c5.228.266 9.071-.028 14-2h-2v-3c2 1 2 1 3 2l-.108-3.457q-.194-6.333-.374-12.668-.08-2.745-.166-5.489a2563 2563 0 0 1-.23-7.878l-.083-2.488c-.153-5.792-.153-5.792.961-8.02h-2v2c-3.044.082-5.072-.024-8-1v-6h1l1-6-2-1c2-2 2-2 5.438-2.062L589 121zm17 15v2l-3-1q-.042 4.968-.062 9.938l-.026 2.865-.01 2.724-.016 2.524c-.102 1.954-.102 1.954 1.114 2.949 5.922.58 10.98.514 16-3 2.633-3.352 2.29-6.877 2-11-1.116-3.862-1.572-4.715-5-7-2.739-.458-2.739-.458-5.687-.625l-3.012-.227zm-70 10a958 958 0 0 0-2 5.313l-1.125 2.988c-1.03 2.702-1.03 2.702-.875 5.699 4.02.696 7.083 1.17 11 0a1143 1143 0 0 0-2.375-5.875l-1.336-3.305c-1.12-2.883-1.12-2.883-3.289-4.82m-12 32-1 2h2zm51 3v7l3 1 1 3v-11z"/><path fill="#E2BB3B" d="M148 82c2.974 2.583 3.926 4.12 4.258 8.059-.32 4.88-1.43 9.248-2.758 13.941-.26.945-.52 1.89-.79 2.863-2.375 8.403-5.217 16.626-8.257 24.81l-1.012 2.776-.915 2.448c-.768 2.272-.768 2.272.474 5.103l4-2c5.314 3.508 10.5 7.18 15.684 10.879C163.423 153.91 167.244 156 173 156v2h15c1 4 1 4 0 6l2 1-1.562 1.25L187 168c.228 2.163.228 2.163 1 4l-2.312.313c-2.909.744-3.761 1.485-5.688 3.687l-2 1 1 2c-20.018 5.166-46.267 1-67 1l3.375.375C119 181 119 181 121 183c.22 6.485-1.765 11.083-4.75 16.688l-1.015 1.906c-5.893 10.593-5.893 10.593-11.297 12.469-3.53-.076-4.499-.551-6.938-3.063-1.593-8.904.393-16.904 4-25q1.008-2.496 2-5l-2-1-2 4c-6.492-.49-6.492-.49-8.7-2.707-2.538-4.476-1.933-9.321-1.3-14.293 1.352-4.487 3.104-8.72 5-13l.977-2.816L96 149l3-1q1.026-1.988 2-4c2.502-3.243 3.65-3.93 7.75-4.75L112 139c1.945 2.918 2.453 4.625 3 8 2.48-3.719 3.908-7.526 5.5-11.687l1.044-2.716c2.208-5.885 4.19-11.816 6.03-17.824l.659-2.145q1.62-5.294 3.177-10.61c2.083-6.995 4.191-13.126 8.59-19.018 2.875-1.437 4.819-1.382 8-1m-12 60 1 3Zm-1 3 1 2Zm1 2c-2.9 2.395-3.502 4.312-4 8h3c1.875-3.868 1.875-3.868 1-8m-23 2q-1.22 2.906-2.437 5.813l-1.372 3.269A96 96 0 0 0 107 164h3v-2h2c1.17-3.98 2.257-7.916 3-12zm16 8-1 2h2zm2 0v2l2-1zm-18 3 1 4 3-1q-1.47-1.53-3-3zm13-1-1 1q-3.5.061-7 0c1.637 1.689 1.637 1.689 4 3 3.192-.226 3.192-.226 6-1v-3zm-21 8 1 2Zm-1 2-2 8 3 2 1-2h-2l1-8z"/><path fill="#FBFBFB" d="m411 119 3 1v2l1.688-.937c3.859-1.774 6.104-2.482 10.218-1.055 4.065 2.617 5.291 5.36 7.219 9.68l.973 2.068a386 386 0 0 1 1.919 4.144c1.325 2.83 2.778 5.59 4.244 8.35C441 146 441 146 441 149h2a875 875 0 0 1 2 4.375l1.125 2.46C447 158 447 158 447 160l3 1c1.188 2.063 1.188 2.063 2 4q1.476-2.621 2.938-5.25l1.652-2.953c1.176-2.333 1.931-4.25 2.41-6.797h2l.773-2.547c1.328-3.739 3.023-7.193 4.852-10.703 2.427-4.164 2.427-4.164 3.375-8.75a101 101 0 0 1 3-3l1.5-2.062C476 121 476 121 479 119v3h4l1-2 13 2v12c-4 1-4 1-8 1l1 43h10v2h-3v12l-5.398-.07q-3.489-.029-6.977-.055l-3.562-.05-3.399-.02-3.142-.032c-2.693-.03-2.693-.03-4.522 2.227v-3l-3 1v-3l-2-1 .563-2.875c.724-3.024.724-3.024-.563-5.125l7-2q.29-3.937.563-7.875l.17-2.262c.4-4.054.4-4.054-.733-7.863l-1 2-1.781 2.527c-3.263 4.852-5.467 10.26-7.864 15.573-2.025 4.395-3.922 8.397-7.355 11.9-3 .563-3 .563-6 0-2.918-2.27-4.551-4.62-6-8l-2 1-.25-2.687c-.848-3.747-2.319-5.411-4.75-8.313v-3a128 128 0 0 0-3-6.187l-1.687-3.293L429 159l2 5-2 2 2 2h-2l-.125 3.875-.07 2.18c.012 2.184.012 2.184 2.195 3.945 2.57.648 2.57.648 5 1 .081 1.603.14 3.208.188 4.813l.105 2.707c-.293 2.48-.293 2.48-1.68 4.304C433 192 433 192 431 192v2l-5 2c-1-2-1-2-1-3l-1.697.048c-2.538.062-5.076.101-7.615.14l-2.67.076-2.569.029-2.364.048c-2.622-.429-3.482-1.263-5.085-3.341-.398-2.156-.398-2.156-.375-4.5l-.023-2.344c.487-2.638 1.284-3.548 3.398-5.156h2v-2h4v-41l-4 2a69 69 0 0 1-4 1c-2.39-5.342-2.315-10.369-1-16 2.667-1.333 4.167-.671 7 0zm9 1v2l3-1zM229.654 115.417q2.283-.008 4.565.06l2.464.014c2.606.021 5.21.078 7.817.134q2.586.025 5.172.043c23.88.232 23.88.232 33.328 4.332l1-2 .75 2.125c1.203 3.006 1.203 3.006 3.312 5.937 3.095 4.692 3.319 8.32 2.938 13.938-1.578 4.656-3.268 7.782-7 11l3.312 2.125c3.518 2.51 5.078 4.808 6.688 8.875l1.187 2.875L296 167h1v5h-2l-.25 2.625c-1.68 7.561-6.67 11.213-12.75 15.375l1 5-4 1-1-2c-2.874-.51-2.874-.51-6.25-.688l-3.453-.261c-2.98-.046-5.408.3-8.297.949a278 278 0 0 1-4-1c-4.207-.235-7.92-.058-12 1l-3-1c-3.963-.253-6.59-.099-10 2v-3h-2l-2 2v-2l-3-1a444 444 0 0 1-.125-5.375l-.07-3.023C224 180 224 180 226 178c2.125-.625 2.125-.625 4-1l-.048-1.804c-.062-2.69-.101-5.38-.14-8.071l-.076-2.84-.029-2.715-.048-2.507L230 157l3-2h-2c-.726-7.85-1.191-15.192 0-23v-1l-4-1 1 1-3 1c-.42-1.724-.81-3.454-1.188-5.188l-.667-2.917c-.262-5.244 1.253-7.64 6.51-8.478M254 130v2h-4v14l2-1c2 0 2 0 4.687.5 3.543.535 6.737.77 10.313.5 1.815-1.396 1.815-1.396 3-3h2l1-6-1 2h-2l1-7c-4.842-1.336-8.934-2.253-14-2v2h-2zm-22 10 1 4Zm0 7 1 2Zm18 16c-.484 2.968-.484 2.968-.25 6.187l.11 3.293.14 2.52 2-1v2c3.96 2.428 3.96 2.428 8.437 2.687L263 178l3.5.125c3.855-.138 5.48-.795 8.5-3.125 2.313-3.47 2.34-4.925 2-9l-2-3h-3l1-2-4 1v-2h-4v2h-4l-1-2c-4.424-.302-6.852-.256-10 3m-18 0 1 2Zm41 29 8-1c-3.403-1.215-4.933-.862-8 1"/><path fill="#FAFAFA" d="m368 116 1.68.441c2.47.595 4.942 1.055 7.445 1.496 5.307.95 10.593 1.986 15.875 3.063 1.412 4.015.921 8.024.625 12.188l-.133 2.232c-.36 5.449-.36 5.449-1.492 6.58-3.708.423-7.299.503-11 0-2.677-2.83-3-4.137-3-8l-2-1-2 4-1-4c-4.793-.465-4.793-.465-8.937 1.5L363 136l2 6 3.25.25c3.75.75 3.75.75 5.621 2.625 2.472 2.468 4.75 3.482 7.942 4.875 5.735 2.815 10.06 5.557 13.187 11.25 2.18 6.444 2.82 12.606.16 18.973-4.902 8.566-13.123 12.015-22.16 15.027-1.635-.434-3.27-.878-4.883-1.387-3.973-1.15-8.055-1.845-12.117-2.613l1 3h-3l-1 2-2.312-.937C347.114 193.65 344.913 193 341 193l-.184-1.863-.253-2.45-.247-2.425c-.269-2.423-.269-2.423-1.316-5.262h2q-.214-2.625-.437-5.25l-.247-2.953c-.267-2.362-.67-4.516-1.316-6.797 12.67-2.665 12.67-2.665 18 0v9h2v2c6.273 1.287 13.324 2.535 19-1 .995-1.898.995-1.898 1-4l-2-3c-2.33.959-2.33.959-4 4l-1-4h2v-3l-2.336-1.059-6.062-2.75A149 149 0 0 1 361 160v2l2 1-4 1 1-5-5-1v-2l-1.687-.625c-5.428-3.227-7.435-7.078-9-13l-.637-2.79c-.635-2.427-1.468-4.395-2.676-6.585l3 1 .848-1.54c3.754-6.446 7.683-11.144 14.777-13.835 2.906-.538 5.435-.803 8.375-.625z"/><path fill="#FBFBFB" d="M583 123q8.056-.112 16.113-.165 2.736-.022 5.47-.061c22.94-.32 22.94-.32 30.855 5.476 5.464 5.864 6.083 11.011 5.84 18.816-.587 6.198-2.093 10.182-6.778 14.371-2.265 1.823-3.683 2.624-6.5 3.563 1.468 3.2 3.278 5.848 5.438 8.625l1.808 2.352c2.915 3.362 5.482 4.33 9.754 5.023v9h-17v-2h-2a151 151 0 0 1-5-7.312l-1.367-2.092a907 907 0 0 1-2.52-3.878c-1.919-3.516-1.919-3.516-5.277-5.23l-2.461-.175L605 169v11h8v10h-30v-9l7-2 1-46h-8zm26 12v2l-3-1q-.042 4.968-.062 9.938l-.026 2.865-.01 2.724-.016 2.524c-.102 1.954-.102 1.954 1.114 2.949 5.922.58 10.98.514 16-3 2.633-3.352 2.29-6.877 2-11-1.116-3.862-1.572-4.715-5-7-2.739-.458-2.739-.458-5.687-.625l-3.012-.227z"/><path fill="#F6CE38" d="M198 162c5.875 3.75 5.875 3.75 7 6 2.017 22.527-2.426 44.28-17 62-9.229 10.942-22.542 17.961-36.806 19.254-3.027.158-6.038.229-9.069.246l-2.88.02c-10.382-.188-21.31-2.914-29.058-10.145L108 237l-3-2c-2.415-4.024-3.112-7.227-2.437-11.875C104 220 104 220 105.75 218.5c3.165-.703 5.14-.452 8.25.5 2.325 2.054 4.3 4.202 6.34 6.527 2.042 1.812 4 2.655 6.535 3.66l2.555 1.043c2.662.798 4.808.914 7.57.77v2c12.586-.372 24.62-1.872 34-11 4.55-5.1 10-11.928 10-19h2l.26-1.896q.584-4.24 1.178-8.479l.408-2.984.4-2.852.365-2.634C186 182 186 182 187 180l-3-1v-5l2-1 2 1 .625-2.687c1.918-4.621 4.853-7.052 9.375-9.313m-12 14 1 3Z"/><path fill="#FBFCFC" d="m652 119 2 1v2l1.688-.473 2.312-.59 2.25-.597c2.893-.358 5.366-.013 8.234.404 5.663.576 11.393.313 17.078.256q3.846-.04 7.692-.062l3.416-.036C700 121 700 121 707 122l1 18h-2v2h-14l1-6-3 1-4 1v39l7 3c.295 8.85.295 8.85-2 12-6.232 1.814-13.145.99-19.492.156-2.539-.278-2.539-.278-5.078.438-2.88.481-4.003-.066-6.43-1.594q-.04-2.437-.062-4.875l-.036-2.742C660 181 660 181 661 179h2l1-3 2-3h2l-.492-2.75c-.768-5.397-.653-10.81-.633-16.25l-.012-3.195c.007-5.376.19-10.51 1.137-15.805l-2 2-3.062.938c-.97.35-1.94.7-2.938 1.062l-1 3h-12c-1.607-3.215-1.057-6.436-1-10l-2-1 .563-1.75c.477-2.457.194-3.894-.563-6.25 4.75-2 4.75-2 7-2zm16 54 1 2Z"/><path fill="#FBD137" d="M141 142c4.508 1.277 7.544 2.954 11.188 5.875C158.503 152.621 164.986 156 173 156v2h15c1 4 1 4 0 6l2 1-1.562 1.25L187 168c.228 2.163.228 2.163 1 4h-3v-2l-1.61 1.277-2.14 1.66-2.11 1.653c-4.007 2.64-7.809 2.536-12.53 2.54l-3.922.009-4.227-.006q-2.17 0-4.34.003-4.542.001-9.084-.006-5.827-.006-11.655.004-4.477.005-8.956 0-2.15 0-4.3.002-2.997.002-5.996-.007l-3.449-.002C108 177 108 177 106 176c-.21-3.093-.334-5.328 1.063-8.137 2.83-2.721 5.263-2.589 9.124-2.925 8.218-.884 8.218-.884 15.813-3.938 1.839-2.47 2.839-4.224 4-7l1.348-3.125A495 495 0 0 0 141 142"/><path fill="#F6CE37" d="M148 82c2.986 2.593 3.929 4.125 4.25 8.082-.303 4.748-1.338 8.977-2.625 13.543l-.782 2.816c-2.426 8.498-5.187 16.881-8.03 25.246l-.654 1.947c-.62 1.838-1.254 3.67-1.89 5.503l-1.106 3.21c-1.125 2.566-2.107 3.821-4.163 5.653-.866 2.025-1.5 4.06-2.156 6.16C130 156 130 156 127 158c-2.216.447-4.448.815-6.687 1.125l-3.575.508L114 160l1 5h-6l1-3h2l-.187-2.875L112 156l3-2a93 93 0 0 0 3.063-7.5l.775-2.031c1.338-3.634 2.338-7.155 3.01-10.969 1.27-6.794 3.568-13.273 5.783-19.804.742-2.19 1.474-4.382 2.205-6.575A900 900 0 0 1 134 95l1.103-3.152.999-2.692.83-2.256c2.56-4.554 6.041-5.738 11.068-4.9"/><path fill="#A69E89" d="M273 216v2l1.813.5c2.592 1.778 2.715 2.641 3.625 5.563.657 2.12.657 2.12 1.562 3.937 2.417 1.401 2.417 1.401 5 1l1.313-1.437c2.098-1.944 2.949-1.798 5.75-1.813C296 226 296 226 298 227l-1-2-3-1-2-2-5 3c-1.562-1.25-1.562-1.25-3-3-.125-2-.125-2 1-4 4.735-2.86 8.454-3.508 13.918-2.633 3.453 1.05 5.007 2.74 7.082 5.633 3.143 6.715 1.738 13.808 1 21l-6 2-2-2-1 2c-10.558-.595-10.558-.595-15-4l-2 4h-1v-7l-1.68 1.094-2.195 1.406-2.18 1.406C272 242 272 242 270 242l-1 2c-6.212-.497-10.43-2.082-14.613-6.832-2.41-3.768-2.623-7.766-2.387-12.168 1.968-4.01 4.191-6.666 8-9 4.448-1.483 8.524-1.377 13 0m-10 5-1 5h9l1-3c-3.435-2.29-4.985-2.178-9-2m32 0v2l2-1zm-16 8v3h-2v4c2.784-1.392 2.979-3.156 4-6zm-16 2-1 3h3zm2 0v1l10 2 1-3zm33 0 2 3 1-3zm-8 1 1 5 3-1-3-3 2-1zm-24 1-1 2h5v-2zm29 0 1 2Zm-32 3v1h6v-1z"/><path fill="#8B8D8B" d="m592 120 2 1 1.875-.5c2.449-.576 3.741-.192 6.125.5q3.129-.001 6.258-.07c11.673-.165 20.468.28 29.742 8.07 1.938 2.563 1.938 2.563 3 5l1.188 2.25c2.165 7.33.862 14.839-2.188 21.75-2.66 3.206-5.601 5.608-9 8l2 6h2l1 3 2 1v2l3.938.438c3.937.437 3.937.437 5.062 1.562.125 1.621.176 3.249.188 4.875l.042 2.68C647 190 647 190 645 193l-2.148-.5c-2.908-.51-5.53-.565-8.477-.5-3.232.07-5.282.031-8.375-1l-1-4-3-1c-1.57-2.18-1.57-2.18-3.125-4.875l-1.57-2.68C616 176 616 176 615 173l-8-1v6l6-1c2.03 3.315 2.127 5.432 1.625 9.25l-.336 2.703L614 191c-2.995.872-5.636 1.108-8.75 1.063l-2.422-.028L601 192l-1 2-1-1-1 2-3-1v-1l-2.082.035-2.73.028-2.708.035C585 193 585 193 582 192l-1 2-2-5-2 3c-5.188 1.138-10.399 1.183-15.687 1.188l-2.26.037c-6.944.018-6.944.018-10.053-2.225-1.607-3.215-1.057-6.436-1-10l2-1v10h27v-9h-2.687c-4.868-1.47-5.981-4.664-8.313-9-1.635-3.377-3.115-6.81-4.574-10.266l-1.242-2.896a3101 3101 0 0 1-3.871-9.088q-1.95-4.567-3.904-9.13-1.21-2.831-2.414-5.664l-1.103-2.59-.964-2.268L547 128l-.93-2.148c-1.074-2.175-1.074-2.175-4.07-3.852h5c9 19.107 9 19.107 9 23l2 1a169 169 0 0 1 3.375 8q.938 2.339 1.879 4.676l.91 2.272c.994 2.44 2.055 4.843 3.149 7.24 1.454 3.209 2.65 6.44 3.687 9.812l3-1 1 1c5.228.266 9.071-.028 14-2h-2v-3c2 1 2 1 3 2l-.108-3.457q-.194-6.333-.374-12.668-.08-2.745-.166-5.489a2563 2563 0 0 1-.23-7.878l-.083-2.488c-.153-5.792-.153-5.792.961-8.02h-2v2c-3.044.082-5.072-.024-8-1v-6h1l1-6-2-1c2-2 2-2 5.438-2.062L589 121zm-9 3v10h8l-1 46-7 2v9h30v-10h-8v-11c3.908-.441 5.484-.595 9 1 3.658 3.913 6.325 8.683 8.998 13.298.943 1.603 1.97 3.155 3.002 4.702h2v2h17v-9l-3.125-.562c-4.798-1.357-6.987-4.576-9.875-8.438l-2.375-2.812C628 167 628 167 628 165l2.688-1.125c4.621-2.616 7.257-5.765 9.625-10.5 1.505-7.392 1.966-15.017-1.989-21.691-4.322-5.496-9.567-7.43-16.324-8.684-3.11-.245-6.195-.235-9.312-.195l-2.59.008c-2.7.011-5.398.036-8.098.062q-2.763.016-5.527.027-6.736.035-13.473.098m-5 57v7l3 1 1 3v-11z"/><path fill="#A8A79C" d="M325 213c2.636 1.318 4.723 3.142 7 5l1-2c1.875-.75 1.875-.75 4-1l3 2 1.625-1c4.129-1.738 8.158-1.298 12.375 0l1 4h2v24h-6c-1.056-4.283-1.117-8.43-1.062-12.812l.013-2.1q.02-2.544.049-5.088c-3.325-1.108-5.622-.845-9 0-.793 8.08-.793 8.08-1 16.188V243l-1 1h-7v-19h-2l1-5h-2l-1 5-3-1-1 2-1-3-3 3h2l-1 2h-1l-1 12 2 1c-2.395 2.395-3.658 2.755-7 3-1.812-1.187-1.812-1.187-3-3v-4h2l-1-9h-1a365 365 0 0 1-.125-4.875l-.07-2.742C311 218 311 218 313 216c2.82-.195 2.82-.195 6.125-.125l3.32.055L325 216zm-6 4 1 2Z"/><path fill="#D3D3D2" d="m426 211 8 2c-1.522 2.629-2.844 4.844-5 7v3q-.491 3.501-1 7v2l-.187 2.375c-.052 2.686-.052 2.686 1.687 4.563 2.066 2.84 1.93 4.622 1.5 8.062-1.803 3.245-3.606 4.615-7 6-7.256.985-12.713.454-18.672-3.906L404 248l1-7h2a348 348 0 0 0-.375-4.25c-.07-.789-.14-1.578-.21-2.39-.43-2.446-1.201-4.208-2.415-6.36l2-1c.467-2.126.467-2.126.625-4.562l.227-2.504L407 218c3.929-1.851 6.988-2.22 11.313-2.125l3.238.055L424 216zm-13 12c.32 2.603.32 2.603 1 5 3.287.8 4.71 1.097 8 0 .37-4.046.37-4.046-2-7-3.458-.432-4.48-.52-7 2m0 11 1 2h6v-2zm8 0v2l3-1zm-10 8c.348 1.975.348 1.975 1 4 2.353 1.177 3.88 1.166 6.5 1.188l2.406.042c2.314-.033 2.314-.033 4.094-2.23l-5-1v-2l-3 1-1-1a100 100 0 0 0-5 0"/><path fill="#787A7A" d="m368 116 1.68.441c2.47.595 4.942 1.055 7.445 1.496 5.307.95 10.593 1.986 15.875 3.063 1.412 4.015.921 8.024.625 12.188l-.133 2.232c-.36 5.449-.36 5.449-1.492 6.58-3.708.423-7.299.503-11 0-2.677-2.83-3-4.137-3-8l-2-1-2 4-1-4c-4.793-.465-4.793-.465-8.937 1.5L363 136l2 6 3.25.25c3.75.75 3.75.75 5.621 2.625 2.472 2.468 4.75 3.482 7.942 4.875 5.735 2.815 10.06 5.557 13.187 11.25 2.18 6.444 2.82 12.606.16 18.973-4.902 8.566-13.123 12.015-22.16 15.027-1.635-.434-3.27-.878-4.883-1.387-3.973-1.15-8.055-1.845-12.117-2.613l1 3h-3l-1 2-2.312-.937C347.114 193.65 344.913 193 341 193l-.184-1.863-.253-2.45-.247-2.425c-.269-2.423-.269-2.423-1.316-5.262h2q-.214-2.625-.437-5.25l-.247-2.953c-.267-2.362-.67-4.516-1.316-6.797 12.67-2.665 12.67-2.665 18 0v9h2v2c6.273 1.287 13.324 2.535 19-1 .995-1.898.995-1.898 1-4l-2-3c-2.33.959-2.33.959-4 4l-1-4h2v-3l-2.336-1.059-6.062-2.75A149 149 0 0 1 361 160v2l2 1-4 1 1-5-5-1v-2l-1.687-.625c-5.428-3.227-7.435-7.078-9-13l-.637-2.79c-.635-2.427-1.468-4.395-2.676-6.585l3 1 .848-1.54c3.754-6.446 7.683-11.144 14.777-13.835 2.906-.538 5.435-.803 8.375-.625zm-19 12c-3.316 4.813-3.839 9.322-3 15 1.946 6.718 6.008 10.646 12 14a184 184 0 0 0 10.188 4.377c4.706 1.91 8.154 4.066 11.812 7.623.625 3.063.625 3.063 0 6-1.758 2.324-3.117 3.635-5.812 4.75-6.383.73-10.538.13-16.188-2.75-3.006-3.006-2.596-5.824-3-10h-12q-.29 5.468-.562 10.938l-.17 3.154-.147 2.998-.143 2.777c-.227 2.117-.227 2.117 1.022 3.133 2.212-.145 4.42-.342 6.625-.562 5.445-.44 9.155-.052 14.375 1.562 8.488.688 17.009.794 24.035-4.547 5.015-4.655 6.733-8.53 7.277-15.39-.182-6.393-3.02-11.46-7.312-16.063-2.478-1.587-5.083-2.825-7.75-4.062l-4.11-1.973a639 639 0 0 0-6.369-2.996l-2.162-1.028-1.954-.911C364 143 364 143 362 140c-.375-3-.375-3 0-6 2.877-2.792 4.976-3.412 8.938-3.375 4.103.145 6.999.41 10.062 3.375.813 3.188.813 3.188 1 6h10v-17c-23.126-6.11-23.126-6.11-43 5"/><path fill="#727374" d="m652 119 2 1v2l1.688-.473 2.312-.59 2.25-.597c2.893-.358 5.366-.013 8.234.404 5.663.576 11.393.313 17.078.256q3.846-.04 7.692-.062l3.416-.036C700 121 700 121 707 122l1 18h-2v2h-14l1-6-3 1-4 1v39l7 3c.295 8.85.295 8.85-2 12-6.232 1.814-13.145.99-19.492.156-2.539-.278-2.539-.278-5.078.438-2.88.481-4.003-.066-6.43-1.594q-.04-2.437-.062-4.875l-.036-2.742C660 181 660 181 661 179h2l1-3 2-3h2l-.492-2.75c-.768-5.397-.653-10.81-.633-16.25l-.012-3.195c.007-5.376.19-10.51 1.137-15.805l-2 2-3.062.938c-.97.35-1.94.7-2.938 1.062l-1 3h-12c-1.607-3.215-1.057-6.436-1-10l-2-1 1-3h3v12h10v-7h12v46l-7 2-1 9h29v-10h-7v-47h11v7h10v-17h-57v4l-4-1v-3c4.75-2 4.75-2 7-2zm16 54 1 2Z"/><path fill="#F8D23A" d="m188 68 3 1 .262 1.977c.988 6.148 2.083 9.791 6.738 14.023 2.904 1.33 2.904 1.33 6 2l6 2-1 3c-1.89.625-1.89.625-4.25 1-3.827.76-6.712 1.409-9.75 4-2.748 5.09-3.91 10.348-5 16h-2l-.734-3.21q-.507-2.084-1.016-4.165l-.477-2.117c-.934-4.082-.934-4.082-3.851-6.86L180 96l-1-2-3.25-.437c-3.73-.56-5.771-1.306-8.75-3.563v-2l2.773-.586 3.602-.789 3.586-.773c4.074-1.142 5.756-3.406 8.039-6.852.993-2.8.993-2.8 1.688-5.75.25-.985.502-1.97.761-2.984z"/><path fill="#9A9B98" d="m411 119 3 1v2l1.688-.937c3.859-1.774 6.104-2.482 10.218-1.055 4.065 2.617 5.291 5.36 7.219 9.68l.973 2.068a341 341 0 0 1 1.915 4.144c1.336 2.843 2.832 5.597 4.346 8.35C441 146 441 146 440 149l-4.812-9.125-1.37-2.594-1.338-2.539-1.221-2.317c-1.45-2.793-2.852-5.61-4.259-8.425l-22-1v10l3.438-.062C412 133 412 133 413 134c.093 1.412.117 2.83.114 4.244v2.73l-.016 2.967-.005 3.023c-.005 3.2-.018 6.399-.03 9.599q-.009 3.244-.014 6.49-.017 7.974-.049 15.947l-7 2-1 9h28v-10h-7v-29h2l19 38c2.786.67 2.786.67 6 0 2.143-2.4 3.522-5.157 5-8q1.15-2.005 2.313-4l1.687-3c1 3 1 3-.11 5.559-.54.95-1.082 1.9-1.64 2.879l-1.61 2.87c-2.81 4.61-2.81 4.61-4.64 6.692-2.937.5-2.937.5-6 0-2.918-2.27-4.551-4.62-6-8l-2 1-.25-2.687c-.848-3.747-2.319-5.411-4.75-8.313v-3a128 128 0 0 0-3-6.187l-1.687-3.293L429 159l2 5-2 2 2 2h-2l-.125 3.875-.07 2.18c.012 2.184.012 2.184 2.195 3.945 2.57.648 2.57.648 5 1 .081 1.603.14 3.208.188 4.813l.105 2.707c-.293 2.48-.293 2.48-1.68 4.304C433 192 433 192 431 192v2l-5 2c-1-2-1-2-1-3l-1.697.048c-2.538.062-5.076.101-7.615.14l-2.67.076-2.569.029-2.364.048c-2.622-.429-3.482-1.263-5.085-3.341-.398-2.156-.398-2.156-.375-4.5l-.023-2.344c.487-2.638 1.284-3.548 3.398-5.156h2v-2h4v-41l-4 2a69 69 0 0 1-4 1c-2.39-5.342-2.315-10.369-1-16 2.667-1.333 4.167-.671 7 0zm9 1v2l3-1z"/><path fill="#F5CD38" d="M119 183c2.15 7.66-.039 11.942-3.664 18.594-6.085 10.625-6.085 10.625-11.398 12.469-3.533-.076-4.504-.541-6.938-3.063-1.527-9.352.042-18.002 4.813-26.062 5.306-3.226 11.137-2.306 17.187-1.938"/><path fill="#EFF0F1" d="M580 218c3.473 2.93 3.58 6.566 4.082 10.879C584 231 584 231 582 234l2 1c-1.64 3.935-3.576 5.576-7.312 7.375-3.91 1.597-6.556 1.896-10.688.625v-2l-2.437-.875C561 239 561 239 560 237l-3-1c.252-6.966.5-12.487 5-18 6.526-4.865 11.378-4.438 18 0m-15 7v1h5v-2l1 2 4-1h-3c1-2 1-2 3-3-1.041-1.243-1.041-1.243-3.312-1.312-3.469.403-4.52 1.662-6.688 4.312m0 6 1 4 2.313.438C571 236 571 236 574 237l2-1-1-2h2l-1-3zm13 0v2h2v-2zm-20 2 1 2Z"/><path fill="#F9D338" d="M107.625 139.625C110 140 110 140 112 142c0 6.81-2.149 12.424-4.828 18.594-1.634 3.803-2.667 7.297-3.172 11.406h-2l-.402 1.934c-.177.826-.354 1.652-.535 2.504l-.528 2.496C100 181 100 181 99 182c-5.282.574-5.282.574-7.875-1.5-3.056-6.792-.418-13.697 1.875-20.312q.85-2.508 1.688-5.02c.25-.73.502-1.459.761-2.21.686-2.1.686-2.1.551-4.958h3l.75-1.75c1.989-3.58 3.678-6.025 7.875-6.625"/><path fill="#C5C5C4" d="M473.086 209.309c3 2.455 4.668 3.953 5.914 7.691-1.25 1.563-1.25 1.563-3 3-2-.062-2-.062-4-1l-1.316-2.027c-1.522-2.181-1.522-2.181-4.024-2.504-5.356.03-5.356.03-10.223 2.031-2.33 4.054-3.036 7.983-1.96 12.504 1.016 2.676 2.079 4.644 4.336 6.434 4.18 1.075 8.082.825 12.187-.438l1-5 5 1c.75 1.688.75 1.688 1 4-1.687 2.5-1.687 2.5-4 5l-1.625 2.375c-3.398 2.325-5.936 1.755-9.91 1.172-5.51-1.223-9.154-4.074-13.465-7.547h-2l1-3-1-3c-.92-7.1-.307-12.406 4.102-18.18 5.708-5.473 15.2-6.767 21.984-2.511"/><path fill="#B8B9B8" d="M499 216c3.22 1.723 6.244 3.595 9 6v2h-2l1 9h-2v-2h-4l1 2c3.03.658 3.03.658 6 1v2c-1.46 1.438-1.46 1.438-3.375 3-1.967 1.619-3.822 3.197-5.625 5l-1-1-3.062.75c-4.615.293-6.5-.5-10.2-3.102-3.486-3.306-4.632-7.035-4.824-11.765.34-4.752 1.66-7.642 5.086-10.883 4.648-3.169 8.683-3.763 14-2m-12 9 1 2 2.125-.562c3.214-.49 5.71-.1 8.875.562l1-3c-2.178-1.936-3.602-2.93-6.5-3.437-3.25.568-4.411 1.961-6.5 4.437m0 5c.935 4.36.935 4.36 4 7 3.625.25 3.625.25 7 0l2-6z"/><path fill="#878884" d="m392.5 215.75 2.344.484c2.448.87 3.546 1.744 5.156 3.766 1.187 3.56 1.097 6.438 1.063 10.188l-.028 3.855L401 237l4 1-1 2c-2-1-2-1-3-2l-1 5c-1.875.625-1.875.625-4 1-2.746-2.746-2.362-4.609-2.562-8.437-.264-4.866-.264-4.866-1.438-9.563l1-1-2.25-.437c-2.263-.463-4.51-1.003-6.75-1.563l-1 21h-6l-1-7-2 1c-.125-2.875-.125-2.875 0-6l2-2c-.055-2.84-.055-2.84-.5-6-.406-3.25-.406-3.25-.5-6 2-2 2-2 4.438-2.125L382 216c3.941 0 6.551-1.119 10.5-.25M389 222l4 1Z"/><path fill="#F1F2F2" d="M529 215c2.875 2.438 2.875 2.438 5 5l1 1c.087 1.635.107 3.273.098 4.91l-.01 2.998-.025 3.155-.014 3.166q-.018 3.885-.049 7.771l-5 1-.312-1.937L529 240l-3-1 2-1c.468-2.586.468-2.586.625-5.562l.227-3.067L529 227h-3v-4l-2-1v2h-2v-2c-3.135 1.588-3.135 1.588-3.4 3.848l-.041 2.214-.08 2.415-.042 2.523a464 464 0 0 1-.128 4.938l-.038 2.214C518 242 518 242 516 244h-4c-1.357-2.714-1.112-4.848-1.098-7.883l.01-3.535.026-3.707.013-3.73q.018-4.573.049-9.145l5.957.098c4.282-.205 7.576-1.56 12.043-1.098m-1 9-1 2h2z"/><path fill="#9D9784" d="m226 116 23 1v1h-23l1 9 7 1q.037 10.868.055 21.735.008 3.7.02 7.4c.013 3.537.018 7.074.023 10.611l.015 3.365v3.094l.007 2.739C234 179 234 179 233 180q-3.5.061-7 0v10q9.738-.105 19.476-.262 3.308-.051 6.614-.084c3.185-.034 6.37-.087 9.555-.142l2.943-.02c8.694-.183 16.395-2.182 24.412-5.492-4.75 4.875-4.75 4.875-7 6l1 5-4 1-1-2c-2.874-.51-2.874-.51-6.25-.687l-3.453-.262c-2.98-.046-5.408.3-8.297.949a278 278 0 0 1-4-1c-4.207-.235-7.92-.058-12 1l-3-1c-3.963-.253-6.59-.099-10 2v-3h-2l-2 2v-2l-3-1a444 444 0 0 1-.125-5.375l-.07-3.023C224 180 224 180 226 178c2.125-.625 2.125-.625 4-1l-.048-1.804c-.062-2.69-.101-5.38-.14-8.071l-.076-2.84-.029-2.715-.048-2.507L230 157l3-2h-2c-.726-7.85-1.191-15.192 0-23v-1l-4-1 1 1-3 1c-.42-1.724-.81-3.454-1.187-5.187l-.668-2.918C223 121 223 121 226 116m6 24 1 4Zm0 7 1 2Zm0 16 1 2Zm41 29 8-1c-3.403-1.215-4.933-.862-8 1"/><path fill="#FCD53A" d="M324 151c6.62 3.907 6.62 3.907 8.063 8.063-.064 2.968-.455 4.478-2.063 6.937l2-1-1 4h-5v-2l-2 1c-2.972.313-5.951.324-8.937.375l-2.499.113c-2.291.034-4.324.003-6.564-.488-2.39-2.744-2.909-4.502-3.562-8.062.562-2.938.562-2.938 3.105-5.106 3.953-2.095 6.986-2.301 11.332-2.082l2.086.055c1.68.046 3.36.118 5.039.195z"/><path fill="#F3F5F3" d="M235 204v3l.563 3.5C236 214 236 214 235 217c-.047 2.035-.047 2.035.121 4.23l.147 2.432.17 2.525.158 2.561q.196 3.126.404 6.252c3.837.904 7.375 1.106 11.313 1.063l3.238-.028L253 236l1 5-3 1-2 2c-2.562.188-2.562.188-5 0l-1-1c-3.043-.073-6.074.004-9.117.063C231 243 231 243 228 242c-.2-3.604-.383-7.208-.562-10.812l-.17-3.045c-.372-7.699-.732-15.75 1.732-23.143z"/><path fill="#949693" d="M541 122v1l-20 1v8l9 1c-.428 5.281-2.464 9.453-4.691 14.172a111 111 0 0 0-3.059 7.328c-2.085 5.221-4.32 10.372-6.625 15.5l-1.1 2.576c-2.782 6.07-2.782 6.07-6.814 7.987L505 181l-1 9h26v-9l-6-1 3-8h25c3 6 3 6 3 8l-4-1h2l-3-4 1-2q-4.344.212-8.687.438l-2.475.119c-4.035.212-7.895.487-11.838 1.443l1 2h3v14c-6.75 2.25-6.75 2.25-11 1l-1 3-2-2c-2.37-.319-2.37-.319-5-.25l-2.687-.016c-2.507.045-2.507.045-4.313 2.266v-3l-3-1c-.783-11.069-.783-11.069 2.313-14.75C508 175 508 175 511 175c2.145-5.279 4.198-10.594 6-16 2.702-6.478 5.816-12.749 9-19l-2-1h3l1-4-8 2c-1.095-3.285-1.1-5.737-1.062-9.187l.027-3.293L519 122c6.952-2.317 14.858-.922 22 0m-14 55-1 2h2z"/><path fill="#8F908A" d="M351 153c4.203 1.626 8.292 3.473 12.375 5.375l1.922.883C378.71 165.5 378.71 165.5 381 169c.5 2.875.5 2.875 0 6-2.088 2.61-3.783 4.473-6.875 5.813-7.095.626-11.915-.232-18.062-4-1.818-3.1-1.237-6.284-1.063-9.813h-12v22l6.563-.625c5.433-.391 9.247-.074 14.437 1.625 4.325.47 8.657.752 13 1l-2 1-1 3-3.43-.91-4.445-1.153-2.262-.603c-3.989-1.264-3.989-1.264-7.863-.334l1 2h-3l-1 2-2.312-.937C347.114 193.65 344.913 193 341 193l-.184-1.863-.253-2.45-.247-2.425c-.269-2.423-.269-2.423-1.316-5.262h2q-.214-2.625-.437-5.25l-.247-2.953c-.267-2.362-.67-4.516-1.316-6.797 12.67-2.665 12.67-2.665 18 0v9h2v2c6.273 1.287 13.324 2.535 19-1 .995-1.898.995-1.898 1-4l-2-3c-2.33.959-2.33.959-4 4l-1-4h2v-3l-2.336-1.059-3.039-1.379-3.023-1.37A149 149 0 0 1 361 160v2l2 1-4 1 1-5-5-1v-2l-4-2z"/><path fill="#D1AB3B" d="M121 134c1.137 3.335.885 5.09-.434 8.328l-.966 2.422-1.037 2.5-1.026 2.547A711 711 0 0 1 115 156l-2-6-5 14h7l-1-5c1.355-.2 1.355-.2 2.738-.402l3.575-.536 3.55-.527c3.153-.456 3.153-.456 6.137-1.535.955-2.265.955-2.265 1.563-4.937 1.238-4.864 1.238-4.864 3.437-7.063l1 1 2-3c2.25-1.437 2.25-1.437 5-2 2.303 1.206 3.975 2.402 6 4q2.933 2.13 5.875 4.25 2.565 1.873 5.125 3.75l-2 1-2.195-1.68-2.93-2.195-2.883-2.18c-2.964-1.927-5.603-2.99-8.992-3.945l-.953 2.887-1.297 3.8-1.266 3.762c-2.067 4.946-3.996 7.793-8.797 10.238-5.308 1.804-10.94 2.158-16.492 2.688L109 167c-2.125 3.188-2.502 5.265-3 9l10 1v1q-2.437.039-4.875.063l-2.742.035C106 178 106 178 104 177l.063-2.812c.095-3.21.095-3.21-1.063-6.188.637-1.875.637-1.875 1.688-4 5.358-10.567 5.358-10.567 6.312-22-1.375-1.879-1.375-1.879-3-3h4c1.945 2.918 2.453 4.625 3 8 1.827-2.74 2.937-5.138 4.125-8.187l1.07-2.731zm15 13c-2.9 2.395-3.502 4.312-4 8h3c1.875-3.868 1.875-3.868 1-8m-7 10-1 2h2zm2 0v2l2-1zm-5 2-1 1q-3.5.061-7 0c1.637 1.689 1.637 1.689 4 3 3.192-.226 3.192-.226 6-1v-3zm-21 8 1 2Z"/><path fill="#F5F6F6" d="M545 208c2.125.375 2.125.375 4 1l1 6 7 2v5h-8l1 14 7 1v5a98 98 0 0 1-4.187.813l-2.356.457C548 243 548 243 545.219 241.03c-2.91-3.976-2.809-6.57-2.532-11.344l.069-2.244c.058-1.815.148-3.63.244-5.443l-4 1-1-6 5-1-.125-2.875C543 210 543 210 545 208"/><path fill="#E8E8E5" d="m294.938 216.563 2.527-.122c3.891.858 5.23 2.33 7.535 5.559.591 3.298.474 6.476.313 9.813l-.069 2.677c-.059 2.17-.148 4.34-.244 6.51h-3l-1-2-2.562 1.563c-4.093 1.711-6.187 1.56-10.438.437-2.363-1.576-2.898-2.759-4-5.375 0-2.625 0-2.625 1.75-5.375 4.568-3.163 8.803-3.145 14.25-3.25l-1-6c-5.282-1.2-5.282-1.2-10 1h-3v-3c3.055-1.757 5.42-2.345 8.938-2.437M298 231l2 3 1-3zm-8 1 1 5 3-1-3-3 2-1zm5 1 1 2Z"/><path fill="#F5F6F6" d="m407 218 4 1-2 3c-.34 4.075-.313 5.53 2 9l-1 1a236 236 0 0 0-1 7c5.967 1.326 11.926 1.088 18 1v3l2-1-4-5c1.875.313 1.875.313 4 1 2.326 3.489 2.419 4.897 2 9-1.803 3.245-3.606 4.615-7 6-7.256.985-12.713.454-18.672-3.906L404 248l1-7h2a348 348 0 0 0-.375-4.25c-.07-.789-.14-1.578-.21-2.39-.43-2.446-1.201-4.208-2.415-6.36l2-1c.467-2.126.467-2.126.625-4.562l.227-2.504zm4 24c.348 1.975.348 1.975 1 4 2.353 1.177 3.88 1.166 6.5 1.188l2.406.042c2.314-.033 2.314-.033 4.094-2.23l-5-1v-2l-3 1-1-1a100 100 0 0 0-5 0"/><path fill="#F4F4F1" d="M270 217c5.5 3 5.5 3 7 6v6h-19c1.404 5.702 1.404 5.702 4 8 2.072.319 2.072.319 4.375.25l2.336.016c2.488-.29 4.131-1.025 6.289-2.266l2 2c-3.604 2.561-6.725 4.77-11.125 5.563-4.697-.92-7.666-3.153-10.75-6.75-1.605-4.013-1.94-7.556-1.125-11.813 3.531-6.508 8.915-8.003 16-7m-7 4-1 5h9l1-3c-3.435-2.29-4.985-2.178-9-2"/><path fill="#EEEFEE" d="M335 217h3l1 3 1.5-1.5c3.415-2.049 6.659-2.197 10.5-1.5l6 3v24h-6c-1.177-4.625-1.114-9.079-1.062-13.812l.013-2.39q.02-2.898.049-5.798c-2.763-1.381-4.947-1.19-8-1-3.674 3.674-3.238 8.236-3.562 13.25l-.254 3.828L338 241h-3z"/><path fill="#909191" d="M605 169c5.654-.87 5.654-.87 9 0 2.957 2.957 4.893 6.409 7 10a202 202 0 0 0 2.938 4c2.062 3 2.062 3 2.062 5h2v2h17v-9h-5l-1-3c6.875.875 6.875.875 8 2 .125 1.621.176 3.249.188 4.875l.042 2.68C647 190 647 190 645 193l-2.148-.5c-2.908-.51-5.53-.565-8.477-.5-3.232.07-5.282.031-8.375-1l-1-4-3-1c-1.57-2.18-1.57-2.18-3.125-4.875l-1.57-2.68C616 176 616 176 615 173l-8-1v6l6-1c2.03 3.315 2.127 5.432 1.625 9.25l-.336 2.703L614 191c-2.995.872-5.636 1.108-8.75 1.063l-2.422-.028L601 192l-1 2-1-1-1 2-3-1v-1l-2.082.035-2.73.028-2.708.035C585 193 585 193 582 192l-1 2-2-6h2l1-8 2 1-1 9h30l-1-9-7-1z"/><path fill="#8D8D86" d="M365 206c2.375.25 2.375.25 5 1 1.794 2.563 2 3.831 2 7l-2 2v3l2 1h-2v16h2c.188 2.875.188 2.875 0 6-3.228 2.152-4.284 2.2-8 2-1.883-3.264-2.673-6.244-3-10l2-2-2-3 2-2c.032-2.009.059-4.02-.027-6.027C363 219 363 219 364 216h4v-2l-4-1c-.625-1.812-.625-1.812-1-4zm-2 28 1 2Z"/><path fill="#D5D5D5" d="m575 217-1 2-2.875.938c-3.014 1.024-4.285 1.544-6.125 4.062a90 90 0 0 0-1 4q3.656-.172 7.313-.375c.69-.03 1.38-.062 2.091-.094 3.666-.212 5.475-.45 8.596-2.531v4l-18 1 2 6c4.384 2.192 10.369 1.158 15 0-.562 2.313-.562 2.313-2 5-4.7 2.712-7.75 3.409-13 2v-2l-2.437-.875C561 239 561 239 560 237l-3-1c.623-12.274.623-12.274 4-16 4.783-3.226 8.433-3.288 14-3m-17 16 1 2Z"/><path fill="#979899" d="M645 128h3v12h10v-7h12v46l-7 2-1 9h9v2c-7.625 1.25-7.625 1.25-11-1-.328-2.312-.328-2.312-.25-5 .015-.887.03-1.774.047-2.687C660 181 660 181 661 179h2l1-3 2-3h2l-.492-2.75c-.768-5.397-.653-10.81-.633-16.25l-.012-3.195c.007-5.376.19-10.51 1.137-15.805l-2 2-3.062.938c-.97.35-1.94.7-2.938 1.062l-1 3h-12c-1.607-3.215-1.057-6.436-1-10l-2-1zm23 45 1 2Z"/><path fill="#F7F8F7" d="m605 217-1 5-7 1c-1.15 4.09-1.11 8.032-1.062 12.25l.013 2.258q.02 2.745.049 5.492c-2.579.92-3.594 1.185-6.14.023L588 242q-.042-6.22-.062-12.437l-.026-3.588-.01-3.409-.016-3.158C588 217 588 217 589 216c2-.043 4-.04 6 0 2.872.15 2.872.15 5-.625 2-.375 2-.375 5 1.625"/><path fill="#707374" d="m478 119 1 3h4l1-2 13 2v12c-4 1-4 1-8 1q.177 9.131.372 18.262.065 3.108.125 6.216.088 4.46.187 8.92l.05 2.82.06 2.608.048 2.301c.05 1.964.05 1.964 1.158 3.873l-3-1v-46h8v-10l-20 1-3.062 6.188a2359 2359 0 0 1-11.791 23.255q-1.023 1.997-2.04 3.998-1.448 2.843-2.912 5.68l-1.718 3.357C453 169 453 169 451 170a2908 2908 0 0 1-3.312-5.625l-1.864-3.164C441 152.719 441 152.719 441 149h2a875 875 0 0 1 2 4.375l1.125 2.46C447 158 447 158 447 160l3 1c1.188 2.063 1.188 2.063 2 4q1.476-2.621 2.938-5.25l1.652-2.953c1.176-2.333 1.931-4.25 2.41-6.797h2l.773-2.547c1.328-3.739 3.023-7.193 4.852-10.703 2.427-4.164 2.427-4.164 3.375-8.75a101 101 0 0 1 3-3 499 499 0 0 0 3-4z"/><path fill="#F7F8F7" d="m378 217 4 1v2l2.063-1.5c3.661-1.87 5.87-2.008 9.937-1.5 2.7 1.387 2.7 1.387 5 4 .622 3.434.47 6.775.313 10.25l-.069 2.836q-.088 3.459-.244 6.914l-5 1 .484-1.559c.675-3.193.725-6.24.766-9.504l.078-3.722c-.06-3.159-.06-3.159-1.656-5.133-2.56-1.657-4.697-1.33-7.672-1.082l-3 1-1 19h-4z"/><path fill="#FAFAFA" d="M475 210.875c2.31 2.129 2.975 3.051 4 6.125-1.25 1.563-1.25 1.563-3 3-2-.062-2-.062-4-1l-1.32-2.031c-1.513-2.177-1.513-2.177-3.985-2.465-6.872.097-6.872.097-12.695 3.496-1.328 2.067-1.328 2.067-2 4l-3-1c1.006-8.116 1.006-8.116 4.813-11.5 7.147-3.363 14.843-3.885 21.187 1.375"/><path fill="#8F8C74" d="M225 178h1v12q9.738-.105 19.476-.262 3.308-.051 6.614-.084c3.185-.034 6.37-.087 9.555-.142l2.943-.02c8.694-.183 16.395-2.182 24.412-5.492-4.75 4.875-4.75 4.875-7 6l1 5-4 1-1-2c-2.874-.51-2.874-.51-6.25-.687l-3.453-.262c-2.98-.046-5.408.3-8.297.949a278 278 0 0 1-4-1c-4.207-.235-7.92-.058-12 1l-3-1c-3.963-.253-6.59-.099-10 2v-3h-2l-2 2v-2l-3-1a888 888 0 0 1-.062-5.375l-.036-3.023C224 180 224 180 225 178m48 14 8-1c-3.403-1.215-4.933-.862-8 1"/><path fill="#717373" d="m411 119 3 1v2l1.688-.937c3.859-1.774 6.104-2.482 10.218-1.055 4.065 2.617 5.291 5.36 7.219 9.68l.973 2.068a341 341 0 0 1 1.915 4.144c1.336 2.843 2.832 5.597 4.346 8.35C441 146 441 146 440 149l-4.812-9.125-1.37-2.594-1.338-2.539-1.221-2.317c-1.45-2.793-2.852-5.61-4.259-8.425l-22-1v10l3.438-.062C412 133 412 133 413 134c.093 1.412.117 2.83.114 4.244v2.73l-.016 2.967-.005 3.023c-.005 3.2-.018 6.399-.03 9.599q-.009 3.244-.014 6.49-.017 7.974-.049 15.947h-1v-44l-4 2a69 69 0 0 1-4 1c-2.39-5.342-2.315-10.369-1-16 2.667-1.333 4.167-.671 7 0zm9 1v2l3-1z"/><path fill="#A39874" d="m230 207 3 2h-4v32h21v-3h-17v-28l3 3c-.32 1.917-.32 1.917-1 4-.048 2.127-.048 2.127.121 4.328l.147 2.422.17 2.5.158 2.547q.195 3.102.404 6.203c3.837.904 7.375 1.106 11.313 1.063l3.238-.028L253 236l1 5-3 1-2 2c-2.562.188-2.562.188-5 0l-1-1c-3.043-.073-6.074.004-9.117.063C231 243 231 243 228 242c-.2-3.604-.383-7.208-.562-10.812l-.17-3.045c-.323-6.678-.63-13.558.732-20.143z"/><path fill="#737676" d="M541 122v1l-20 1v8l9 1c-.428 5.281-2.464 9.453-4.691 14.172a111 111 0 0 0-3.059 7.328c-2.085 5.221-4.32 10.372-6.625 15.5l-1.1 2.576c-2.782 6.07-2.782 6.07-6.814 7.987L505 181l-2-2c4.625-4 4.625-4 8-4 2.145-5.279 4.198-10.594 6-16 2.702-6.478 5.816-12.749 9-19l-2-1h3l1-4-8 2c-1.095-3.285-1.1-5.737-1.062-9.187l.027-3.293L519 122c6.952-2.317 14.858-.922 22 0"/><path fill="#B0B0AE" d="m503 220 5 2v2h-2l1 9h-2v-2h-4l1 2c3.03.658 3.03.658 6 1v2c-1.46 1.438-1.46 1.438-3.375 3-1.967 1.619-3.822 3.197-5.625 5l-1-1-3.375.625C491 244 491 244 489.063 242.563L488 241l7-1-3.375-1.312C488 237 488 237 486 234v-5h19zm-16 10c.935 4.36.935 4.36 4 7 3.625.25 3.625.25 7 0l2-6z"/><path fill="#BEB69F" d="M273 216v2l1.887.723c2.67 1.613 3.022 2.772 3.925 5.714l.77 2.372C280 229 280 229 279 232h-2v4l-2.437.438c-2.484.303-2.484.303-3.563 1.562-4.33.536-7.857.753-11.562-1.687C258 234 258 234 258 229h19c-1.13-7.508-1.13-7.508-4.062-10-4.028-1.371-7.725-1.248-11.938-1l-1-2c4.448-1.483 8.524-1.377 13 0m-10 15-1 3h3zm2 0v1l10 2 1-3zm1 2-1 2h5v-2zm-3 3v1h6v-1z"/><path fill="#E4BE3B" d="M141 140c4.584 1.007 7.615 2.963 11.188 5.938l2.542 2.09c1.84 1.598 3.582 3.218 5.27 4.972-4.75-1.664-7.918-4.223-11.719-7.441-2.475-1.692-4.332-2.18-7.281-2.559l-1.023 2.957-1.352 3.856-.672 1.947c-1.077 3.057-2.144 5.526-3.953 8.24-3.125 1.188-3.125 1.188-6 2l-2-3-1 2-3 1v2l-7-1-1-4c1.355-.2 1.355-.2 2.738-.402l3.575-.536 3.55-.527c3.153-.456 3.153-.456 6.137-1.535.955-2.265.955-2.265 1.563-4.937 1.238-4.864 1.238-4.864 3.437-7.063l1 1 2-3zm-5 7c-2.9 2.395-3.502 4.312-4 8h3c1.875-3.868 1.875-3.868 1-8m-7 10-1 2h2zm2 0v2l2-1z"/><path fill="#7E8182" d="M605 121c12.694-.301 22.845-.53 33 8 1.938 2.563 1.938 2.563 3 5l1.188 2.25c2.165 7.33.862 14.839-2.188 21.75-2.66 3.206-5.601 5.608-9 8l2 6h2l1 3a141 141 0 0 0 5 5c-3.44-.563-4.838-1.547-7-4.25l-1.535-1.906L631 172l-2.437-2.75L627 167l1-3 2.813-1.375c4.377-2.232 6.307-4.82 8.437-9.187 1.626-7.455 2.003-15.087-1.992-21.82-3.922-5.043-9.244-6.465-15.258-7.618-2.997-.338-5.987-.5-9-.625l-2.348-.117A915 915 0 0 0 605 123z"/><path fill="#6D6F6E" d="m368 116 1.68.441c2.47.595 4.942 1.055 7.445 1.496 5.307.95 10.593 1.986 15.875 3.063 1.359 3.905.895 7.71.563 11.75l-.159 2.113A942 942 0 0 1 393 140h-1v-17l-4-.375c-3.106-.335-5.997-.834-9-1.687-7.97-2.08-15.44-1.152-23 2.062-4.5 2.666-7.286 6.048-9 11-1.006 6.684.596 11.299 4 17l1 2c-3.89-1.475-5.25-3.26-7-7a99 99 0 0 1-1.473-6.816c-.552-2.286-1.403-4.126-2.527-6.184l3 1 .848-1.54c3.754-6.446 7.683-11.144 14.777-13.835 2.906-.538 5.435-.803 8.375-.625z"/><path fill="#9D9E9A" d="m249 129 9.188-.187 2.867-.083c4.791-.048 8.089.078 11.945 3.27 1.61 3.22 1.607 6.519 1 10-2.535 3.22-4.113 4.704-8 6-1.335.08-2.674.108-4.012.098l-2.069-.008-2.606-.028L249 148zm5 1v2h-4v14l2-1c2 0 2 0 4.688.5 3.542.535 6.736.77 10.312.5 1.815-1.396 1.815-1.396 3-3h2l1-6-1 2h-2l1-7c-4.842-1.336-8.934-2.253-14-2v2h-2z"/><path fill="#989996" d="M545 208c2.125.375 2.125.375 4 1l1 6 7 2v5h-8l1 14 7 1v5a98 98 0 0 1-4.187.813l-2.356.457C548 243 548 243 545.219 241.03c-2.91-3.976-2.809-6.57-2.532-11.344l.069-2.244c.058-1.815.148-3.63.244-5.443l-4 1-1-6 5-1-.125-2.875C543 210 543 210 545 208m-1 3-1 6h-3v3h4l-.176 3.543q-.07 2.322-.136 4.644l-.127 2.33c-.093 4.313.061 5.983 2.751 9.546 2.585 2.292 2.585 2.292 6 1.75L555 241v-3l-6 1-1-19h7v-3h-7v-6z"/><path fill="#868682" d="m339 166 4 1v22l6.563-.625c5.433-.391 9.247-.074 14.437 1.625 4.325.47 8.657.752 13 1l-2 1-1 3-3.43-.91-4.445-1.153-2.262-.603c-3.989-1.264-3.989-1.264-7.863-.334l1 2h-3l-1 2-2.312-.937C347.114 193.65 344.913 193 341 193l-.184-1.863-.253-2.45-.247-2.425c-.269-2.423-.269-2.423-1.316-5.262h2q-.214-2.625-.437-5.25l-.247-2.953c-.267-2.362-.67-4.516-1.316-6.797"/><path fill="#F6F6F6" d="M314 217h4v3l2.188-1.5c2.96-1.58 4.525-1.782 7.812-1.5l-1 3c-3.562 1.188-3.562 1.188-7 2v4h2l-1 2h-2l-1 13h-4z"/><path fill="#8B8B84" d="M254.434 115.77c19.459.278 19.459.278 28.566 4.23l1-2 .75 2.125c1.203 3.006 1.203 3.006 3.313 5.938 3.094 4.69 3.318 8.319 2.937 13.937-1.578 4.656-3.268 7.782-7 11l1.46.988 1.915 1.325 1.898 1.3C291 156 291 156 293 159l-1 3-2.062-2.812c-2.881-3.502-5.706-4.694-9.938-6.188 1.559-3.826 4.071-6.146 7-9 2.092-4.184 1.429-9.444 1-14-2.152-4.544-4.46-6.888-9-9-6.126-2.156-11.977-2.423-18.437-2.625l-3.084-.117q-3.74-.141-7.479-.258c2-2 2-2 4.434-2.23"/><path fill="#9A9A95" d="M249 158a789 789 0 0 1 9.063-.187l2.568-.077c6.429-.074 10.959.79 16.275 4.647 2.322 3.433 1.765 7.687 1.094 11.617-2.139 2.994-3.541 4.57-7.094 5.617-4.081.538-8.107.488-12.219.446l-2.533-.014q-3.077-.02-6.154-.049v-1l3.688-.437c2.335-.287 4.574-.62 6.875-1.125C263 177 263 177 266.5 177.125c3.919-.14 5.604-.484 8.5-3.125.973-3.893 1.274-6.179 0-10-1.71-.588-3.185-1-5-1a264 264 0 0 1-5-3v2l-4 1-1-3h-11z"/><path fill="#F7F8F8" d="M492.813 217.813 495 219v1l-3.375.625c-3.891.991-3.891.991-5.062 4.5L486 228h3l1-2v2h15v1h-19l2 8 8 2-1 2c-4.436.435-6.329.54-9.875-2.312-3.38-4.276-3.696-8.384-3.125-13.688 1.367-3.237 2.659-4.722 5.375-6.937C490 217 490 217 492.813 217.813"/><path fill="#9E9F9D" d="m529 215 2 3h-13v2h-2v-3h-3v24h3l-.07-3.21q-.029-2.083-.055-4.165c-.017-.699-.034-1.397-.05-2.117-.018-1.837.072-3.674.175-5.508l2-2q.08 4.438.125 8.875l.05 2.55.02 2.442.032 2.254C518 242 518 242 516 244h-4c-1.357-2.714-1.112-4.848-1.098-7.883l.01-3.535.026-3.707.013-3.73q.018-4.573.049-9.145l5.957.098c4.198-.201 7.667-1.416 12.043-1.098"/><path fill="#B5B3AE" d="m581 221 2 1c.484 1.96.484 1.96.75 4.375l.297 2.398C584 231 584 231 582 234l2 1-3 5-2-1 2-3-2 1c-4.03 1.343-6.744 1.405-11 1-2.627-1.886-3.693-3.174-4.812-6.187L563 230c1-1 1-1 2.766-1.114l2.27.016 2.45.01 2.577.025 2.587.014q3.175.02 6.35.049zm-16 10 1 4 2.313.438C571 236 571 236 574 237l2-1-1-2h2l-1-3zm13 0v2h2v-2z"/><path fill="#A5A6A2" d="m426 211 8 2c-1.522 2.629-2.844 4.844-5 7v3q-.491 3.501-1 7v6c-3.285 1.095-5.737 1.1-9.187 1.063l-3.293-.028L413 237l-1-5 2.047.105 2.703.083 2.672.105c3.087-.35 4.402-1.097 6.578-3.293.333-3.458.333-3.458 0-7v-4l4-1v-4c-3.122 1.309-3.122 1.309-5 4-3.16.414-3.16.414-7.062.625l-3.91.227L411 218l1-2h12zm-13 23 1 2h6v-2zm8 0v2l3-1z"/><path fill="#747779" d="M605 134c14.29-.437 14.29-.437 19 3 3.115 4.673 2.591 9.53 2 15-1.817 3.494-3.106 4.542-6.562 6.313C616 159 616 159 605 159zm4 1v2l-3-1q-.042 4.968-.062 9.938l-.026 2.865-.01 2.724-.016 2.524c-.102 1.954-.102 1.954 1.114 2.949 5.922.58 10.98.514 16-3 2.633-3.352 2.29-6.877 2-11-1.116-3.862-1.572-4.715-5-7-2.739-.458-2.739-.458-5.687-.625l-3.012-.227z"/><path fill="#7A7A78" d="m605 217-1 5-7 1c-1.15 4.09-1.11 8.032-1.062 12.25l.013 2.258q.02 2.745.049 5.492c-2.579.92-3.594 1.185-6.14.023L588 242q-.042-6.22-.062-12.437l-.026-3.588-.01-3.409-.016-3.158C588 217 588 217 589 216c2-.043 4-.04 6 0 2.872.15 2.872.15 5-.625 2-.375 2-.375 5 1.625m-15 0v24h4l.113-3.395q.098-2.209.2-4.417l.068-2.237c.272-5.462.272-5.462 1.994-7.888 2.102-1.375 4.261-2.233 6.625-3.063v-3c-3.375.547-5.082 1.055-8 3v2h-2v-5z"/><path fill="#878888" d="M428 153c3.43 1.715 4.197 5.782 5.625 9.188 3.157 7.346 6.709 14.23 10.809 21.09C446 186 446 186 447 189c2.786.67 2.786.67 6 0 2.143-2.4 3.522-5.157 5-8q1.15-2.005 2.313-4l1.687-3c1 3 1 3-.11 5.559l-1.64 2.879-1.61 2.87c-2.81 4.61-2.81 4.61-4.64 6.692-2.937.5-2.937.5-6 0-2.918-2.27-4.551-4.62-6-8l-2 1-.25-2.687c-.848-3.747-2.319-5.411-4.75-8.313v-3c-.633-1.826-.633-1.826-1.531-3.723l-.957-2.13-1.012-2.21c-3.5-7.682-3.5-7.682-3.5-9.937"/><path fill="#A2A3A1" d="M520 220c6.476-.367 6.476-.367 8.875 1.313 2.597 3.896 2.242 7.892 2.188 12.375l-.014 2.126q-.02 2.594-.049 5.186h3l-1-21 2 1v22l-5 1-.312-1.937L529 240l-3-1 2-1c.468-2.586.468-2.586.625-5.562l.227-3.067L529 227h-3v-4l-2-1v2h-2v-2l-4 2zm8 4-1 2h2z"/><path fill="#959694" d="m499 178 1 2h-3v12l-5.398-.07q-3.489-.029-6.977-.055l-3.562-.05-3.399-.02-3.142-.032c-2.693-.03-2.693-.03-4.522 2.227v-3l-3 1v-3l-2-1c.75-4.75.75-4.75 3-7v9h27v-10l-3-1z"/><path fill="#6E7171" d="M684 148h1l1 29 7 3c.296 8.877.296 8.877-2 12-6.07 1.686-12.88 1.247-19 0l-1-2h20v-10h-7z"/><path fill="#F5F6F7" d="m575 217-1 2-2.875.938c-3.014 1.024-4.285 1.544-6.125 4.062a90 90 0 0 0-1 4q3.656-.172 7.313-.375c.69-.03 1.38-.062 2.091-.094 3.666-.212 5.475-.45 8.596-2.531v4l-18 1v3l-4 1c-.572-10.917-.572-10.917 3-15 3.588-2.79 7.66-2.145 12-2"/><path fill="#D5AE41" d="M198 162c5.875 3.75 5.875 3.75 7 6 1.347 15.039-.052 30.041-6 44-1.29-3.871-.407-5.438.813-9.312 2.954-10.01 3.488-20.322 4.187-30.688h-2l-2-6-1.875.5C196 167 196 167 194 167a83 83 0 0 0-4 3c1.502-4.206 4.286-5.739 8-8"/><path fill="#F4F5F5" d="M365 217h4v24h-4v-7l-2-1h2z"/><path fill="#A69D92" d="m325 213 2 1v3c-2.974 1.24-5.853 2.3-9 3v-3h-4v24h4v-14h1v13l2 1c-2.395 2.395-3.658 2.755-7 3-1.812-1.187-1.812-1.187-3-3v-4h2l-1-9h-1a365 365 0 0 1-.125-4.875l-.07-2.742C311 218 311 218 313 216c2.82-.195 2.82-.195 6.125-.125l3.32.055L325 216zm-6 4 1 2Z"/><path fill="#7F8181" d="M475 149c1.417 2.835 1.026 5.123.914 8.285l-.133 3.795-.156 3.982-.133 3.995c-.364 9.815-.364 9.815-1.492 10.943-2 .04-4 .043-6 0l1.95-.5c2.471-1.445 2.471-1.445 2.695-5.125q.112-2.186.168-4.375l.115-2.234c.253-4.01.253-4.01-.928-7.766l-1 2-1.875 2.75c-1.965 3.006-3.583 6.012-5.125 9.25-1-3-1-3-.335-4.822l1.1-2.014 1.2-2.226 1.285-2.313 1.238-2.29c2.084-3.832 4.23-7.615 6.512-11.335"/><path fill="#9A9C9B" d="M684 133h11v7h8c-3.089 2.06-3.71 2.239-7.187 2.125L692 142l1-6-3 1-4 1v28h-1c-.707-11.019-1.147-21.957-1-33"/><path fill="#9F9F9D" d="M473.086 209.309c3 2.455 4.668 3.953 5.914 7.691-1.25 1.563-1.25 1.563-3 3-2-.062-2-.062-4-1l-1.238-2.043c-1.655-2.263-1.655-2.263-4.68-2.348l-3.27.141-3.292.11-2.52.14c2.424-2.838 2.866-2.985 6.875-3.437 4.135.129 6.107 1.596 9.125 4.437h2c-.963-2.407-1.57-3.738-3.816-5.11-4.536-1.85-9.182-1.585-13.77.008-2.18.97-4.306 1.986-6.414 3.102.963-2.436 1.553-3.738 3.848-5.082 6.274-2.07 12.346-3.305 18.238.39"/><path fill="#ABAAA7" d="m407 218 4 1-2 3c-.34 4.075-.313 5.53 2 9l-1 1-1 7 16 2 1 5-6-2v-2l-4 2v-2h-5l-1 2v-3h-2c-1.895-3.198-2-5.34-2-9-.916-2.251-.916-2.251-2-4l2-1c.467-2.126.467-2.126.625-4.562l.227-2.504z"/><path fill="#DAD3C5" d="M281 190c2 2 2 2 2 6a101 101 0 0 1-7.312-2.062c-4.65-1.183-8.673-1.36-13.375-.375-2.583.488-3.795.084-6.313-.563-4.207-.235-7.92-.058-12 1l-3-1c-3.963-.253-6.59-.099-10 2v-3l-2-1 1.84.007q9.465.032 18.93.048 3.535.008 7.069.02c3.383.013 6.766.018 10.15.023l3.2.015h2.972l2.618.007c2.396-.031 2.396-.031 5.221-1.12"/><path fill="#F3F4F3" d="M430 213v4l-4 2 1 3c.25 3.563.25 3.563 0 7l-3 2-.332-1.898-.48-2.477-.458-2.46c-.605-2.523-.605-2.523-3.73-4.165-2.634.321-4.627.814-7 2l1-5h12l1-3c2-1 2-1 4-1"/><path fill="#90908E" d="m472 230 5 1c.75 1.688.75 1.688 1 4-1.687 2.5-1.687 2.5-4 5l-1.625 2.375c-3.393 2.322-5.926 1.754-9.895 1.18-3.175-.71-5.743-1.8-8.48-3.555l-1-2 2.125.977c4.874 1.735 9.771 1.615 14.875 1.023 3.25-1.622 3.25-1.622 5-4v-2l-2-1v3c-4.53 2.265-8.03 2.316-13 2-2.5-1-2.5-1-4-2l1-2 1.625 1c4.129 1.738 8.158 1.298 12.375 0z"/><path fill="#F7F8F5" d="m294.938 216.563 2.527-.122c3.891.858 5.23 2.33 7.535 5.559.591 3.298.474 6.476.313 9.813l-.069 2.677c-.059 2.17-.148 4.34-.244 6.51h-3l1-3c.467-5.374.844-10.279-1.562-15.187-3.19-2.372-5.491-2.741-9.438-2.813l-3 2h-3v-3c3.055-1.757 5.42-2.345 8.938-2.437"/><path fill="#6E6F6E" d="m582 180 2 1-1 9h29v1l-2.371.148-3.067.227c-1.009.07-2.018.14-3.058.21-.826.138-1.653.274-2.504.415l-1 2-1-1-1 2-3-1v-1l-2.082.035-2.73.028-2.708.035C585 193 585 193 582 192l-1 2-2-6h2z"/><path fill="#A3A49F" d="m392.5 215.75 2.344.484c2.448.87 3.546 1.744 5.156 3.766 1.187 3.56 1.097 6.438 1.063 10.188l-.028 3.855L401 237l4 1-1 2c-2-1-2-1-3-2l-1 5-4 1-1-3h4a626 626 0 0 0-.25-9.812l-.043-2.815-.098-2.705-.063-2.491c-.381-2.327-.381-2.327-2.365-3.95-3.164-1.78-5.612-1.546-9.181-1.227-2.354.88-2.354.88-4 2 .813-1.937.813-1.937 2-4 3.198-1.066 4.303-.953 7.5-.25"/><path fill="#797B7B" d="M539 141c3.203 3.655 4.576 7.747 6.188 12.25l.826 2.258q1 2.743 1.986 5.492h-16c2.202-6.717 4.557-13.366 7-20m0 4a958 958 0 0 0-2 5.313l-1.125 2.988c-1.03 2.702-1.03 2.702-.875 5.699 4.02.696 7.083 1.17 11 0a1143 1143 0 0 0-2.375-5.875l-1.336-3.305c-1.12-2.883-1.12-2.883-3.289-4.82"/><path fill="#7C7D7E" d="m592 120 2 1 1.875-.5c2.431-.572 3.751-.133 6.125.5l2-1 1 3h-22v10h8c-1.187 2-1.187 2-3 4-3.14.393-4.98.007-8-1v-6h1l1-6-2-1c2-2 2-2 5.438-2.062L589 121z"/><path fill="#E8E9E7" d="m410 233 1 3 2.887.043c11.52.438 11.52.438 14.488 3.52L430 242l-1 3v-2h-2l-1-2-2.195.07c-5.35.1-9.8.095-14.805-2.07a100 100 0 0 1 0-5z"/><path fill="#D8AC43" d="m185 80 1 2c-3.744 4.198-6.84 6.078-12 8 .603.23 1.207.461 1.828.7 4.921 2.007 8.338 3.577 11.172 8.3 1.419 3.546 1.073 7.225 1 11h-1l-.516-2.555-.734-3.32-.703-3.305c-.76-2.933-.76-2.933-3.094-4.078L180 96l-1-2-3.25-.437c-3.73-.56-5.771-1.306-8.75-3.563v-2l2.773-.586 3.602-.789 3.586-.773c3.121-.607 3.121-.607 5.039-2.852z"/><path fill="#A19F98" d="M344.938 219.75C348 220 348 220 351 222l-1 2-1.687-.562c-2.715-.514-4.64-.036-7.313.562-.793 8.08-.793 8.08-1 16.188V243c-1 1-1 1-4.562 1.063L332 244l2-1v-7h1v5h3l-.07-2.887-.055-3.8-.07-3.762c.288-5.243 1.19-10.295 7.132-10.801"/><path fill="#939290" d="M425 237c1.875.313 1.875.313 4 1 2.326 3.489 2.419 4.897 2 9-1.803 3.245-3.606 4.615-7 6-7.256.985-12.713.454-18.672-3.906L404 248c.375-2.437.375-2.437 1-5l2-1 .188 2.875c.473 3.197.473 3.197 2.75 4.5 5.525 1.128 10.809 1.499 16.125-.562 2.073-1.706 2.073-1.706 3-4.188-.087-3.613-1.64-5.056-4.063-7.625"/><path fill="#B1A399" d="m293.383 229.805 2.742.07 2.758.055L301 230l-1 2 1 3c-2.298 2.828-3.39 3.913-7.062 4.438C291 239 291 239 289.063 237.75 288 236 288 236 288.188 233.938c1.198-2.86 2.057-3.876 5.195-4.133M290 232l1 5 3-1-3-3 2-1zm5 1 1 2Z"/><path fill="#B5A479" d="m233 210 3 3c-.32 1.917-.32 1.917-1 4-.048 2.127-.048 2.127.121 4.328l.147 2.422.17 2.5.158 2.547q.195 3.102.404 6.203l3.438.375L243 236l1 2h-11z"/><path fill="#BBB69E" d="M270 220c2.438 1.75 2.438 1.75 4 4v4h-17c2-6 2-6 3.688-7.375 3.284-.888 5.925-.988 9.312-.625m-7 1-1 5h9l1-3c-3.435-2.29-4.985-2.178-9-2"/><path fill="#9A9A97" d="M575 220c2.438 2.313 2.438 2.313 4 5v3h-15l1-6c3.733-2.488 5.584-2.542 10-2m-10 5v1h5v-2l1 2 4-1h-3c1-2 1-2 3-3-1.041-1.243-1.041-1.243-3.312-1.312-3.469.403-4.52 1.662-6.688 4.312"/><path fill="#95917C" d="m226 116 23 1v1h-23l1 9 7 1c-1.25 1.563-1.25 1.563-3 3-2.187-.312-2.187-.312-4-1l1 1-3 1c-.42-1.724-.81-3.454-1.187-5.187l-.668-2.918C223 121 223 121 226 116"/><path fill="#F7F8F7" d="m473 233 3 1c-1.407 3.401-2.848 5.092-6 7-2.875.434-2.875.434-6 .438l-3.125.058c-3.496-.603-4.657-1.803-6.875-4.496l2.887.035 3.8.028 3.762.035c3.013-.083 5.634-.39 8.551-1.098z"/><path fill="#A5A7A4" d="M382 134c.188 3.125.188 3.125 0 6h11l-1 2c-3.708.283-7.301.447-11 0-2.677-2.83-3-4.137-3-8l-2-1-2 4-1-4-6-1v-1c6.508-1.276 9.56-.626 15 3"/><path fill="#AFACA7" d="M388.938 219.563c3.062.437 3.062.437 5.238 1.949 2.546 3.473 2.263 6.614 2.074 10.738l-.055 2.258A339 339 0 0 1 396 240c-1.924-2.886-2.273-3.752-2.562-7-.242-2.598-.598-4.48-1.438-7l1-1-2.187-.437L383 223c1.872-2.496 2.79-2.969 5.938-3.437M389 222l4 1Z"/><path fill="#D5B438" d="M108 218c4.006.089 5.658.698 8.688 3.375L119 224c2.307 2.607 4.484 3.84 7.688 5.188l2.449 1.042L131 231l-1 2-2.3-.84-3.013-1.097-2.988-1.09A250 250 0 0 0 116 228l-.437-1.937c-.364-2.266-.364-2.266-2.626-3.313L111 222v-1l-5-1z"/><path fill="#7D7A72" d="m352 123 2 1-3.71 4.297c-3.075 4.06-3.713 7.306-3.622 12.316.546 3.925 2.324 7.024 4.332 10.387l1 2c-3.89-1.475-5.25-3.26-7-7a99 99 0 0 1-1.473-6.816c-.552-2.286-1.403-4.126-2.527-6.184l3 1 .988-1.645 1.325-2.167 1.3-2.145c1.312-1.933 2.681-3.457 4.387-5.043"/><path fill="#8C8D8A" d="M249 129h17v1h-9v2h-7l.563 3c.614 4.17.092 7.85-.563 12h12v1h-13z"/><path fill="#8F8E88" d="M355 220h2v24h-6c-.924-3.939-1.164-7.645-1.187-11.687l-.043-3.45C350 226 350 226 352 224v17h4z"/><path fill="#BFBFBD" d="m501 235 3 1c-.542 3.796-2.201 5.472-5 8l-1-1-3.375.625C491 244 491 244 489.063 242.563L488 241l7-1-2-2 3.438-.937c3.35-.692 3.35-.692 4.562-2.063"/><path fill="#CFB974" d="m304 163 1.722.988c2.473 1.099 4.034 1.245 6.72 1.207l2.517-.02 2.603-.05 2.616-.027q2.4-.027 4.8-.066c2.341-.037 4.681-.032 7.022-.032l-1 4h-5v-2l-2 1a61 61 0 0 1-4.133.098l-2.441-.01-2.551-.025-2.574-.014q-3.15-.02-6.301-.049z"/><path fill="#848589" d="m652 119 2 1v2l1.688-.473c7.316-1.866 12.95-1.138 20.312.473v1h-28v4l-4-1v-3c4.75-2 4.75-2 7-2z"/><path fill="#F5F6F4" d="M286 230c2 1 2 1 3.063 4l.937 3c1.497 1.497 2.988 1.332 5.063 1.563L299 239l-1 2c-6.898 1.61-6.898 1.61-10.937-.625-2.263-2.605-2.975-3.943-3.063-7.375z"/><path fill="#FAFBFA" d="M335 217h3l-1 9h1v15h-3z"/><path fill="#767A7D" d="M542 122h5c9 19.107 9 19.107 9 23l2 1c.633 2.066.633 2.066 1.125 4.563l.508 2.503L560 155c-2.505-3.077-4.09-6.154-5.664-9.79l-1.461-3.35-1.5-3.485-2.977-6.852-1.322-3.065c-1.65-3.865-1.65-3.865-5.076-6.458"/><path fill="#D7AD3C" d="m149.668 143.84 2.52 2.097 2.542 2.09c1.84 1.599 3.582 3.219 5.27 4.973-4.75-1.664-7.918-4.223-11.719-7.441-2.531-1.948-2.531-1.948-7.281-2.559l-4 11c-1.188-4.75-.999-7.236 0-12 3.955-3.809 8.754-.86 12.668 1.84"/><path fill="#F7F8F6" d="M266.188 216.938 270 217l1 2h-9l-1 3-2 1a78 78 0 0 0-2 5h-2l-1 2c-.346-2.903-.519-5.125 1.008-7.7 3.404-4.209 5.889-5.45 11.18-5.363"/><path fill="#A3A3A1" d="M427 227c1.145 3.434 1 5.308 1 9-3.285 1.095-5.737 1.1-9.187 1.063l-3.293-.028L413 237l-1-5 2.012.176c5.105.407 5.105.407 9.765-1.29 1.518-1.502 1.518-1.502 3.223-3.886m-14 7 1 2h6v-2zm8 0v2l3-1z"/><path fill="#F8FAFD" d="M235 204v3l1 3-2 1-1 22h-1v-21h-3v-3l2-1-2-1v-2z"/><path fill="#A4A5A0" d="M365 206c2.438.188 2.438.188 5 1 1.794 2.563 2 3.831 2 7-1.687.688-1.687.688-4 1-2.75-1.437-2.75-1.437-5-3 .875-4.875.875-4.875 2-6"/><path fill="#BB9C58" d="M324 151c6.64 3.918 6.64 3.918 8.063 8.188C332 162 332 162 330 164l-1-7c-6.822-3.189-14.64-3.064-21.75-.812-2.468 1.65-2.468 1.65-3.125 4.5L304 163h-1c-.375-2.75-.375-2.75 0-6 4.473-3.866 8.149-4.539 13.875-4.25l2.086.055c1.68.046 3.36.118 5.039.195z"/><path fill="#A5A6A2" d="m566.941 228.902 3.621.036 3.63.027L577 229c-1.634 1.964-2.464 2.923-5.043 3.293L566 232v3l2.75-.187c3.54.204 4.7.833 7.25 3.187-7.32.488-7.32.488-10.437-1.75-1.515-2.18-2.291-3.62-2.563-6.25 1-1 1-1 3.941-1.098"/><path fill="#B9B8B5" d="m249 160 8 1v1l-7 1c.114 1.46.242 2.917.375 4.375.07.812.14 1.624.21 2.46.244 2.368.244 2.368 2.415 4.165l-1 2h4l1 3-8 1z"/><path fill="#A6A396" d="M301 216c3.063 2.563 3.063 2.563 5 5l-1 3-1.375-2.437c-1.372-2.652-1.372-2.652-3.625-3.563a79 79 0 0 0-4.875-.125l-2.617-.008c-2.315.123-4.29.483-6.508 1.133v3l5-1-4 4c-1.562-1.25-1.562-1.25-3-3-.125-2-.125-2 1-4 5.274-3.187 10.055-3.878 16-2"/><path fill="#7F8181" d="M527 172h25c3 6 3 6 3 8l-4-1h2l-3-4 1-2-3.832.219-7.506.426-2.432.136-2.237.127c-2.665.123-5.326.092-7.993.092z"/><path fill="#8A8B8C" d="M441 149h2a875 875 0 0 1 2 4.375l1.125 2.46C447 158 447 158 447 160l3 1c1.188 2.063 1.188 2.063 2 4l2-2 1 2c-1.437 2.625-1.437 2.625-3 5-3.101-3.664-5.477-7.4-7.75-11.625l-1.86-3.414C441 152 441 152 441 149"/><path fill="#A2A2A0" d="m605 217-1 5-7 1 1-2 2-.437 2-.563 1-3c-4.811 1.526-4.811 1.526-8 5h-2v-5l-5 2 1-3h9l2-.625c2-.375 2-.375 5 1.625"/><path fill="#A1A09B" d="M361 234h4v7h4v-5h3c.188 2.875.188 2.875 0 6-3.228 2.152-4.284 2.2-8 2-1.884-3.265-2.493-6.281-3-10"/><path fill="#D6D8D8" d="M427 153c1.977 2.966 2.402 4.585 3 8l1 3-2 2 2 2h-2l-.125 3.875-.07 2.18c.012 2.184.012 2.184 2.195 3.945l-4 1z"/><path fill="#E4BB40" d="m178 96 2 2-1 3h-2l-.625 1.813c-1.884 2.997-4.186 3.8-7.375 5.187l-1-4 1.75-.687c2.814-1.642 4.277-3.749 6.25-6.313z"/><path fill="#E3C13E" d="M198 162c5.745 3.423 5.745 3.423 6.938 6.125C205 170 205 170 204 172h-2l-2-6-1.875.5C196 167 196 167 194 167a83 83 0 0 0-4 3c1.502-4.206 4.286-5.739 8-8"/><path fill="#A4A5A0" d="M249 158h19v2h-3v2l-4 1-1-3h-11z"/><path fill="#969792" d="M520 220c6.428-.364 6.428-.364 8.719 1.094 1.914 2.847 1.569 5.21 1.468 8.594l-.082 3.574L530 236h-1v-9h-3v-4l-2-1v2h-2v-2l-4 2zm8 4-1 2h2z"/><path fill="#EBDEB3" d="M231 156c2 2 2 2 2.243 4.047l-.013 2.488-.005 2.701-.037 2.827-.002 2.837c-.046 6.96-.046 6.96-1.186 8.1-1.666.04-3.334.043-5 0l3-2c.399-2.111.399-2.111.258-4.535l-.043-2.701-.09-2.827q-.065-2.767-.117-5.535l-.074-2.484C230 157 230 157 231 156"/><path fill="#F1F3F2" d="m457 211 1 3-1.875 1.75c-1.938 2.052-3.025 3.684-4.125 6.25l-3-1c1.468-6.485 1.468-6.485 4-8.937 2-1.063 2-1.063 4-1.063"/><path fill="#999A99" d="M661 179h2l-1 11h9v2c-7.625 1.25-7.625 1.25-11-1-.328-2.312-.328-2.312-.25-5 .015-.887.03-1.774.047-2.687C660 181 660 181 661 179"/><path fill="#DDB745" d="M196 98a367 367 0 0 1 3.438 2.813l1.933 1.582C203 104 203 104 204 107h2v2l-3 1-1.46-1.68c-.633-.724-1.264-1.449-1.915-2.195l-1.898-2.18A91 91 0 0 0 194 100h2z"/><path fill="#979995" d="m408 238 2.875.938c4.634 1.341 9.33 1.695 14.125 2.062l1 5-6-2v-2l-4 2v-2h-5l-1 2v-3h-2z"/><path fill="#DFB73D" d="M189 170c1.042 3.127.971 4.293.441 7.45l-.42 2.568-.458 2.67-.448 2.705q-.548 3.305-1.115 6.607h-1q-.04-2.437-.062-4.875l-.036-2.742C186 182 186 182 187 180l-3-1v-5l2-1 2 1zm-3 6 1 3Z"/><path fill="#90908C" d="M486 230c3 3.75 3 3.75 3 6h9l1-3 9 1v2l-4 2-1-2-1.719.977c-3.703 1.66-7.302 1.622-11.281 1.023-2.562-1.75-2.562-1.75-4-4z"/><path fill="#C2C3C2" d="M579 188h2v3h24l-4 1-1 2-1-1-1 2-3-1v-1l-2.082.035-2.73.028-2.708.035C585 193 585 193 582 192l-1 2z"/><path fill="#9A988E" d="M318 227h1v13l2 1c-2.395 2.395-3.658 2.755-7 3-1.812-1.187-1.812-1.187-3-3v-4h2l1-4v8h4z"/><path fill="#959596" d="M684 133h11v7h8c-3.089 2.06-3.71 2.239-7.187 2.125L692 142l.563-2.937L693 136c-1.497-1.497-2.988-1.332-5.062-1.562L684 134z"/><path fill="#BCB7AC" d="M306 223c2.557 3.787 2.035 7.412 1.625 11.75l-.172 2.113c-.14 1.713-.295 3.425-.453 5.137h-5l3-1-.035-3.684q-.015-2.376-.027-4.754l-.026-2.431c-.009-2.044.036-4.088.088-6.131z"/><path fill="#B0B1B2" d="m528 173 2 2h-2l1 2h3v14h-1v-10l-7-1c.602-2.02 1.273-4.021 2-6zm-1 4-1 2h2z"/><path fill="#7F8383" d="m464 142 2 2c-1.616 3.15-3.244 6.295-4.875 9.438l-1.395 2.72-1.347 2.588-1.238 2.396C456 163 456 163 454 164c1.535-4.722 3.24-9.359 5-14h2l.938-2.875C463 144 463 144 464 142"/><path fill="#AFAE9A" d="m339 166 4 1q.039 3.125.063 6.25l.035 3.516c-.08 2.644-.312 4.732-1.098 7.234l-3-1v-2h2q-.214-2.625-.437-5.25l-.247-2.953c-.267-2.362-.67-4.516-1.316-6.797"/><path fill="#B9B4AB" d="M327 216h3l1 4h-2l-1 5-3-1-1 2-1-3-3 1v-2c2.647-1.46 3.894-2 7-2z"/><path fill="#A4A393" d="m293 162 .875 1.938c.953 2.214.953 2.214 3.125 3.062v5h-2l-.312 2.688c-.7 3.37-1.775 5.485-3.688 8.312l-1-2 .898-1.64c1.534-3.286 1.565-6.546 1.727-10.11l.117-2.113c.094-1.712.177-3.425.258-5.137"/><path fill="#C9AB3B" d="m188 68 3 1 1 10-3-2-3 2q.212-2.188.438-4.375c.08-.812.162-1.624.246-2.46C187 70 187 70 188 68"/><path fill="#CBC4B8" d="m280 229 3 1q.079 2.374.125 4.75l.07 2.672c-.204 2.692-.83 4.277-2.195 6.578h-1v-7l-2-1v-2h2z"/><path fill="#F9FAFB" d="M354 224h1v17h-3a590 590 0 0 1-.125-6.25l-.07-3.516c.185-3.062.587-4.676 2.195-7.234"/><path fill="#FAFBFB" d="M380 227c2 2 2 2 2.195 4.82l-.07 3.305-.055 3.32L382 241h-4v-7h1z"/><path fill="#AAAAA7" d="M399 228h1l.25 3.875c.209 2.178.209 2.178.75 4.125 1.92 1.59 1.92 1.59 4 2l-1 2c-2-1-2-1-3-2l-1 5-4 1-1-3h4z"/><path fill="#E1E0DB" d="m328 217-1 3c-3.562 1.188-3.562 1.188-7 2v4h2l-1 2-3-1c-.312-3.312-.312-3.312 0-7 3.21-2.844 5.785-3.361 10-3"/><path fill="#FDDC4A" d="m102 177 3 1c2.739.07 5.45.094 8.188.063l2.271-.014q2.77-.02 5.541-.049v2l-1.863-.035-2.45-.028-2.425-.035c-2.43.001-2.43.001-5.262 1.098-2.34-.278-4.676-.605-7-1z"/><path fill="#F1F2F2" d="M492.813 217.813 495 219v1l-3.312.625c-3.917 1.032-3.917 1.032-5.625 4.5L485 228l-1-2 1-2h-2c1.04-2.743 2.005-4.004 4.313-5.875C490 217 490 217 492.813 217.813"/><path fill="#D9BB3D" d="M197 85c4.377 1.226 8.697 2.53 13 4l-1 3h-7l-1-4-4-1z"/><path fill="#FBFCFC" d="M515 224h1v17h-3a711 711 0 0 1-.125-6.812l-.07-3.833C513 227 513 227 515 224"/><path fill="#84898C" d="M534 154h2l-1 5 1.813-.5C539 158 539 158 542 158l4 3h-14z"/><path fill="#C1BFB3" d="m293.285 229.902 2.777.036 2.786.027L301 230l-3 4-3-1-1 4c-3-2-3-2-3.75-4.062L290 231c1-1 1-1 3.285-1.098"/><path fill="#FBFBFC" d="m531 229 3 1v11h-3z"/><path fill="#B5B6B1" d="M572 222c2.5 1.375 2.5 1.375 5 3v2l2 1h-11l2-5 1 3z"/><path fill="#DFDFBD" d="M341 191q3.437-.118 6.875-.187l3.867-.106L355 191l2 3h-3l-1 2-2.312-.937C347.114 193.65 344.913 193 341 193z"/><path fill="#7F807E" d="M671 190h17l-1 2c-5.294 1.188-9.735.999-15 0z"/><path fill="#D6D7D6" d="m407 239 1 2h2v3h2v2l2 1-5-1-1 3-.937-2.875c-.937-2.986-.937-2.986-2.063-5.125h2z"/><path fill="#A1A19F" d="M580 218v3l-1.437-1.5c-3.784-2.215-7.275-1.965-11.563-1.5-2.93.867-2.93.867-5 2 1-3 1-3 2.531-4.09 6.2-2.67 9.786-1.212 15.469 2.09"/><path fill="#E6C239" d="M192 99c1.493 2.987.406 4.952-.437 8.125l-.872 3.32L190 113h-2c-1.283-3.85-1.066-6.947-1-11l3 1z"/><path fill="#9C988E" d="m301 238 1 4 4 1c-2.375.625-2.375.625-5 1l-2-2-1 2-9-1v-1l1.863-.367 2.45-.508 2.425-.492c2.515-.578 2.515-.578 5.262-2.633"/><path fill="#999995" d="M379.563 215.938 382 216l1 4-5-3v9h-2c-.84-3.361-1.177-5.704 0-9 1-1 1-1 3.563-1.062"/><path fill="#9A9C9B" d="M639 178c6.875.875 6.875.875 8 2 .072 1.686.084 3.375.063 5.063l-.028 2.785L647 190l-2-1v-8h-5z"/><path fill="#F4D449" d="M113 155c2.063.438 2.063.438 4 1v3l-3 1 1 5h-6l1-3h2l-.062-2.937C112 156 112 156 113 155"/><path fill="#B9B9B9" d="m580 130 2 3c2.207.364 2.207.364 4.625.188l2.477-.083L591 133c-1.187 2-1.187 2-3 4-3.14.393-4.98.007-8-1z"/><path fill="#EFEFEB" d="m294.625 227.938 3.04.027L300 228l-1 2c-1.993.257-3.988.508-5.992.656-2.318.257-2.318.257-5.008 2.344l-1-4c2.645-1.322 4.678-1.097 7.625-1.062"/><path fill="#AEAFAD" d="m511 173 2 2c-2.314 4.749-2.314 4.749-5.562 5.938L505 181l-2-2c4.625-4 4.625-4 8-4z"/><path fill="#969693" d="m562 238 2.875 1.563c4.745 2.085 9.141 1.27 14.125.437-1 2-1 2-3.687 3.188-3.549.87-5.793.65-9.313-.188v-2l-4-1z"/><path fill="#B5B7B4" d="M529 133c1.208 3.623.543 4.641-1 8l-4-2h3l1-4-8 2v-3z"/><path fill="#A3A39F" d="m584 235-3 5-2-1 2-3-5 1-1-3c3.779-1.05 5.65-1.11 9 1"/><path fill="#C2B5A7" d="M292 219q3.51.43 7 1l1 4c-1.687.813-1.687.813-4 1-2.75-2.437-2.75-2.437-5-5zm3 2v2l2-1z"/><path fill="#F2F0EC" d="M272 218c2.5 2 2.5 2 4 4l-3 2v-2c-2.75-.917-4.36-1.109-7.187-1.062L262 221v-2c3.188-1.594 6.54-1.527 10-1"/><path fill="#EBECEB" d="M397 226h1l1 15-5 1c.506-2.169 1-4 2-6 .226-1.704.409-3.413.563-5.125l.253-2.758z"/><path fill="#E6E7E4" d="M423 224c1.381 2.275 2.057 3.502 1.75 6.188C424 232 424 232 422 233c-2.333.04-4.667.043-7 0 1.645-1.81 2.867-2.941 5.125-3.937 2.082-.91 2.082-.91 2.625-3.188z"/><path fill="#EFEFEF" d="M603 217c-.125 1.875-.125 1.875-1 4-3.062 1.25-3.062 1.25-6 2v-4c3-2 3-2 7-2"/><path fill="#999993" d="M368 143c3.391.34 5.399 1.902 8 4l3 2-2 1c-2.602-.996-2.602-.996-5.625-2.437l-3.04-1.434L366 145z"/><path fill="#B0AFB0" d="M645 128h3v12l4 1-5 1c-1.607-3.215-1.057-6.436-1-10l-2-1z"/><path fill="#898A87" d="M406 242h1l.063 2.813c.565 3.194.565 3.194 2.562 4.253 1.757.734 3.565 1.342 5.375 1.934-1.562.75-1.562.75-4 1-2.503-1.13-4.67-2.521-7-4 .875-4.875.875-4.875 2-6"/><path fill="#D9D9D5" d="M365 208h4l-1 5-3 1-2-4z"/><path fill="#E0DFAE" d="M235 204v3l1 3c-2.667 1.333-4.167.671-7 0l2-2-2-1v-2z"/><path fill="#F0F0BF" d="M281 190c2 2 2 2 2 6-3.699-.888-7.346-1.946-11-3v-1c1.455-.39 2.914-.76 4.375-1.125l2.46-.633z"/><path fill="#D8D8D6" d="m252 143 5 1v2l3-1c2.688.438 2.688.438 5 1v1h-15z"/><path fill="#AEA18D" d="M270 232c2.02.602 4.021 1.273 6 2l1 2-2.437.438c-2.484.303-2.484.303-3.563 1.562q-3.5.061-7 0v-1l6-2z"/><path fill="#B7B7B6" d="M427 217h3l-1 3v8c-2-1-2-1-2.703-2.777l-.547-2.16-.578-2.153L425 219z"/><path fill="#AFA99A" d="m292 217-6 2v3l5-1-4 4c-1.562-1.25-1.562-1.25-3-3 .063-2.062.063-2.062 1-4 2.907-2.035 3.529-2.157 7-1"/><path fill="#A1A19E" d="M543 213h1v5l-4-1v3l4 1-5 2-1-6 5-1z"/><path fill="#ABABAB" d="M474 212c1.938.813 1.938.813 4 2l1 3c-1.25 1.563-1.25 1.563-3 3-2.187-.312-2.187-.312-4-1l1.563-1.25L475 216c-.228-2.163-.228-2.163-1-4"/><path fill="#FBE03E" d="m183 85 1 2c-7.097 3.71-7.097 3.71-10 4l-4-2z"/><path fill="#EBEDEC" d="M378 217c1.938.313 1.938.313 4 1l1 3-3 3c-2-2-2-2-2.125-4.625z"/><path fill="#E7E7E4" d="m251 172 2 2-1 2h4l1 3h-7z"/><path fill="#E4C435" d="M186 162h2v2l2 1-1.562 1.25L187 168c.228 2.163.228 2.163 1 4h-3c-1.467-3.815-.433-6.29 1-10"/><path fill="#E7C539" d="m178 96 2 2-1 3c-3.062 1.188-3.062 1.188-6 2 1.25-3.653 1.671-4.78 5-7"/><path fill="#D8BB39" d="M111 239c3.949.564 6.709 1.743 10 4v1c-2.187.313-2.187.313-5 0-2.812-2.5-2.812-2.5-5-5"/><path fill="#F9F9F9" d="M422 238c2.313-.25 2.313-.25 5 0 1.875 1.813 1.875 1.813 3 4l-1 3v-2h-2l-1-2c-2.527-.656-2.527-.656-5-1z"/><path fill="#A5A6A5" d="m433 179 3 1v9h-3z"/><path fill="#F5CF48" d="m114 160 10 1-2 1v2l-7-1z"/><path fill="#B0AC98" d="m225 127 9 1-3 3c-2.187-.312-2.187-.312-4-1l1 1-3 1z"/><path fill="#A3A3A0" d="m499 233 9 1v2l-4 2-1-2c-2.527-.656-2.527-.656-5-1z"/><path fill="#B8B9B8" d="m472 230 5 1 1 4-5-2v3h-2z"/><path fill="#A09F9E" d="M520 220h7l-1 2h-2v2h-2v-2l-4 2z"/><path fill="#A69F86" d="M263 220c6.344-.488 6.344-.488 9.438 1.813C274 224 274 224 274 227h-3l1-4-9-2z"/><path fill="#F0F1F1" d="M548 217h7v3h-7z"/><path fill="#989999" d="m449 163 3 2 2-2 1 2c-1.437 2.625-1.437 2.625-3 5-1.5-1.25-1.5-1.25-3-3z"/><path fill="#D9D9D9" d="M666 173h2a88 88 0 0 1 1 5c-1 1-1 1-3.562 1.063L663 179c1-3 1-3 3-6"/><path fill="#FBDF3E" d="m111.066 165.902 2.496.036 2.504.027L118 166v1l-1.898.586-2.477.789-2.46.773c-2.33.75-2.33.75-4.165 2.852 1.069-5.956 1.069-5.956 4.066-6.098"/><path fill="#9FA09F" d="M425 247c-3.452 2.302-4.947 2.345-9 2l-2-2c7.429-1.286 7.429-1.286 11 0"/><path fill="#F0F0F0" d="m426 240 1 3h2l1 3-4 3c-.879-6.152-.879-6.152-1-8z"/><path fill="#EEEDE7" d="m263 239 7 1-1 2h-6z"/><path fill="#EEEEED" d="m337 220 2 1v6l-3 1q-.062-3.5 0-7z"/><path fill="#F6F6F4" d="M430 213v4l-6 1c2.258-5 2.258-5 6-5"/><path fill="#EAEBE9" d="M493 238h6v3c-2.709 1.354-5.01 1.065-8 1l4-2z"/><path fill="#D7B339" d="M189 226v3c-2.5 2.188-2.5 2.188-5 4v-5z"/><path fill="#D5D7D5" d="M597 191c1.945-.293 1.945-.293 4.125-.187L605 191l-1.937.375L601 192l-1 2-1-1-1 2-3-1z"/><path fill="#BBBBBC" d="M408.625 132.875 412 133v1h-6v2l2 1-4 1-1-3c2-2 2-2 5.625-2.125"/><path fill="#A4A4A4" d="M377 241h5l1 3h-6z"/><path fill="#F8F9FA" d="M567 217h8l-1 2c-2.322.407-4.657.744-7 1z"/><path fill="#F5F5F3" d="m472 211 4 3-1 3-4-2z"/><path fill="#DBB839" d="M124 126c1.063 1.813 1.063 1.813 2 4l-1 3-3 1c.875-5.75.875-5.75 2-8"/><path fill="#F5D975" d="M326 149h3v4l-3-1z"/><path fill="#D3B3AD" d="m280 223 2 1-1 4h-1z"/><path fill="#E9BF94" d="m284 225 3 1-1 2h-2z"/><path fill="#C8C8C8" d="M580 181h1v6h-1z"/><path fill="#F0F0F0" d="M660 173c2 1 2 1 3 3h-3z"/><path fill="#CDCDCD" d="M517 128h1v5l-2-4z"/><path fill="#E1AE37" d="M134 250h5v1h-5z"/><path fill="#C7C7C7" d="m349 240 1 2-2 2z"/><path fill="#E5E5E5" d="m432 239 1 4-2-3z"/><path fill="#C7C7C7" d="M348 231h2v3l-2-1z"/><path fill="#EDE5C3" d="m269 223 2 2-4-1z"/><path fill="#D3D3BF" d="m291 222 2 3-3-1z"/><path fill="#FFF" d="m279 221 4 1-2 1z"/><path fill="#D0D0D0" d="m338 212 2 1v2h-2z"/><path fill="#E5FFE5" d="M500 189h2l-1 3z"/><path fill="#FFFF32" d="M162 150v3l-2-2z"/><path fill="#D8D8D8" d="m585 138 3 1-3 1z"/><path fill="#FFF" d="m377 138 2 2-4-1zM617 137l3 1-3 1z"/><path fill="#FF9F5F" d="m150 250 4 1Z"/><path fill="#FFDF1F" d="M127 249h3l-1 2zM102 233l3 1h-3z"/><path fill="#BFBFBF" d="M330 226h2v2h-2z"/><path fill="#C5C5C5" d="m519 224 2 3h-2z"/><path fill="#DDD" d="m405 221 1 3-2-1z"/><path fill="#EFEFEF" d="m252 215 2 2-2 1z"/><path fill="#949494" d="m335 212 2 2-3-1z"/><path fill="#FFF" d="m423 193 2 3h-2z"/><path fill="#EFEFEF" d="m268 193 3 1h-3z"/><path fill="#FFFFDF" d="m357 192 4 1Z"/><path fill="#DFDFDF" d="m648 189 2 1h-3z"/><path fill="#E9E9E9" d="M441 185v3Z"/><path fill="#FFE915" d="m206 180 1 4Z"/><path fill="#E9C935" d="M87 176v3Z"/><path fill="#FFF" d="m405 174 2 2-2 1z"/><path fill="#EFEFEF" d="M409 172h2l-1 3z"/><path fill="#FFF" d="m376 170 2 1h-3z"/><path fill="#E9E989" d="m304 167 2 2-2 1z"/><path fill="#FFDF4A" d="m180 156 4 1Z"/><path fill="#FFF" d="M342 143h2l-1 3z"/><path fill="#E9E9E9" d="m645 135 1 3-2-1z"/><path fill="#EFEFEF" d="M612 137h3l-1 2z"/><path fill="#D9B9B9" d="m580 125 1 4Z"/><path fill="#D9D9D9" d="m362 116 2 1h-3z"/><path fill="#B2B2B2" d="m453 242 1 2-2-1z"/><path fill="#FFE21C" d="m185 233 1 2-2-1z"/><path fill="#A2A2A2" d="m568 232 3 1Z"/><path fill="#FF0" d="m138 231 3 1Z"/><path fill="#B8B8B8" d="m433 218 2 1-2 1z"/><path fill="#FFF" d="M377 194h2l-1 2z"/><path fill="#CDCDA2" d="m361 193 1 2-2-1z"/><path fill="#FFF" d="m342 193 2 2h-2z"/><path fill="#E2E2E2" d="m604 193 2 1-2 1z"/><path fill="#C6C6C6" d="m571 193 3 1Z"/><path fill="#FFF" d="m483 193 3 1Z"/><path fill="#FFFF2A" d="M182 193h2l-1 2z"/><path fill="#DFDFDF" d="m437 177 1 2-2-1z"/><path fill="#FFF" d="m614 175 1 2-2-1z"/><path fill="#E9E9E9" d="m491 174 1 2-2-1z"/><path fill="#CDCDCD" d="m433 169 1 2-2-1z"/><path fill="#FFF" d="M512 165h2l-1 2z"/><path fill="#FFFFD4" d="M300 156h2l-1 2zM349 154h2l-1 2z"/><path fill="#EEE" d="m286 150 1 2-2-1z"/><path fill="#E2E2E2" d="m650 143 3 1Z"/><path fill="#FFF" d="m664 138 3 1Z"/><path fill="#EEE" d="m607 138 3 1ZM554 137h2l-1 2z"/><path fill="#F0F0F0" d="m525 136 2 1-2 1z"/><path fill="#E2E2E2" d="m376 134 2 1-2 1z"/><path fill="#FFF" d="m644 133 2 1-2 1zM368 133l2 1-2 1zM610 119l3 1Z"/><path fill="#7F7F7F" d="M426 117h2l-1 2z"/><path fill="#E2E2E2" d="m381 116 2 2h-2z"/><path fill="#E8D45E" d="m188 116 2 1-2 1z"/><path fill="#B8B8B8" d="m376 116 3 1Z"/><path d="m326 367 2 1ZM326 343l2 1ZM326 327l2 1ZM326 319l2 1ZM326 311l2 1ZM326 295l2 1ZM326 271l2 1Z"/><path fill="#3F3F3F" d="m326 263 2 1Z"/><path fill="#FFF" d="m326 255 2 1Z"/><path fill="#7F7F7F" d="m506 237 2 1Z"/><path fill="#BFBFBF" d="m309 236 2 1Z"/><path fill="#AAA" d="m584 235 2 1Z"/><path fill="#9F9F9F" d="m497 232 2 1Z"/><path fill="#BFBFBF" d="m326 231 2 1ZM444 229l2 1Z"/><path fill="#FF0" d="m130 229 2 1Z"/><path fill="#FFBF3F" d="m100 228 2 1Z"/><path fill="#D4D4D4" d="m388 225 2 1Z"/><path fill="#BFBFBF" d="m496 224 2 1Z"/><path fill="#FFFFBF" d="m264 224 2 1Z"/><path fill="#9F9F9F" d="m491 222 2 1Z"/><path fill="#FFF" d="m470 218 2 1ZM256 216l2 1Z"/><path fill="#E5E5E5" d="m434 215 2 1ZM410 215l2 1Z"/><path fill="#BFBFBF" d="m588 214 2 1Z"/><path fill="#D4D4D4" d="m269 214 2 1Z"/><path fill="#FFFF7F" d="m261 214 2 1Z"/><path fill="#FFF" d="m315 213 2 1ZM304 213l2 1ZM451 209l2 1ZM326 199l2 1ZM226 195l2 1Z"/><path fill="#BFBFBF" d="m593 194 2 1Z"/><path fill="#DFDF9F" d="m369 194 2 1Z"/><path fill="#FFF" d="m276 194 2 1ZM273 194l2 1ZM589 193l2 1ZM551 193l2 1ZM516 193l2 1ZM379 193l2 1ZM607 177l2 1ZM581 177l2 1ZM610 175l2 1ZM533 175l2 1Z"/><path fill="#FFFF3F" d="m187 168 2 1Z"/><path fill="#FFD46A" d="m202 164 2 1Z"/><path fill="#FFFFBF" d="m300 159 2 1Z"/><path fill="#BBBBE5" d="m536 157 2 1Z"/><path fill="#FA5" d="m185 156 2 1Z"/><path fill="#FFFFBF" d="m304 149 2 1Z"/><path fill="#FFF" d="m379 145 2 1ZM384 144l2 1ZM698 143l2 1ZM390 143l2 1ZM326 143l2 1Z"/><path fill="#FFFF3F" d="m115 143 2 1Z"/><path fill="#DFB4B4" d="m251 141 2 1Z"/><path fill="#FFDF1F" d="m146 140 2 1Z"/><path fill="#FF0" d="m100 140 2 1Z"/><path fill="#D4D4D4" d="m520 138 2 1Z"/><path fill="#FFF" d="m580 137 2 1Z"/><path fill="#E9E9E9" d="m490 136 2 1Z"/><path fill="#CCCCBA" d="m409 136 2 1Z"/><path fill="#FFF" d="m407 120 2 1Z"/><path fill="#BFBFBF" d="m278 116 2 1ZM275 116l2 1Z"/><path fill="#FF0" d="m184 113 2 1Z"/><path fill="#E5E519" d="m184 105 2 1Z"/><path fill="#3F3F3F" d="m326 87 2 1Z"/><path fill="#FFBF3F" d="m200 85 2 1Z"/><path d="m326 55 2 1ZM326 47l2 1Z"/></svg>