<svg xmlns="http://www.w3.org/2000/svg" width="1174" height="567"><path fill="#032555" d="m610.96 192.978 3.919.143 2.08.072q3.303.116 6.603.245l4.467.158q5.486.195 10.971.404 1.256 2.434 2.5 4.875l1.406 2.742C644 204 644 204 644 206l2 1a141 141 0 0 1 3.5 7.188l.934 2.001c1.78 3.873 3.298 7.734 4.566 11.811h2l.664 1.73c4.26 12.516 4.26 12.516 11.336 23.27l1 3c3.418-5.075 6.209-10.287 8.812-15.812l.952-1.995c1.35-2.911 2.236-4.946 2.236-8.193q1.5-1.5 3-3a135 135 0 0 0 3.285-6.242l.915-1.835a983 983 0 0 0 1.898-3.838q1.441-2.923 2.896-5.839c2.499-5.034 4.917-10.023 7.006-15.246h29v14c-2.047 2.047-6.304 1.7-9 2-1.06 3.178-1.12 5.418-1.114 8.757v3.578l.016 3.864.005 3.956q.006 5.2.024 10.401.014 5.31.02 10.618.016 10.413.049 20.826l9 1c.993 2.979 1.134 5.016 1.125 8.125l.008 2.695C730 286 730 286 729 287a234 234 0 0 1-8.629.098l-2.619-.005c-2.771-.005-5.543-.018-8.315-.03q-2.81-.008-5.623-.014-6.907-.017-13.814-.049v-13l6.934-1.27L699 272c1.21-3.632 1.124-6.951 1.098-10.73l-.005-2.274c-.005-2.395-.018-4.79-.03-7.183q-.009-2.438-.014-4.874-.017-5.97-.049-11.939c-2.333 3.5-4.1 7.186-5.922 10.965l-1.159 2.39a19050.432 19050.432 0 0 1-8.466 17.485l-1.165 2.405A1409 1409 0 0 1 674 287h-11a5677 5677 0 0 1-5.981-12.28q-1.017-2.091-2.038-4.179-1.463-2.999-2.919-6.002l-.927-1.89C649 258.227 649 258.227 649 256l-2-1a96 96 0 0 1-2.438-5.687c-2.021-5.045-2.021-5.045-4.375-9.938C639 237 639 237 639 235l-2-1v2l-.035 2.738c-.085 11.111.432 22.17 1.035 33.262l3.937.438c3.938.437 3.938.437 5.063 1.562v13h-39c0-13 0-13 1-14l9-1v-62h-10c-1.493-2.987-1.132-5.744-1.125-9.062l-.008-3.848c.176-4.083.176-4.083 4.092-4.112"/><path fill="#042554" d="M357 190q13.406-.106 26.81-.155 6.227-.022 12.453-.071 6.02-.048 12.04-.059 2.286-.008 4.57-.032c11-.113 22.282-.088 31.127 7.317 6.146 6.334 7.417 10.743 7.348 19.629-.657 6.366-3.482 10.592-8.036 14.934C441 233 441 233 439 233v2l-2 1 2.773.953 3.602 1.297 3.586 1.266c3.256 1.59 3.87 2.188 5.039 5.484l2 2.813c3.43 5.465 4.652 10.776 4 17.187-1.936 7.583-5.409 12.691-12 17h-2v2h-4l-1 2c-7.559 2.587-15.83 2.355-23.715 2.45l-3.914.065q-4.077.067-8.156.118-5.18.067-10.36.162-5.004.084-10.007.154l-3.71.063c-7.114.083-14.068-.2-21.138-1.012l-2-7h2l-1-3 1-4 12-2-.016-3.716q-.026-6.817-.039-13.636-.008-2.952-.02-5.905c-.013-2.827-.018-5.654-.023-8.481l-.015-2.671v-2.487l-.007-2.187C370 231 370 231 371 228a117 117 0 0 0-.437-6.125A151 151 0 0 1 370 206c-.82.07-1.64.14-2.484.21-8.698.438-8.698.438-11.204-1.546C355.25 203 355.25 203 354 200h2zm38 14v27l9 .188 2.785.082c6.706.067 12.423-.836 17.652-5.395 2.124-3.908 2.78-7.436 2.563-11.875-1.444-3.321-3.315-5.607-6-8-8.52-2.791-17.126-2.14-26-2m0 41v29l10.5.125 3.26.055c6.909.04 13.069-.25 19.115-3.93 3.08-3.26 4.057-5.974 4.191-10.46-.23-4.203-.706-6.32-3.316-9.728-7.357-5.517-15.851-5.211-24.687-5.125z"/><path fill="#032555" d="M837 194c7.15-.077 14.298-.129 21.448-.165q3.64-.022 7.28-.061c25.87-.272 25.87-.272 37.272 3.226v2l1.688.313c2.789.829 4.926 2.03 7.312 3.687v2h2v3h2c3.832 11.221 6.053 20.275.848 31.48-3.515 6.435-7.792 10.456-13.848 14.52a466 466 0 0 0 6 11l1.195 2.254c1.636 2.74 2.987 4.518 6.117 5.39 2.254.265 4.421.39 6.688.356.993 2.979 1.134 5.016 1.125 8.125l.008 2.695C924 286 924 286 923 287c-3.234.41-6.496.517-9.75.688l-2.75.181-2.672.143-2.44.14c-2.893-.184-4.826-.791-7.388-2.152-1.53-1.892-1.53-1.892-2.79-4.176l-1.413-2.51c-.47-.866-.939-1.733-1.422-2.627l-2.852-5.113-1.325-2.42a134 134 0 0 0-3.034-5.134C884 262 884 262 884 260h-2v-2l-10 2v13l4.375-.125c2.46-.07 2.46-.07 4.625.125 2 2 2 2 2.23 4.566l-.043 2.997-.019 3.003C883 286 883 286 882 287c-4.216.394-8.456.476-12.687.625l-3.72.136c-8.313.265-16.316.115-24.593-.761v-13l3.438-.812L848 272c1.025-3.074 1.139-5.212 1.161-8.434l.03-3.367.012-3.637.017-3.732q.014-3.909.02-7.817.008-4.013.041-8.026c.03-3.85.041-7.7.047-11.55l.038-3.636-.01-3.367.011-2.967c-.17-2.515-.17-2.515-1.762-4.288-2.062-1.515-3.263-1.49-5.793-1.367L838 210c-1.502-3.003-1.093-5.79-1.062-9.125l.027-3.883zm34 15v35c6.334 1.584 13.574.953 19.336-2.332 3.926-3.272 6.406-6.263 6.965-11.473.027-7.234-.246-12.053-5.489-17.445-6.784-4.221-12.814-3.75-20.812-3.75"/><path fill="#FCD634" d="M323 246c3.805 2.097 6.701 3.75 8 8 4.205 28.69-.121 61.104-17.473 84.836-16.465 21-37.871 28.444-63.777 31.866-11.563 1.254-22.64-1.81-33.75-4.702v-2h-5v-2c-.85-.23-1.702-.461-2.578-.7-3.974-1.51-6.847-3.517-10.172-6.113l-1.746-1.29c-3.437-2.648-5.286-4.725-6.504-8.897l-1-2c-.503-5.03-.608-7.035 2.125-11.375 3.038-2.774 4.833-3.951 8.875-4.625 5.598 1.553 8.562 5.457 12.402 9.59 2.72 2.522 5.224 3.913 8.598 5.41l2 1v2c17.88 4.794 34.792 5.956 51.344-3.312C289.574 332.09 296.769 318.01 301 301c.623-3.348.874-6.6 1-10 1.236-29.595 1.236-29.595 11-40 3.101-2.39 6.282-3.76 10-5"/><path fill="#032555" d="M797 194c1.075 1.902 1.075 1.902 2.043 4.367l1.064 2.684 1.08 2.824 1.116 2.8C805 213.573 805 213.573 805 217l2 1c.73 1.752.73 1.752 1.408 4.003 1.493 4.736 3.227 9.33 5.06 13.942l.975 2.467q1.012 2.56 2.027 5.118 1.544 3.892 3.08 7.786l1.981 5.004.92 2.324q1.265 3.183 2.549 6.356l.81 2.063c1.262 3.668 1.262 3.668 4.233 5.84L836 273v14q-5.92.252-11.84.482c-1.992.079-3.982.165-5.972.25-7.166.272-14.08.273-21.188-.732-.134-9.107-.134-9.107 1-13l6-1v-7l-2-1v-1h-33l-2 8 2.313-.125C772 272 772 272 775 274c.293 2.82.293 2.82.188 6.125l-.083 3.32L775 286c-4.231 2.065-7.56 2.182-12.234 2.012l-2.057-.069q-2.137-.075-4.276-.164c-2.19-.092-4.38-.166-6.57-.238-10.712-.39-10.712-.39-11.863-1.541a104 104 0 0 1-.187-5.937l-.043-3.278C738 274 738 274 740 272v2l7-1 1.152-3.621c2.198-6.586 4.817-13.004 7.41-19.442l1.59-3.959c4.839-12.038 9.81-24.02 14.848-35.978l-2.59-.184-3.347-.254-3.34-.246C760 209 760 209 759 208c-.099-2.165-.13-4.333-.125-6.5l-.008-3.594C759 195 759 195 760 194c2.484-.172 4.942-.284 7.43-.352l2.26-.07q2.374-.071 4.747-.136 3.632-.103 7.262-.223 2.302-.068 4.606-.133l2.197-.072c3.14-.079 5.49-.017 8.498.986m-12 25-5.652 15.238-2.063 5.563-1.254 3.38Q774.974 246.076 774 249h23c-5.165-15.126-5.165-15.126-11-30z"/><path fill="#032556" d="M572.46 192.488c6.062 1.222 12.376 1.225 18.54 1.512.198 3.562.381 7.125.563 10.688l.17 3.052.146 2.96.143 2.713c-.023 2.655-.418 5.007-1.022 7.587-5.707.993-11.214 1.105-17 1l.195-6.055c-.012-2.184-.012-2.184-2.195-3.945l-1.875-2.062c-3.704-3.378-7.21-3.163-12.156-3.098-2.626.213-4.662.902-6.969 2.16-1.55 3.1-1.29 5.579-1 9 2.984 4.807 6.562 6.628 11.563 8.813l2.037.943c2.959 1.337 5.118 2.244 8.4 2.244v2l2.813.563c8.01 2.3 15.573 7.516 20.187 14.437 3.555 6.856 4.847 12.71 2.813 20.125-2.477 7.264-6.516 12.501-12.813 16.875h-2l-1 2c-11.97 4.617-23.754 4.257-35.986 1.432-6.532-1.43-6.532-1.43-13.014-.432a81 81 0 0 1-4.687.063l-2.45-.028L524 287c-2.125-5.625-2.125-5.625-1-9 .082-1.846.107-3.695.098-5.543l-.01-3.252-.025-3.392-.014-3.428q-.018-4.192-.049-8.385c3.56-1.187 6.438-1.097 10.188-1.062l3.855.027L540 253l.332 2.52.48 3.292.458 3.27c.762 3.045 1.383 3.965 3.73 5.918l1 2h2v2c8.755 1.49 15.788 1.746 24-2 2.486-2.486 2.693-4.543 3.016-7.977-.025-3.233-.869-4.615-3.016-7.023-5.058-4.032-10.671-6.132-16.777-8.105C553 246 553 246 552 244l-3 1v-2l-2.562-.812c-6.315-2.182-10.486-3.626-14.438-9.188l-2-1c-3.845-8.897-5.416-16.561-2.035-25.793 3.194-6.81 8.118-10.575 15.035-13.207 9.327-3.273 19.972-3.095 29.46-.512"/><path fill="#042656" d="m930.074 193.876 2.2.01h2.306c2.526 0 5.053.009 7.58.016l5.242.005q6.912.006 13.825.024 7.047.014 14.095.02 13.839.016 27.678.049c.254 4.29.474 8.582.687 12.875l.221 3.707.166 3.535.175 3.27L1004 220c-3.364 2.242-4.623 2.271-8.563 2.25l-2.94.016C990 222 990 222 988 220c-.577-3.322-.741-6.633-1-10h-10l1 4h-2l.496 3.283c.671 5.396.61 10.752.566 16.182l-.011 3.254q-.019 5.109-.051 10.219-.039 6.764-.063 13.527l-.025 3.156-.01 2.894-.016 2.558c-.1 1.935-.1 1.935 1.114 2.927 2.32.281 4.639.448 6.969.621L987 273c1.322 2.645 1.097 4.678 1.062 7.625l-.027 3.04L988 286c-3.59 1.634-6.315 2.248-10.25 2.188l-3.371-.051c-9.796-.28-19.588-.71-29.379-1.137v-14l8-1c1.2-6.57 1.127-13.05 1.098-19.715l-.005-3.67c-.005-3.85-.018-7.701-.03-11.552q-.008-3.927-.014-7.854-.017-9.605-.049-19.209h-13l-1 10c-5.324 2.32-9.438 1.915-15 1v-5h-2v-2h2l-.108-1.728c-.157-2.57-.306-5.14-.455-7.71l-.17-2.72-.146-2.588-.143-2.396c.046-3.94 2.857-2.976 6.096-2.982"/><path fill="#FBD534" d="M251 215c2.403 1.847 4.397 4.016 6.438 6.25 10.278 11.035 20.131 15.766 35.437 16.54 5.524.372 10.877 1.46 16.125 3.21.1 6.223-.861 9.47-4.937 14.25-9.203 9.392-20.347 11.884-33.09 12.355l-2.679.112c-12.52.47-25.048.543-37.575.578q-4.328.014-8.654.062-5.308.056-10.616.061c-1.976.008-3.953.034-5.93.06l-3.615-.008-3.173.018c-3.438-.614-4.63-1.747-6.731-4.488-.297-4.351 1.436-6.972 4-10.312 3.346-3.563 5.594-4.543 10.414-4.7L209 249c8.214-.214 15.534-.406 22-6 4.168-5.198 5.3-12.316 6.875-18.633C240.34 216.99 243.021 212.68 251 215"/><path fill="#FBD533" d="m250.063 128.625 2.035.414c2.816 1.423 3.587 3.129 4.902 5.961 2.049 11.167.88 21.472-3 32a880 880 0 0 0-2.187 6.375l-1.043 3.023c-.912 2.63-.912 2.63-.77 5.602h-2l-.456 1.879c-2.125 8.284-5.119 16.171-8.232 24.121q-1.514 3.872-3.011 7.75l-1.339 3.422c-1.123 2.803-1.123 2.803-.962 5.828h-2l-.48 1.688c-.757 2.474-1.618 4.887-2.52 7.312l-.75 2.238c-1.412 3.125-2.741 5.13-5.996 6.494C216.705 244.52 210.844 246 205 246v-2h-2c.532-5.327 1.45-9.868 3.3-14.926q.725-2.02 1.446-4.04l.773-2.14c5.29-14.712 9.833-29.572 13.981-44.644l.754-2.737c2.003-7.292 3.991-14.589 5.89-21.909l.54-2.065q.703-2.706 1.396-5.414c2.005-6.81 4.578-13.385 10.92-17.125 2.951-.978 5.036-1.063 8.063-.375"/><path fill="#FBD432" d="m203.375 271.813 2.867-.038c8.592-.018 8.592-.018 12.758 2.225-.528 6.384-2.092 11.704-4.5 17.625l-1.07 2.643C209.099 304.605 203.253 316.212 194 323c-3.124 1.265-4.389 1.16-7.625.313-3.35-1.852-4.774-3.518-5.998-7.173-1.58-6.13-1.16-10.894.248-17.015l.572-2.649c1.844-8.24 3.963-16.439 8.803-23.476 4.423-1.474 8.742-1.184 13.375-1.187"/><path fill="#FCD533" d="M199 212c2.375 1.438 2.375 1.438 4 4 1.154 7.605-1.37 13.857-4.566 20.668l-1.471 3.209a741 741 0 0 1-3.063 6.562c-2.818 6.204-4.521 11.482-4.756 18.318-.202 3.153-1.068 4.88-3.144 7.243-3.059 2.515-5.142 3.86-9.062 4.5-3.649-.621-5.308-1.945-7.938-4.5-3.767-7.535.627-18.476 3-26 12.816-37.152 12.816-37.152 27-34"/><path fill="#071A3B" d="M635.945 317.805 642 318c.934 3.01 1.044 3.867 0 7-2.062 1.188-2.062 1.188-4 2l.688 2.563c.398 4.384-.562 6.61-2.688 10.437-4.103 4-4.103 4-8 4l-1 2h-8l3.875.375q2.565.3 5.125.625l2.684.336c4.133.651 6.68 1.133 9.941 3.851 1.775 3.632 1.937 5.81 1.375 9.813-2.009 4.179-4.155 6.866-8.621 8.457-7.563 1.726-15.598 3.092-22.692-.644-2.957-1.865-4.47-3.515-5.687-6.813.242-3.386.527-6.107 2.125-9.125 1.122-1.922 1.122-1.922.375-4.375-.5-2.5-.5-2.5.54-4.328 1.286-2.909.658-4.389-.165-7.422-1.013-4.921-.726-7.679 1.594-12.094 3.259-3.525 6.608-4.602 11.328-4.879l3.953.16c2.415.093 4.834.13 7.25.063 2-2 2-2 3.945-2.195M617 329c-.583 2.957-.583 2.957 0 6 1.46 2.117 1.46 2.117 4 3 3.62.007 3.62.007 7-1 2.281-2.757 2.281-2.757 1.813-5.562-.647-2.77-.647-2.77-3.813-4.438-4.075-.34-5.53-.313-9 2m-1 15 1 2Zm-2 13c.573 2.867.861 3.861 3 6 6.146 1.665 10.461.946 16-2l-1-5c-3.233-.955-6.197-1.165-9.562-1.187l-2.88-.043c-2.8.046-2.8.046-5.558 2.23"/><path fill="#F9D332" d="m309 112 3 1a108 108 0 0 1 2.313 8.125c1.766 6.611 3.372 11.269 8.687 15.875h2v2l3.43.84 4.445 1.097 2.262.553c5.636 1.397 5.636 1.397 7.863 2.51v2l-3.727 1.137-4.898 1.55-2.45.74c-6.02 1.934-10.318 4.215-14.28 9.32-2.741 5.57-3.795 11.272-4.836 17.374L312 179l-3 1-.516-3.219c-1.911-13.3-1.911-13.3-9.734-23.719-3.853-2.477-7.223-2.765-11.75-3.062-1.34-.302-2.68-.615-4-1v-2l-5-1v-2l3.219-.664c12.563-2.713 12.563-2.713 22.035-11.008 3.556-6.14 4.47-13.441 5.746-20.328"/><path fill="#07234F" d="M695.438 309.625c3.79 2.242 6.135 4.698 8.562 8.375.813 3.375.813 3.375 1 6-2.728 1.325-4.633 2.009-7.687 1.938L695 325a156 156 0 0 1-2-5c-2.537-2.455-4.256-3.012-7.773-2.957-2.758.245-5.487.559-8.227.957v2l-1.375 1.25c-2.991 3.222-3.541 6.846-3.937 11.125.371 4.31 1.654 7.674 3.312 11.625l1 3c4.956 1.876 10.843 1.459 15.938.375 2.892-1.928 3.094-4.124 4.062-7.375 3.937-1.312 6.125-.243 10 1l-2 7h-2l-.75 1.875c-1.456 2.476-2.628 3.076-5.25 4.125v2c-9.475 2.77-17.978 2.57-26.797-2.227-5.215-4.197-7.114-10.913-8.14-17.336-.46-8.055 1.177-14.512 6.359-20.75 7.357-7.867 17.89-10.682 28.015-6.062"/><path fill="#07234C" d="M427.938 322.75c4.647 5.07 5.4 9.416 5.46 16.078L433 341c-3 2-3 2-5.812 1.5-3.688-.578-5.77.117-9.188 1.5v-2h-10c1.098 3.637 1.098 3.637 3.75 6.188 2.756.995 4.608.818 7.5.437l2.703-.336L424 348l1-3c2.313-.687 2.313-.687 5-1 1.813 1.438 1.813 1.438 3 3-4.122 8.091-4.122 8.091-9 10-6.244 1.304-13.126 1.87-19-1-5.452-5.315-7.16-10.275-7.312-17.812.06-7.24 1.483-10.359 6.562-15.438 7.679-4.886 15.93-4.621 23.688 0M408 330l-1 5h17l-1-5h-4l-1-3c-4.238-.363-6.668.316-10 3"/><path fill="#082856" d="M463.152 320.648c3.945 2.35 5.554 6.14 6.848 10.352.442 3.02.554 6.014.625 9.063.168 5.07.4 9.94 1.375 14.937-2.982 2.192-4.43 3.034-8.187 2.813C461 357 461 357 459 355l-1 2c-6.659 1.532-12.109 1.51-18-2-2-3-2-3-2-6l-2-1c2.908-9.183 2.908-9.183 8-12 5.646-1.668 11.137-2.255 17-2-1.01-2.575-1.01-2.575-3-5-3.893-.973-6.179-1.274-10 0l-.937 2c-1.063 2-1.063 2-2.938 3-2.125 0-2.125 0-4.375-1.937L438 330c1.353-4.427 3.233-6.363 7-9 4.916-2.458 12.973-1.912 18.152-.352M447 343c-.25 2.416-.25 2.416 0 5 3.491 2.327 4.892 2.503 9 2 2.835-2.069 3.825-3.357 4.75-6.75L461 341c-7.22-.3-7.22-.3-14 2"/><path fill="#081E41" d="M841.625 321.5c3.972 4.181 7.058 9.63 7.375 15.5a119 119 0 0 1-2 5c-3.604.029-7.208.047-10.812.063l-3.104.025-2.979.01-2.745.016C825 342 825 342 822 341c1.686 4.168 1.686 4.168 4.82 7.207 2.518.916 4.154.911 6.805.606l2.352-.231c2.406-.456 2.406-.456 4.023-3.582 2.343.256 4.678.593 7 1l1 2c-3.054 5.059-5.236 7.834-10.96 9.57-6.073 1.28-11.208.067-17.04-1.57v-2h-2c-5.386-5.876-5.36-10.98-5.273-18.73.52-6.223 2.478-9.71 7.148-13.77 6.523-3.17 15.213-2.705 21.75 0M823 330l-1 5h17c-1.806-3.611-2.914-5.531-6-8-4.145-.744-6.76.39-10 3"/><path fill="#061D42" d="M735.563 321.625c5.221 5.088 6.884 9.072 7.554 16.203C743 340 743 340 741 342c-2.338.227-2.338.227-5.227.195l-3.125-.02-3.273-.05-3.297-.027q-4.039-.036-8.078-.098c1.25 3.653 1.671 4.78 5 7 4.212.468 6.286.466 9.875-1.875 2.165-1.94 2.165-1.94 3.125-4.125h2v3h4c-.214 3.753-.947 4.946-3.625 7.688-4.61 3.47-9.218 4.57-14.937 4.187-5.594-.818-9-3.323-12.813-7.437C709 348 709 348 709 345l-2-1c.432-14.35.432-14.35 5-20 6.638-5.509 15.782-5.924 23.563-2.375M717 332l1 3h15c-.502-4.783-.502-4.783-2.687-6.812-6.034-3.099-9.192-1.037-13.313 3.812"/><path fill="#FCD734" d="m486.25 233.688 3.027-.05c6.301-.003 11.998.553 17.723 3.362 2.812 2.977 3 4.409 3 8.5-1.209 4.231-2.646 5.697-6 8.5-11.2 3.602-26.463 3.314-37-2-2.69-3.027-3-4.496-3-8.562 1.203-4.136 2.373-5.212 6-7.438 5.434-2.516 10.355-2.331 16.25-2.312"/><path fill="#082856" d="m587 318 1 2 2.75.313c4.168.881 5.624 2.386 8.25 5.687 1.408 5.409 1.505 11.006 1.813 16.563l.232 3.154.162 3.037.171 2.76c-.506 3.33-1.747 4.459-4.378 6.486-3.25.25-3.25.25-6 0-.819-6.141-1.032-12.053-.969-18.246-.034-3.001-.38-5.824-1.031-8.754l-4-1v-3l-3.375 1.125-1.898.633c-2.725 1.96-2.988 4.019-3.727 7.242a113 113 0 0 0-.062 8.125c.209 8.444.209 8.444-.938 11.875h-3v2l-5-1-.375-2.437L566 352l-2-1h2v-30l4-2 2.688 1.563c4.3 1.866 6.142.931 10.359-.704A89 89 0 0 0 587 318"/><path fill="#052655" d="m752 319 1.68.473 2.195.59 2.18.597c2.018.551 2.018.551 3.945-.66a113 113 0 0 1 5.875-.125l3.18-.008c2.537.115 4.58.232 6.945 1.133 4.333 6.74 4.149 14.203 4.063 21.938l-.014 2.36q-.02 2.852-.049 5.702l2 1h-2l-.812 2.438L780 357c-3.1 1.033-4.056 1.178-7 0-1.204-3.611-1.065-6.873-1-10.625.058-5.882-.166-11.54-1-17.375q-2.437-.118-4.875-.187l-2.742-.106L761 329c-2.172 3.258-2.222 4.012-2.09 7.746l.06 2.787q.093 2.9.196 5.797l.057 2.791.086 2.545c-.377 2.85-1.438 4.2-3.309 6.334l-4-1-1 2-4-4h2l-1-33h4z"/><path fill="#052759" d="M506 320h8l2 2 1.664-.977c4.276-1.873 8.765-1.559 13.336-1.023 3.547 1.68 5.361 2.742 7.14 6.245.996 3.19 1.087 5.81 1.055 9.15l-.02 3.642-.05 3.776-.027 3.833q-.036 4.678-.098 9.354l-2.875.438c-3.018.391-3.018.391-5.125 1.562-1.282-2.563-1.16-4.473-1.21-7.34-.03-1.063-.058-2.126-.087-3.22a980 980 0 0 1-.133-6.743l-.093-3.224-.06-2.961c-.23-2.537-.23-2.537-1.728-4.338-2.774-1.928-5.421-1.407-8.689-1.174l-3 1-.076 2.28q-.175 5.077-.361 10.158l-.12 3.587-.127 3.409-.11 3.158C515 355 515 355 514 356h-8z"/><path fill="#050F26" d="M925 194h78l1 26c-3.364 2.242-4.623 2.271-8.562 2.25l-2.942.016C990 222 990 222 988 220c-.577-3.322-.741-6.633-1-10h-10l1 4h-2l.496 3.283c.671 5.396.61 10.752.567 16.182l-.012 3.254q-.019 5.109-.051 10.219-.04 6.764-.062 13.527l-.026 3.156-.01 2.894-.016 2.558c-.1 1.935-.1 1.935 1.114 2.927 2.32.281 4.639.448 6.969.621L987 273c1.322 2.645 1.097 4.678 1.063 7.625l-.028 3.04L988 286c-3.59 1.634-6.315 2.248-10.25 2.188l-3.371-.051c-9.796-.28-19.588-.71-29.379-1.137v-13h7v1h-6v10h39v-10l-5.957.195C977 275 977 275 974 273c-1.093-3.279-1.12-5.673-1.114-9.124v-3.821l.016-4.13.005-4.224q.006-5.556.024-11.111.014-5.67.02-11.342.016-11.124.049-22.248c3.21-1.07 5.689-1.2 9.063-1.25l3.222-.078L988 206c2.923 4.385 2.136 7.777 2 13h11v-23l-76 1z"/><path fill="#05122A" d="M640.364 196.282c1.89 3.14 2.687 6.193 3.636 9.718l2 1a141 141 0 0 1 3.5 7.188l.934 2.001c1.78 3.873 3.298 7.734 4.566 11.811h2l.664 1.73c4.26 12.516 4.26 12.516 11.336 23.27l1 3c3.418-5.075 6.209-10.287 8.813-15.812l.95-1.995c1.35-2.911 2.237-4.946 2.237-8.193q1.5-1.5 3-3a135 135 0 0 0 3.285-6.242l.915-1.835a983 983 0 0 0 1.898-3.838q1.441-2.923 2.896-5.839c2.499-5.034 4.917-10.023 7.006-15.246h29v14c-2.047 2.047-6.304 1.7-9 2-1.052 3.155-1.109 5.323-1.082 8.633l.02 3.499.035 3.778.037 7.873q.035 6.225.086 12.45c.032 3.997.048 7.993.064 11.99l.04 3.784.011 3.49.023 3.08C720 271 720 271 718 273c-1.352-2.704-1.15-4.843-1.177-7.87l-.039-3.733q-.012-2.025-.022-4.05l-.013-2.055q-.03-5.384-.044-10.767c-.011-3.71-.046-7.42-.085-11.13-.026-2.852-.035-5.702-.038-8.553a412 412 0 0 0-.035-4.104 381 381 0 0 1-.017-5.738l-.018-3.299C717 209 717 209 718.826 207.137c2.832-1.481 5.026-1.352 8.174-1.137v-10l-24 1a10993 10993 0 0 0-8.063 16.016q-1.37 2.724-2.744 5.447-1.974 3.915-3.94 7.834l-1.243 2.456-1.152 2.305-1.016 2.018c-.856 1.956-1.386 3.842-1.842 5.924h-2l-1.062 3.688c-2.145 6.463-5.365 12.526-8.938 18.312l-2 1-1.37-2.742q-5.264-10.535-10.544-21.06-2.75-5.482-5.497-10.965l-2.83-5.64q-2.078-4.14-4.154-8.284l-1.269-2.523-1.195-2.39-1.037-2.067c-1.455-3.07-2.766-6.207-4.104-9.329l-28-1 1 11h-2v-12q6.296-.4 12.598-.702a328 328 0 0 0 4.283-.248c2.055-.13 4.109-.228 6.166-.32l3.745-.206c3.208.476 3.208.476 5.572 2.758"/><path fill="#082450" d="M801 311c.976 2.928 1.082 4.956 1 8l2.813.438C808 320 808 320 811 321v7c-6.75 1.125-6.75 1.125-9 0a858 858 0 0 0-.125 7.688c-.017.72-.034 1.442-.05 2.185-.039 4.176.296 7.376 2.175 11.127h7c.188 3.375.188 3.375 0 7-3.895 2.596-6.04 2.163-10.55 1.61-3.636-.905-5.293-2.618-7.45-5.61-.975-2.963-1.118-5.659-1.098-8.766l.01-2.695.025-2.789.014-2.836q.018-3.458.049-6.914l-5 2c-1-1-1-1-1.098-2.848L786 321c2-1 2-1 6 0v-9c3.196-1.065 5.657-1.074 9-1"/><path fill="#082047" d="M363 309h9q.255 5.92.482 11.84c.079 1.992.165 3.982.25 5.973l.147 3.867.143 3.523c-.027 4.611-.563 9.208-1.022 13.797h23v7c-1.846 1.846-4.858 1.218-7.336 1.281l-3.914.114-4.125.105q-4.012.102-8.023.219l-3.615.092c-3.04.065-3.04.065-5.987 1.189z"/><path fill="#040E21" d="M797 194c1.075 1.902 1.075 1.902 2.043 4.367l1.064 2.684 1.08 2.824 1.116 2.8C805 213.573 805 213.573 805 217l2 1c.73 1.752.73 1.752 1.408 4.003 1.493 4.736 3.227 9.33 5.06 13.942l.975 2.467q1.012 2.56 2.027 5.118 1.544 3.892 3.08 7.786l1.981 5.004.92 2.324q1.265 3.183 2.549 6.356l.81 2.063c1.262 3.668 1.262 3.668 4.233 5.84L836 273v14q-5.92.252-11.84.482c-1.992.079-3.982.165-5.972.25-7.166.272-14.08.273-21.188-.732 3.643-2.429 6.307-2.257 10.512-2.195l2.206.008c2.324.011 4.646.037 6.97.062q2.364.016 4.728.027 5.792.035 11.584.098v-10l-2.75.25c-3.25-.25-3.25-.25-5.28-1.826-2.385-2.934-3.548-5.934-4.755-9.463l-1.555-4.33-.817-2.294c-1.427-3.956-2.948-7.875-4.464-11.798l-2.856-7.42a16025 16025 0 0 1-4.77-12.392l-.933-2.43q-2.401-6.24-4.852-12.462l-.987-2.513q-.934-2.373-1.877-4.745C795 198.223 795 198.223 795 196h-33l-1 10 4.813-.25c2.707-.14 2.707-.14 5.187.25 1.887 1.766 1.887 1.766 3 4-.562 3.362-1.889 6.485-3.11 9.656l-1.288 3.352-1.352 3.492-1.305 3.398c-2.153 5.582-4.339 11.151-6.586 16.696l-1.157 2.865c-1.166 2.464-2.486 4.432-4.202 6.541.555-5.03 1.68-9.246 3.582-13.93l.774-1.923c.812-2.01 1.634-4.016 2.457-6.022l1.619-4.012c2.734-6.76 5.554-13.472 8.568-20.113l-2.59-.184-3.347-.254c-1.103-.08-2.205-.162-3.34-.246C760 209 760 209 759 208c-.099-2.165-.13-4.333-.125-6.5l-.008-3.594C759 195 759 195 760 194c2.484-.172 4.942-.284 7.43-.352l2.26-.07q2.374-.071 4.747-.136 3.632-.103 7.262-.223 2.302-.068 4.606-.133l2.197-.072c3.14-.079 5.49-.017 8.498.986"/><path fill="#040F24" d="M900 197h3v2l1.688.313c2.789.829 4.926 2.03 7.312 3.687v2h2v3h2c3.832 11.221 6.053 20.275.848 31.48-3.515 6.435-7.792 10.456-13.848 14.52a466 466 0 0 0 6 11l1.195 2.254c1.636 2.74 2.987 4.518 6.117 5.39 2.254.265 4.421.39 6.688.356.993 2.979 1.134 5.016 1.125 8.125l.008 2.695C924 286 924 286 923 287c-3.234.41-6.496.517-9.75.688l-2.75.181-2.672.143-2.44.14c-2.893-.184-4.826-.791-7.388-2.152-1.53-1.892-1.53-1.892-2.79-4.176l-1.413-2.51c-.47-.866-.939-1.733-1.422-2.627l-2.852-5.113-1.325-2.42a134 134 0 0 0-3.034-5.134C884 262 884 262 884 260h-2v-2l-10 2-.375 4.875c-.375 4.875-.375 4.875-2.625 7.125v-16c3.004-.751 5.399-1.238 8.438-1.375l2.246-.148c3.578.808 4.985 2.748 7.316 5.523 1.47 2.344 2.705 4.775 3.938 7.25a2546 2546 0 0 0 2.136 3.992 63 63 0 0 1 3.07 6.703c1.352 2.972 2.088 4.263 4.856 6.055 6.567 1.361 13.329 1.156 20 1v-10l-3.687.313c-3.321.28-4.17-.193-6.786-2.391-2.75-3.18-5.04-6.434-7.277-9.985l-1.207-1.853c-1.884-2.954-3.52-5.583-4.043-9.084l1.977-.996 2.648-1.441 2.602-1.372c4.748-3.752 8.18-8.015 9.312-14.073.193-3.124.183-6.177.086-9.305l.02-3.194c-.087-6.229-.68-9.793-4.645-14.619v-2l-1.562-.75c-3.21-1.646-6.314-3.448-9.438-5.25z"/><path fill="#0B1E3E" d="m483.156 319.277 2.344.66c3.72 1.04 3.72 1.04 7.5.063 2.333-.04 4.667-.044 7 0 .625 3.375.625 3.375 1 7-2.313 2.313-3.479 2.496-6.625 3.125l-2.477.508L490 331c-2.635 7.906-2.18 15.769-2 24l-3 1v2c-5.875-.875-5.875-.875-7-2-.126-2.57-.189-5.112-.203-7.684l-.017-2.335q-.014-2.45-.02-4.9a862 862 0 0 0-.072-7.513q-.01-2.376-.016-4.752l-.038-2.279c.01-2.113.01-2.113.366-5.537 3-2 3-2 5.156-1.723"/><path fill="#070B1C" d="M863 321c2.21.105 2.21.105 5-1a65 65 0 0 1 4.188-.062L876 320c1.6 3.2.032 5.723-1 9l-1.898.227-2.477.398-2.46.352c-2.414.87-2.414.87-3.45 3.562-.859 4.157-.897 7.985-.778 12.211.182 8.011.182 8.011-.937 10.25-3.833 2.697-4.795 1.868-10 1l1-37c3.187-1.593 5.711.002 9 1"/><path fill="#06122A" d="M574 193c2.867.091 5.703.238 8.563.438l2.443.158q2.997.196 5.994.404c.198 3.562.381 7.125.563 10.688l.17 3.052.146 2.96.143 2.713c-.023 2.655-.418 5.007-1.022 7.587-5.707.993-11.214 1.105-17 1l.195-6.055c-.012-2.184-.012-2.184-2.195-3.945l-1.875-2.062c-3.704-3.378-7.21-3.163-12.156-3.098-2.626.213-4.662.902-6.969 2.16-1.55 3.1-1.29 5.579-1 9 2.984 4.807 6.562 6.628 11.563 8.813l2.037.943c2.959 1.337 5.118 2.244 8.4 2.244v2l2.813.563c8.01 2.3 15.573 7.516 20.187 14.437 3.32 6.404 5.002 12.882 3 20h-1l-.734-3.29-1.016-4.335-.477-2.16c-2.056-8.62-6.461-13.497-13.773-18.215-5.433-3.158-11.3-5.387-17.098-7.777-13.563-5.714-13.563-5.714-17.777-12.036-1.348-3.82-.986-6.273-.125-10.187h2v-2c4.387-3.656 9.469-4.14 15-4 4.314.813 7.83 2.19 11.438 4.688 2.231 3.302 2.782 6.41 3.562 10.312l11 1v-23l-6.875.125c-3.867.07-3.867.07-7.125-.125l-2-2z"/><path fill="#05142D" d="m634 226 2 4 2-2c6.784 13.402 13.418 26.88 19.5 40.617l1.237 2.788q1.182 2.677 2.345 5.362l1.07 2.428.938 2.157c.81 1.834.81 1.834 2.91 2.648 2 .04 4 .043 6 0l1.098-2.396a5096 5096 0 0 1 4.127-8.963q.885-1.923 1.768-3.848c3.712-8.1 7.612-16.036 12.007-23.793l2 1c-2.348 8.028-5.91 15.384-9.58 22.869a1606 1606 0 0 0-3.147 6.463q-.999 2.053-2 4.106l-.95 1.953c-2.206 4.492-2.206 4.492-3.323 5.609-1.853.072-3.708.084-5.562.063l-3.067-.028L663 287a5677 5677 0 0 1-5.981-12.28q-1.017-2.091-2.038-4.179-1.464-2.999-2.918-6.002l-.928-1.89C649 258.227 649 258.227 649 256l-2-1a96 96 0 0 1-2.437-5.687c-2.022-5.045-2.022-5.045-4.375-9.938C639 237 639 237 639 235l-2-1v2l-.035 2.738c-.06 7.867.093 15.714.41 23.575.03.925.062 1.85.094 2.803l.117 2.622.095 2.345c.167 2.153.167 2.153 2.319 3.917-2.437-.375-2.437-.375-5-1-1.176-2.352-1.12-3.737-1.114-6.358v-2.73l.016-2.951.005-3.018c.005-3.19.018-6.379.03-9.568q.009-3.239.014-6.477.017-7.95.049-15.898"/><path fill="#091934" d="M572 192v2l-2.136.028c-3.247.055-6.493.138-9.739.222l-3.36.043c-7.823.23-15.764.977-21.735 6.544-4.32 4.852-5.203 7.83-5.28 14.413l-.078 3.953c.632 7.318 4.243 11.338 9.629 15.926 3.794 2.63 7.74 4.015 12.078 5.527 4.175 1.55 8.13 3.376 12.121 5.344l2.031.97c5.394 2.692 9.09 5.962 12.469 11.03.47 4.776.47 7.059-1.687 11.375-2.379 2.7-3.888 3.674-7.313 4.625l2.438-2.5c3.144-3.79 3.562-6.597 3.562-11.5-1.831-5.25-6.229-7.626-11-10a166 166 0 0 0-8.777-3.105C553 246 553 246 552 244l-3 1v-2l-2.562-.812c-6.315-2.182-10.486-3.626-14.438-9.188l-2-1c-3.845-8.897-5.416-16.561-2.035-25.793 3.194-6.81 8.118-10.575 15.035-13.207 9.173-3.219 19.536-2.82 29-1"/><path fill="#050E25" d="M357 190q13.406-.106 26.81-.155 6.227-.022 12.453-.071 6.02-.048 12.04-.059 2.286-.008 4.57-.032c11-.113 22.282-.088 31.127 7.317 6.148 6.337 7.387 10.733 7.367 19.613-.534 4.924-2.499 8.423-5.367 12.387h-4l1.094-1.582c4.586-7.274 5.005-13.47 3.156-21.793-2.975-6.248-6.218-8.384-12.52-10.828-5.421-1.582-10.869-1.926-16.491-2.002l-3.942-.06-4.2-.051-4.341-.063q-5.685-.082-11.368-.153-5.813-.077-11.624-.161-11.382-.162-22.764-.307v10h11v3c-4.092.992-7.805 1.534-12 1-2.437-3-2.437-3-4-6h2z"/><path fill="#09152D" d="M557 321v35c-3 1-3 1-9 0v-31h-2v-2h2v-2c3.676-.919 5.164-.959 9 0"/><path fill="#A48914" d="M200 250c0 3 0 3-1.437 5.375-1.58 2.653-2.045 4.62-2.563 7.625l3.441-.013q16.026-.06 32.05-.09 8.24-.015 16.479-.048 7.945-.032 15.892-.039 3.037-.004 6.074-.021c2.828-.015 5.655-.017 8.483-.016l2.557-.022c5.796.02 5.796.02 8.024 2.249-6.038 1.522-11.81 2.376-18.027 2.605l-2.679.112c-12.52.47-25.048.543-37.575.578q-4.328.014-8.654.062-5.308.056-10.616.061c-1.976.008-3.953.034-5.93.06l-3.615-.008-3.173.018c-3.438-.614-4.63-1.747-6.731-4.488-.318-4.66 1.636-7.009 4.563-10.375A230 230 0 0 1 200 250"/><path fill="#ECC317" d="M237 133c.688 1.563.688 1.563 1 4-.686 1.707-1.382 3.412-2.163 5.078-1.401 3.217-2.152 6.579-2.962 9.984l-.512 2.065c-.96 3.937-1.75 7.867-2.363 11.873h-2l-.227 3.598c-.772 6.863-3.033 13.294-5.148 19.84l-1.324 4.166q-1.763 5.54-3.55 11.071-1.151 3.568-2.3 7.138A8888 8888 0 0 1 206 241l2.738-.07 3.575-.055 3.55-.07C219 241 219 241 222 243q-3.405.755-6.812 1.5l-3.833.844C208 246 208 246 205 246v-2h-2c.532-5.327 1.45-9.868 3.3-14.926q.725-2.02 1.446-4.04l.773-2.14c5.29-14.712 9.833-29.572 13.981-44.644l.754-2.737c2.002-7.289 3.996-14.58 5.88-21.9l.535-2.062q.696-2.7 1.38-5.402c1.414-4.685 3.52-8.915 5.951-13.149"/><path fill="#07142D" d="M734.172 320.8c1.64 1.012 1.64 1.012 3.828 3.2v3l-2.187-1.437c-5.183-2.88-10.969-3.304-16.813-2.563-3.433 1.685-5.393 2.81-7.14 6.238-.996 3.2-1.16 5.913-1.173 9.262l-.05 3.344c.403 3.505 1.277 5.34 3.363 8.156 5.3 3.806 10.505 4.775 17 4 2.818-1.389 2.818-1.389 5-3h2l-1-2c-3.545 1.398-3.545 1.398-7 3-2 .04-4 .043-6 0v-1l2.688-.75c3.992-1.507 7.353-3.331 9.312-7.25h2v3h4c-.214 3.753-.947 4.946-3.625 7.688-4.61 3.47-9.218 4.57-14.937 4.187-5.594-.818-9-3.323-12.813-7.437C709 348 709 348 709 345l-2-1c.432-14.35.432-14.35 5-20 6.102-5.063 14.68-5.961 22.172-3.2m-1.485 6.012c2.585 2.446 3.023 3.706 3.313 7.188h-3l-1.187-2.312c-2.629-3.897-5.383-4.308-9.813-5.688v-2c4.714-1.683 6.746.154 10.688 2.813"/><path fill="#072858" d="m728 322-2 2h-4l1 3-2.312-.312c-2.872.025-2.872.025-4.563 2.5-1.288 3.22-.93 4.53-.125 7.812l3.43-.07q2.222-.029 4.445-.055l2.262-.05c1.955-.018 3.91.072 5.863.175l2 2-18 1c-1.358 2.967-1.358 2.967.125 5.625 1.646 2.537 1.646 2.537 4.188 3.125L723 349l3.125.563c4.358.663 6.871.168 10.875-1.563l1 3c-5.131 3.421-8.815 5-15 4-5.222-1.682-8.402-3.873-12-8-2.616-5.232-1.579-13.167.125-18.562 4.819-6.265 9.43-7.034 16.875-6.438"/><path fill="#091830" d="m800 311 2 1v7l2.813.438C808 320 808 320 811 321v7c-6.75 1.125-6.75 1.125-9 0a858 858 0 0 0-.125 7.688c-.017.72-.034 1.442-.05 2.185-.039 4.176.296 7.376 2.175 11.127h7c.188 3.375.188 3.375 0 7-3.895 2.596-6.04 2.165-10.55 1.605-3.67-.907-5.303-2.558-7.45-5.605-1.528-4.85-.887-9.815-.562-14.812l.158-2.678q.195-3.255.404-6.51h1l.152 2.08c.231 3.099.477 6.197.723 9.295l.238 3.273.254 3.125.222 2.889c.213 2.523.213 2.523 2.411 4.338 2.433.462 2.433.462 5.125.625l2.758.227L808 354v-2l-2.812.188C802 352 802 352 800.319 350.82c-1.795-2.478-1.662-4.105-1.612-7.145l.03-3.115c.024-1.072.05-2.144.076-3.248l.04-3.284q.054-4.015.147-8.029h9v-4h-9a758 758 0 0 1-.062-4.937l-.036-2.778C799 312 799 312 800 311"/><path fill="#071430" d="M840.133 320.73c3.274 2.016 5.411 4.76 6.867 8.27-.312 2.813-.312 2.813-1 5a175 175 0 0 1-3.937-6.187L840 325h-3l2 3.375c2 3.375 2 3.375 2 5.625-4.645-1.507-4.645-1.507-6.437-4-2.12-2.714-4.304-3.13-7.563-4l1-2h5v-2c-7.546.397-7.546.397-14 4-3.586 5.07-3.555 10.025-3 16 1.006 4.528 2.365 7.092 6 10 3.875 2.103 7.687 2.365 12.012 2.656C836 355 836 355 838 357c-6.273 2.091-11.84.73-18-1v-2h-2c-5.386-5.876-5.36-10.98-5.273-18.73.52-6.223 2.478-9.71 7.148-13.77 5.854-2.844 14.167-2.856 20.258-.77"/><path fill="#B09318" d="M329 251c7.968 11.953 3.073 37.779.61 51.115-2.006 9.46-5.57 18.147-9.61 26.885h-3c.582-4.776 2.02-8.628 4-13l1-3h3l-.125-3.687c-.006-3.799.405-7.325 1.063-11.063 2.171-13.183 2.252-26.76 2.025-40.097-.064-4.95-.064-4.95 1.037-7.153"/><path fill="#081531" d="M608 345h2l1 6 1.988.168q4.444.379 8.887.77l3.129.263 2.988.264 2.761.238C633 353 633 353 635 354l-1 4-2.312-1c-5.754-1.56-11.987-1.9-17.688 0 1.074 2.544 1.074 2.544 3 5 2.934 1.032 2.934 1.032 6.188 1.313l3.292.425L629 364v1q-3.156.039-6.312.063l-3.551.035C616 365 616 365 613 364l-.375-2.937L612 358l-2-1h2l1-3-4 2c-.417 3.374-.417 3.374 0 7 4.252 3.705 8.835 3.473 14.188 3.563 8.556.181 8.556.181 10.812 2.437-6.37 2.123-14.431 3.113-20.918 1.09-3.94-2.102-6.495-3.788-8.082-8.09.242-3.386.527-6.107 2.125-9.125 1.196-2.562.527-4.193-.125-6.875z"/><path fill="#061732" d="M392 202c3.937-.058 7.875-.094 11.813-.125l3.392-.05 3.252-.02 3-.032C416 202 416 202 419 204c-5.452.977-10.428.973-15.937.563L395 204v27l9-.312 2.785-.076c6.262-.276 12.393-.933 17.14-5.44 1.306-2.64 1.813-5.015 2.262-7.922.16-.985.318-1.97.481-2.984L427 212l2 1c.336 5.48-.355 9.167-3 14-4.43 4.097-7.657 6.255-13.727 6.23l-3.375-.005-3.523-.037-3.547-.002c-8.688-.046-8.688-.046-9.828-1.186-.088-2.219-.107-4.44-.098-6.66l.005-2.014c.005-2.13.018-4.259.03-6.388q.009-2.161.014-4.323.017-5.307.049-10.615"/><path fill="#05122A" d="M787 216q2.784 6.991 5.554 13.99.945 2.38 1.892 4.76 1.359 3.416 2.71 6.836l.862 2.156C800 248.772 800 248.772 800 251c-3.238 1.08-5.578 1.114-8.98 1.098l-3.526-.01-3.682-.025-3.716-.014A3144 3144 0 0 1 771 252l-1-2a153 153 0 0 1 3.313-8.312l1.925-4.551.925-2.163c.98-2.311 1.918-4.638 2.837-6.974h3c-1.928 6.866-4.27 13.41-7 20h21l-10-26-3 3c-.8-3.287-1.097-4.71 0-8 2-1 2-1 4-1"/><path fill="#030B1E" d="M640.364 196.282c1.89 3.14 2.687 6.193 3.636 9.718l2 1a141 141 0 0 1 3.5 7.188l.934 2.001c1.78 3.873 3.298 7.734 4.566 11.811h2l.664 1.73c4.26 12.516 4.26 12.516 11.336 23.27.398 1.988.738 3.99 1 6l-2 1-1.387-2.777q-5.179-10.364-10.374-20.719-2.612-5.207-5.223-10.416-1.341-2.675-2.684-5.349a7467 7467 0 0 1-3.945-7.868l-1.203-2.39-1.134-2.268-.984-1.96c-1.441-3.045-2.739-6.156-4.066-9.253l-28-1 1 11h-2v-12q6.296-.4 12.598-.702a328 328 0 0 0 4.283-.248c2.055-.13 4.109-.228 6.166-.32l3.745-.206c3.208.476 3.208.476 5.572 2.758"/><path fill="#081630" d="m797 194-2 4v-2h-33l-1 10 4.813-.25c2.707-.14 2.707-.14 5.187.25 1.887 1.766 1.887 1.766 3 4-.562 3.362-1.889 6.485-3.11 9.656l-1.288 3.352-1.352 3.492-1.305 3.398c-2.153 5.582-4.339 11.151-6.586 16.696l-1.157 2.865c-1.166 2.464-2.486 4.432-4.202 6.541.555-5.03 1.68-9.246 3.582-13.93l.774-1.923c.812-2.01 1.634-4.016 2.457-6.022l1.619-4.012c2.734-6.76 5.554-13.472 8.568-20.113l-2.59-.184-3.347-.254c-1.103-.08-2.205-.162-3.34-.246C760 209 760 209 759 208c-.099-2.165-.13-4.333-.125-6.5l-.008-3.594C759 195 759 195 760 194c2.484-.172 4.942-.284 7.43-.352l2.26-.07q2.374-.071 4.747-.136 3.632-.103 7.262-.223 2.302-.068 4.606-.133l2.197-.072c3.14-.079 5.49-.017 8.498.986"/><path fill="#081734" d="M461 320c2.644 1.048 3.91 2.032 6 4l-2 2-2.125-1.477c-3.248-1.72-5.227-1.926-8.875-1.898l-3.062-.023c-3.36.455-5.25 1.353-7.938 3.398l-1 3h3v-2l3-1 1-1c1-1 1-1 2.848-1.098L458 324v2l4 2q.118 2.686.188 5.375l.105 3.023L462 339c-3.285 2.19-4.831 2.353-8.687 2.625l-3.012.227L448 342v-3l3-1-1-3c3.674-1.176 7.17-1.074 11-1-1.01-2.575-1.01-2.575-3-5-3.893-.973-6.179-1.274-10 0l-.937 2c-1.063 2-1.063 2-2.938 3-2.125 0-2.125 0-4.375-1.937L438 330c1.353-4.427 3.233-6.363 7-9 4.637-2.318 10.954-1.44 16-1"/><path fill="#0C1B39" d="m767.875 319.875 3.18-.008c2.537.115 4.58.232 6.945 1.133 4.333 6.74 4.149 14.203 4.063 21.938l-.014 2.36q-.02 2.852-.049 5.702l2 1h-2l-.812 2.438L780 357c-3.1 1.033-4.056 1.178-7 0-.958-2.875-1.067-4.29-.879-7.23l.147-2.432.17-2.526.158-2.56q.196-3.126.404-6.252h1c.832 5.72 1.12 11.222 1 17h3c-.052-4.251-.147-8.5-.25-12.75l-.043-3.656-.098-3.516-.063-3.237c-.673-3.503-1.752-4.684-4.546-6.841-5.37-1.418-8.91-.766-14 1l1-3c2.702-1.351 4.86-1.132 7.875-1.125"/><path fill="#051024" d="M530 320c3.603 1.441 5.607 2.366 7.68 5.711 1.424 3.547 1.667 5.979 1.613 9.781l-.03 3.633c-.024 1.238-.05 2.475-.076 3.75l-.04 3.82A1081 1081 0 0 1 539 356l-2.875.438c-3.018.391-3.018.391-5.125 1.562-1.282-2.563-1.16-4.473-1.21-7.34-.03-1.063-.058-2.126-.087-3.22a980 980 0 0 1-.133-6.743l-.093-3.224-.06-2.961c-.231-2.537-.231-2.537-1.728-4.342-2.746-1.902-5.45-1.344-8.689-1.17h-3l1-3q2.938.172 5.875.375c1.09.07 2.181.14 3.305.21C529 327 529 327 531 329c1.03 3.018 1.117 5.813 1.098 8.984l-.01 2.832-.025 2.934-.014 2.98q-.018 3.636-.049 7.27h4c-.08-4.25-.194-8.5-.312-12.75l-.069-3.656-.107-3.516-.08-3.237c-.482-3.173-1.224-4.549-3.432-6.841-2.585-1.268-2.585-1.268-5-2z"/><path fill="#0C182B" d="M364 318h1v36h27v-4h-22v-16h2c1 4 1 4 0 14h23v7c-1.846 1.846-4.858 1.218-7.336 1.281l-3.914.114-4.125.105q-4.012.102-8.023.219l-3.615.092c-3.04.065-3.04.065-5.987 1.189q-.062-3.5 0-7l1-1c.16-2.373.26-4.721.316-7.098l.063-2.148q.097-3.408.183-6.817l.131-4.61q.161-5.663.307-11.327"/><path fill="#A18719" d="M504 236c2.33.932 3.759 1.69 5.313 3.688 1.032 3.472.605 5.825-.313 9.312-4.515 5.502-8.21 6.032-15.023 6.785-9.373.507-18.449.516-26.977-3.785-2.741-3.084-3.018-4.477-2.875-8.625.832-3.21 1.178-4.54 3.875-6.375h2v2h-2v12l2.875-.562C474 250 474 250 476 251c3.37.241 6.748.185 10.125.188l2.805.037c6.33.013 12.3-.34 18.07-3.225v-9l-3-1z"/><path fill="#082859" d="M618 351q4.406-.118 8.813-.187l2.525-.077 2.432-.029 2.237-.048c2.583.442 3.435 1.264 4.993 3.341.504 3.34.733 5.781-1.055 8.754-1.78 2.186-3.404 3.975-5.945 5.246a183 183 0 0 1-8.812-.25l-2.448-.082c-5.105-.26-8.955-.883-12.74-4.668-.473-6.389-.473-6.389 1.5-8.937L611 353l3 1-1.062 1.625c-1.225 3.103-.57 5.153.062 8.375q3.124.079 6.25.125l3.516.07c3.104-.187 4.64-.589 7.234-2.195l2-1a530 530 0 0 0 1-5l2-2-17-2z"/><path fill="#080F21" d="m478 321 4 1h-2v32h5c-.01-.64-.02-1.28-.032-1.94-.041-2.916-.067-5.832-.093-8.748-.017-1.007-.034-2.014-.05-3.052l-.02-2.96-.032-2.713c.256-2.914.85-5.005 2.227-7.587 3.125-.812 3.125-.812 6-1v2h6v1l-9 2c-2.635 7.906-2.18 15.769-2 24l-3 1v2c-5.875-.875-5.875-.875-7-2-.089-2.594-.115-5.16-.098-7.754l.005-2.35c.005-2.486.018-4.972.03-7.459q.009-2.522.014-5.044.017-6.197.049-12.393"/><path fill="#000108" d="M754 257c1.498 2.996.34 4.75-.687 7.875l-1.012 3.18c-1.38 3.122-2.659 4.81-5.301 6.945-3.25.75-3.25.75-6 1l-1 9h32v-9l-7-1v-1h6l1-2 3 2c.293 2.82.293 2.82.188 6.125l-.083 3.32L775 286c-4.231 2.065-7.56 2.182-12.234 2.012l-2.057-.069q-2.137-.075-4.276-.164c-2.19-.092-4.38-.166-6.57-.238-10.712-.39-10.712-.39-11.863-1.541a104 104 0 0 1-.187-5.937l-.043-3.278C738 274 738 274 740 272v2l7-1c.182-.58.364-1.16.55-1.758 3.698-11.49 3.698-11.49 6.45-14.242"/><path fill="#062859" d="m618.066 321.902 2.496.036 2.504.027L625 322l-1.832.906c-4.863 2.207-4.863 2.207-8.168 6.094-.38 3.503-.402 5.363 1.5 8.375 3.506 2.28 6.429 2.443 10.5 1.625 2.627-1.46 2.627-1.46 4-4 .333-3 .333-3 0-6v-4l3-1c.396 1.515.766 3.038 1.125 4.563l.633 2.566c.308 3.648-.608 6.425-1.758 9.871a749 749 0 0 1-7.687.625l-2.186.195c-4.25.31-7.345.212-11.127-1.82-2.85-2.556-3.009-4.069-3.5-7.937.113-3.553.497-4.06 2.938-7L615 323c1-1 1-1 3.066-1.098"/><path fill="#07295C" d="M856 322c6 1 6 1 8 3l1 3-2 1c-1.024 2.963-1.183 5.869-1.316 8.984l-.127 2.832-.12 2.934-.13 2.98q-.159 3.636-.307 7.27h-5z"/><path fill="#0B162C" d="M925 194h78v20h-1v-18l-77 1z"/><path fill="#06152D" d="M506 320h8l-2 4-5-1 1 3c.083 2.138.107 4.278.098 6.418l-.01 3.799-.026 3.97q-.008 2.004-.013 4.006-.018 4.904-.049 9.807h4l-.048-1.972a1094 1094 0 0 1-.14-8.84l-.076-3.104-.029-2.979-.048-2.745c.402-2.784 1.178-3.636 3.341-5.36.8 3.456 1.084 6.507.914 10.047l-.133 2.808-.156 2.895-.133 2.941c-.361 7.178-.361 7.178-1.492 8.309h-8z"/><path fill="#050F26" d="m752 319 6 2-2 4-1-2h-5l1 2c.085 2.105.107 4.213.098 6.32l-.01 3.809-.025 3.996q-.008 2.01-.014 4.02-.018 4.928-.049 9.855l4 1v-21l3-1a824 824 0 0 1 .688 10.25l.22 2.934.166 2.832.175 2.602c-.305 2.915-1.332 4.218-3.249 6.382l-4-1-1 2-4-4h2l-1-33h4z"/><path fill="#030916" d="M975 272c1.98.113 3.959.241 5.938.375 1.102.07 2.204.14 3.34.21.898.138 1.796.274 2.722.415 1.322 2.645 1.097 4.678 1.063 7.625l-.028 3.04L988 286c-3.59 1.634-6.315 2.248-10.25 2.188l-3.371-.051c-9.796-.28-19.588-.71-29.379-1.137v-13h7v1h-6v10h39v-10c-1.918.03-1.918.03-3.875.063-3.875.062-3.875.062-6.125-1.063z"/><path fill="#061125" d="M539 236c4.884 1.452 9.384 3.504 13.992 5.645 3.055 1.376 6.144 2.618 9.258 3.855 5.832 2.42 10.563 4.89 14.688 9.813 1.433 3.625 1.732 6.88 1.062 10.687-1.851 3.702-3.035 5.518-6.75 7.375L569 274l2.438-2.5c3.144-3.79 3.562-6.597 3.562-11.5-1.831-5.25-6.229-7.626-11-10a166 166 0 0 0-8.777-3.105C553 246 553 246 552 244l-3 1v-2l-2.75-.812c-2.98-1.09-4.936-2.052-7.25-4.188z"/><path fill="#062654" d="M900 197h3v2l1.688.313c2.789.829 4.926 2.03 7.312 3.687v2h2v3h2c3.308 9.689 5.03 16.849 3 27l-5 1 .063-2.016c.084-3.036.136-6.072.187-9.109l.102-3.172c.08-6.332-.275-9.808-4.352-14.703v-2l-1.562-.75c-3.21-1.646-6.314-3.448-9.438-5.25z"/><path fill="#00020A" d="m611.066 272.902 2.496.036 2.504.027L618 273l-1 2h-7v10h34v-10l-2-1c1.938-.562 1.938-.562 4-1 3.308 3.308 1 9.321 1 14h-39c0-13.953 0-13.953 3.066-14.098"/><path fill="#030C1E" d="m595 265 2 2c-.292 5.251-3.07 9.108-6.75 12.715C585.41 284 585.41 284 583 284l-1 2c-2.97 1.077-6.095 1.62-9.187 2.25l-2.724.558c-7.806 1.437-14.338 1.091-22.089-.808 3.891-2.584 8.063-2.325 12.563-2.437 11.335-.468 20.946-1.817 29.125-10.375 2.445-3.372 3.841-6.318 5.312-10.188"/><path fill="#0C1B36" d="M837 194h52l1 2h-51l1 10 8 1c-3.265 1.884-6.281 2.493-10 3-2.39-4.78-1-10.656-1-16"/><path fill="#062756" d="M670 323h1v7h-1c-.511 7.055.037 11.115 4 17l1 3-1 2c-5.75-1.75-5.75-1.75-8-4-2.72-6.65-2.625-13.912-2-21l2-2h3z"/><path fill="#020916" d="M728 273c2.188 3.283 2.249 4.318 2.188 8.125l-.02 2.695C730 286 730 286 729 287a234 234 0 0 1-8.629.098l-2.619-.005c-2.771-.005-5.543-.018-8.314-.03q-2.813-.008-5.624-.014-6.907-.017-13.814-.049v-13h9v1l-7 1v9h35v-10h-5v-1z"/><path fill="#040E20" d="m691 245 2 1c-2.348 8.028-5.91 15.384-9.58 22.869a1606 1606 0 0 0-3.147 6.463q-.999 2.053-2 4.106l-.95 1.953c-2.206 4.492-2.206 4.492-3.323 5.609-1.853.072-3.708.084-5.562.063l-3.067-.028L663 287l1-2 3.648.21c2.25-.115 2.25-.115 4.352-1.21 2.91-4.127 4.717-8.728 6.625-13.375.802-1.874 1.613-3.744 2.425-5.614q1.19-2.745 2.365-5.494c2.252-4.998 4.853-9.768 7.585-14.517"/><path fill="#041028" d="M871 207a485 485 0 0 1 7.125-.187l2.016-.077c6.216-.091 10.013 1.628 14.609 5.702 4.096 4.664 4.525 7.76 4.5 14l.016 3.933c-.307 4.186-.835 7.135-3.782 10.211-3.95 2.803-6.461 4.03-11.484 3.418l1.625-.687c4.531-2.505 8.498-5.39 10.375-10.313.695-6.485.793-12.457-3-18l-2-2-2 1v-3l-18-2z"/><path fill="#EBC114" d="M217 197h1c.322 5.801-.767 10.305-2.625 15.777l-.807 2.459c-.846 2.57-1.707 5.136-2.568 7.702q-.87 2.625-1.734 5.251A2921 2921 0 0 1 206 241l2.738-.07 3.575-.055 3.55-.07C219 241 219 241 222 243q-3.405.755-6.812 1.5l-3.833.844C208 246 208 246 205 246v-2h-2c.553-5.796 1.734-10.826 3.688-16.297l.795-2.291c.832-2.39 1.674-4.776 2.517-7.162q1.26-3.601 2.517-7.205.78-2.232 1.566-4.46c1.113-3.169 2.197-6.302 2.917-9.585"/><path fill="#051228" d="M420 321c6.095.239 6.095.239 8.543 2.297 3.51 4.158 4.613 7.435 4.707 12.765l.078 2.66L433 341c-3 2-3 2-5.812 1.5-3.688-.578-5.77.117-9.188 1.5v-2l-3.75.188c-4.2.21-4.452-.34-8.25-3.188h24c-.473-8.5-.473-8.5-5-14a98 98 0 0 0-5-3z"/><path fill="#081E42" d="m587 318 1 2 2.813.375c3.668.72 4.829 1.814 7.187 4.625l-2 3-2.312-2.437c-2.482-2.731-2.482-2.731-5.688-3.563 1.125 2.972 2.223 5.334 4 8 .258 2.695.089 5.285 0 8l-2-1c-.625-3.062-.625-3.062-1-6l-4-1v-3c-4.542 1.909-4.542 1.909-9 4 .25-2.375.25-2.375 1-5 2.904-2.178 5.451-2.197 9-2v-2c-5.808 1.265-5.808 1.265-11 4l-1-5h3c1.74-.46 3.469-.964 5.188-1.5l2.73-.844z"/><path fill="#EEC518" d="m294 321 2 3a396 396 0 0 1-2.375 4c-.44.743-.882 1.485-1.336 2.25L291 332h-2l-.75 1.875c-1.456 2.476-2.628 3.076-5.25 4.125v2c-12.12 10.934-26.643 11.737-42 11v-2l1.8.07c16.365.357 30.547-4.577 42.45-15.945 3.56-3.69 6.273-7.648 8.75-12.125"/><path fill="#041026" d="M925 198h1v21h11l-.187-4.25c-.125-2.82.052-4.46 1.25-7.031 2.924-2.594 5.3-2.11 9.125-1.969l3.855.11L954 206v3c-4.386.702-8.558 1.108-13 1l-1 10c-5.324 2.32-9.438 1.915-15 1v-5h-2v-2h2z"/><path fill="#052657" d="M750 323h5v3h3l-.96 2.29c-1.409 5.028-1.504 9.886-1.665 15.085l-.117 3.098q-.141 3.763-.258 7.527l-4-1z"/><path fill="#081A3A" d="M372 218h2v44l-4-2q-.037-6.112-.055-12.225-.008-2.079-.02-4.159a1657 1657 0 0 1-.023-5.98l-.016-3.633C370 231 370 231 371 228c.22-1.725.405-3.455.563-5.187l.253-2.731z"/><path fill="#0F223B" d="M739 326c2.607 3.022 3.463 5.16 3.813 9.125l.269 2.633C743 340 743 340 741 342c-2.338.227-2.338.227-5.227.195l-3.125-.02-3.273-.05-3.297-.027q-4.039-.036-8.078-.098c1.074 2.915 1.778 4.778 4 7-4 0-4 0-5.687-1.187-1.642-2.267-2.03-4.045-2.313-6.813l1-2h25l-2-11z"/><path fill="#020F2D" d="M955 208h2v62l-2 1c-1.107-6.236-1.145-12.341-1.133-18.664l-.003-3.364q0-3.508.006-7.015c.005-3.577 0-7.154-.007-10.73q0-3.414.004-6.829l-.006-3.235.01-3.025.002-2.648c.132-2.581.558-4.972 1.127-7.49"/><path fill="#0D1F41" d="M460 340h2c.349 4.817.634 9.549-1.312 14.063-3.011 3.29-3.812 3.49-8.063 4-4.262.136-7.697-.258-11.625-2.063 3.285-2.19 4.831-2.353 8.688-2.625l3.011-.227L455 353l-1.898-.367-2.477-.508-2.46-.492C446 351 446 351 444 349c-.125-3.125-.125-3.125 0-6h3l.375 2.438L448 348c2.287 1.144 3.593 1.103 6.125 1.063L458 349c1.498-3.371 2-5.204 2-9"/><path fill="#09224B" d="M838 323c4.317 3.15 6.96 6.054 8.75 11.125C847 336 847 336 846 339c-7.737.122-15.307-.152-23-1v-1l10-1v-2h8l-1.875-3.375-1.055-1.898c-1.079-1.888-1.079-1.888-3.07-3.727z"/><path fill="#08142D" d="M876 320c1.6 3.2.032 5.723-1 9l-1.898.227c-2.508.403-4.737.84-7.102 1.773-1.692 2.983-1.692 2.983-2 6h-2c-1.108-3.325-.845-5.622 0-9h2l1-4-2-1c4.48-3.36 7.606-3.274 13-3"/><path fill="#052658" d="M550 323h4v31h-4z"/><path fill="#07295B" d="M481 323h3l1 4 2-2-.465 2.785c-.742 5.194-.89 10.415-1.098 15.652l-.13 3.084q-.159 3.74-.307 7.479l-4-1z"/><path fill="#08132A" d="M598 326h1c1.198 5.5 1.502 10.953 1.813 16.563l.232 3.154.162 3.037.171 2.76c-.506 3.33-1.747 4.459-4.378 6.486-3.25.25-3.25.25-6 0-.826-5.606-1.068-10.423 0-16h1l1 11 4 1-.016-2.247q-.029-5.032-.047-10.065l-.025-3.538-.01-3.388-.016-3.127C597 329 597 329 598 326"/><path fill="#091632" d="m685.313 307.875 3.238.055L691 308v2l-2.344.043c-7.232.331-12.013 1.364-17.656 5.957l-2.375 1.875c-5.014 6.557-4.102 15.286-3.625 23.125.463 2.516 1.087 4.604 2 7h-2c-3.835-7.836-4.833-15-2.86-23.574 2.397-6.766 7.687-12.404 14.118-15.52 3.17-1.047 5.725-1.104 9.054-1.031"/><path fill="#020816" d="m371.36 284.707 2.74.013c2.884.017 5.767.054 8.65.092q2.936.024 5.871.042 7.19.051 14.379.146l-1 3q-6.747.255-13.495.482-2.287.08-4.576.166c-8.73.33-17.237.481-25.929-.648 3.848-4.03 8.174-3.385 13.36-3.293"/><path fill="#DEBB1C" d="m289 158 3 1c-.389 5.028-2.625 6.987-6.312 10.25l-2.926 2.64c-2.444 1.867-3.771 2.74-6.762 3.11l-2-6 1.688-.687c2.485-1.276 2.485-1.276 4.687-3.688 2.71-2.71 5.29-4.74 8.625-6.625"/><path fill="#072857" d="M460 322c3.625 1.438 3.625 1.438 6 3l2 1a109 109 0 0 1-1 7l-2 1-1-2-1 5h-5l4-1-.312-3.875-.176-2.18c-.386-2.34-.386-2.34-3.512-3.945v-2l-8 1-1 3-4-1v2h-3c.188-1.812.188-1.812 1-4 5.363-3.97 10.576-3.67 17-3"/><path fill="#EDC61B" d="M251 215c2.168 1.815 3.983 3.504 5.875 5.563l1.508 1.576A353 353 0 0 1 262 226l-2 2a418 418 0 0 1-3.5-2.875l-1.969-1.617L253 222v-2l-6-1v-2l-4 1-.312 3.063c-.725 4.15-1.91 7.15-3.688 10.937h-2v6h-2c2.92-17.707 2.92-17.707 7.758-22.879 3.245-1.622 4.817-1.258 8.242-.121"/><path fill="#BEA01E" d="M323 162c3.705.603 5.86 2.225 8.75 4.563l2.422 1.94L336 170l1-2 .438 2.25c.464 2.27.98 4.508 1.562 6.75-1.68.734-1.68.734-4 1-2.508-1.547-2.508-1.547-5.125-3.75l-2.633-2.172c-2.686-2.49-4.193-4.028-4.367-7.766z"/><path fill="#051227" d="M539 253c2.36 3.54 2.345 5.713 2.559 9.844.535 2.613 1.473 3.424 3.441 5.156l1 2h2v2l20 2c-6.217 3.109-12.206 2.772-18.812.75-4.806-1.826-8.218-3.718-10.5-8.5-.823-3.89-.825-7.28-.688-11.25h-11v-1z"/><path fill="#B0961A" d="M282 121a66 66 0 0 1 2 4 83 83 0 0 0 3.125 3.75l1.633 1.86L290 132l-2 4a174 174 0 0 1-4-2l-2.5-1.25c-3.708-2.595-5.888-5.812-7.25-10.125L274 121c2.96-1.48 4.868-.848 8 0"/><path fill="#0E1E3A" d="M468 327c2.656 3.979 2.41 8.26 2.563 12.875.196 5.126.454 10.074 1.437 15.125-3.086 2.269-4.422 3.055-8.312 2.688L461 357l1-3h5l-.016-2.263q-.029-5.055-.046-10.112l-.026-3.562-.01-3.399-.016-3.142C467 329 467 329 468 327"/><path fill="#08152A" d="M524 260h1v24c7.284-.08 7.284-.08 9-2 5.821.166 11.408 1.475 17 3-3.413 2.122-5.627 2.082-9.562 1.563-4.273-.552-4.273-.552-8.438.437a81 81 0 0 1-4.687.063l-2.45-.028L524 287c-2.125-5.625-2.125-5.625-1-9 .045-2.696.048-5.369 0-8.062-.135-7.668-.135-7.668 1-9.938"/><path fill="#082049" d="m780 227 2 1c-1.928 6.866-4.27 13.41-7 20l14 1v1l8 1v1h-26l-1-2a153 153 0 0 1 3.313-8.312l1.925-4.551.929-2.167c.693-1.64 1.352-3.293 2.001-4.95C779 228 779 228 780 227"/><path fill="#040C20" d="M574 193c2.867.091 5.703.238 8.563.438l2.443.158q2.997.196 5.994.404c.198 3.562.381 7.125.563 10.688l.17 3.052.146 2.96.143 2.713c-.023 2.655-.418 5.007-1.022 7.587-5.34 1.335-8.84.513-14-1v-1h12v-23l-6.875.125c-3.867.07-3.867.07-7.125-.125l-2-2z"/><path fill="#0F1829" d="M431 236c6.737.435 13.111 1.493 19 5 1.16 1.96 1.16 1.96 2 4l2 2.813c3.457 5.509 4.497 10.721 4 17.187l-2 3-.445-2.965c-1.419-8.61-2.899-16.96-10.442-22.394-4.455-2.416-9.182-3.584-14.113-4.641z"/><path fill="#061125" d="M793 328h1l.152 2.08c.231 3.099.477 6.197.723 9.295l.238 3.273.254 3.125.222 2.889c.213 2.523.213 2.523 2.411 4.338 2.433.462 2.433.462 5.125.625l2.758.227L808 354v-5h3c.188 3.375.188 3.375 0 7-3.895 2.596-6.04 2.165-10.55 1.605-3.67-.907-5.303-2.558-7.45-5.605-1.528-4.85-.887-9.815-.562-14.812l.158-2.678q.195-3.255.404-6.51"/><path fill="#06295A" d="M795 327h3l.152 1.988c.232 2.963.477 5.925.723 8.887l.238 3.129.254 2.988.222 2.761c.227 2.442.227 2.442 2.411 4.247 1.988.398 3.99.738 6 1v2c-1.603.081-3.208.14-4.812.188l-2.708.105C798 354 798 354 796.363 352.828c-1.886-2.53-1.706-4.24-1.656-7.371l.03-3.252c.024-1.12.05-2.239.076-3.392l.04-3.428q.054-4.193.147-8.385"/><path fill="#072A5C" d="m419 320 3 1-1 1 2.813 1.75c4.792 3.383 4.792 3.383 6.187 6.25.235 3.018.174 5.98 0 9l-4-1 1-6h-2l-1.375-2.375c-1.786-2.886-2.535-3.448-5.625-4.625-2.49-.24-2.49-.24-5.062-.125l-2.598.055-2.34.07h-3c4.563-3.533 8.496-3.324 14-3z"/><path fill="#EECC2D" d="m203.375 271.813 2.867-.038c8.592-.018 8.592-.018 12.758 2.225l-1 8c-2.152-3.228-2.2-4.284-2-8q-5.376.21-10.75.438l-3.078.119-2.969.127-2.73.11c-2.269.19-4.289.58-6.473 1.206l-.402 1.703c-.622 2.39-1.37 4.707-2.16 7.047l-.817 2.422L186 289h-2c.39-6.112 2.325-11.05 6-16 4.423-1.474 8.742-1.184 13.375-1.187"/><path fill="#020C20" d="m395.408 242.886 3.158.016 3.409.01 3.587.025 3.6.014q4.419.018 8.838.049v1c-4.77 1.234-9.426 1.112-14.313 1.062L395 245v29l-3-1q-.037-6.168-.055-12.335-.008-2.1-.02-4.2-.017-3.011-.023-6.024l-.016-3.665c.153-3.73.153-3.73 3.522-3.89"/><path fill="#020815" d="M438 282v3c-4.959 2.755-9.565 3.125-15.176 3.098l-3.506-.01-3.63-.026-3.69-.013q-4.5-.018-8.998-.049l1-3 2.367-.06c3.566-.096 7.13-.205 10.695-.315 1.23-.03 2.459-.062 3.725-.094 6.057-.196 11.499-.442 17.213-2.531"/><path fill="#0B1C3D" d="m610.867 192.978 3.793.143 2.014.072q3.194.116 6.389.245l4.322.158q5.308.195 10.615.404v1h-30v12l4-1c3.688.813 3.688.813 7 2 1.502 3.003 1.093 5.79 1.063 9.125l-.028 3.883L620 224h-2v-14h-10c-1.493-2.987-1.132-5.744-1.125-9.062l-.008-3.848c.176-4.083.176-4.083 4-4.112"/><path fill="#062757" d="M697 343h4c-.226 3.957-.931 4.937-3.937 7.688L694 353l-2 2c-3.144 1.048-4.872 1.005-8.125.688l-2.695-.239L679 355l-1-2c2.983-1.989 4.498-2.42 7.938-3 3.365-.568 6.126-1.216 9.062-3 1.268-2.034 1.268-2.034 2-4"/><path fill="#08193B" d="m432 345 1 3c-2.322 4.287-4.503 7.026-9 9-2.812.188-2.812.188-5 0l4-5h-10v-1l2.25-.375c2.56-.582 4.438-1.43 6.75-2.625h2l1-3c3.1-1.033 4.056-1.178 7 0"/><path fill="#00030E" d="M880 275h1l1 12c-29.49 1.383-29.49 1.383-41 0l1-9h1v7h37z"/><path fill="#071226" d="M552.5 306.75c3.5.25 3.5.25 5.5 2.25-.375 3.625-.375 3.625-1 7l-1.937.375L553 317l-1 2v-2l-4-1c-.625-3.375-.625-3.375-1-7 2-2 2-2 5.5-2.25"/><path fill="#8D7D1E" d="m266.188 365.438 2.73.308L271 366v1c-17.355 3.356-31.845 5.567-49 0v-1l2.543.184c11.145.776 22.297 1.315 33.457 1.816v-2c3.2-1.067 4.885-.948 8.188-.562"/><path fill="#030815" d="M567 323h1v31h5c-.01-.686-.02-1.373-.032-2.08-.041-3.098-.067-6.196-.093-9.295-.017-1.08-.034-2.16-.05-3.273l-.02-3.125-.032-2.889C573 331 573 331 575 329c.834 5.101 1.183 10.022 1.188 15.188l.037 2.115c.01 3.735-.153 6.527-2.225 9.697l-7-1z"/><path fill="#00020B" d="M835 273h1v14q-5.92.252-11.84.482c-1.992.079-3.982.165-5.972.25-7.166.272-14.08.273-21.188-.732 3.692-2.461 6.466-2.256 10.73-2.195l2.274.008c2.395.011 4.79.037 7.183.062q2.438.016 4.874.027 5.97.035 11.939.098z"/><path fill="#EBC31D" d="M171 250h1c.227 6.933-.58 13.217-2 20 3.162 1.054 5.87 1.313 9.188 1.563l3.292.253L185 272c-3.57 3.938-3.57 3.938-7.437 4.5-4.082-.573-5.68-1.618-8.563-4.5-3.33-6.658.136-15.341 2-22"/><path fill="#02102D" d="M701 227h2v45l-2 1q-.252-8.139-.482-16.278-.08-2.766-.166-5.531-.123-3.988-.23-7.976l-.083-2.476c-.121-4.717.154-9.088.961-13.739"/><path fill="#041324" d="M691 314c3.063 1.875 3.063 1.875 5 4v3c-2.972-1.125-5.334-2.223-8-4-2.754-.025-2.754-.025-5.687.375l-3.012.336L677 318v2l-1.375 1.25c-2.165 2.331-2.752 4.728-3.625 7.75h-1c-.61-7.193-.61-7.193 2.125-10.812 6.084-4.63 10.422-6.23 17.875-4.188"/><path fill="#FCCD13" d="m217.125 361.813 2.195.519c2.042.509 4.066 1.09 6.078 1.703 6.247 1.564 12.699 1.434 19.102 1.59l3.938.117q4.78.141 9.562.258v2a318 318 0 0 1-42-2v-2h-5v-2c2.532-1.266 3.411-.845 6.125-.187"/><path fill="#010410" d="m869 208 2 1 1 35 10 1v1q-2.97.039-5.937.063l-3.34.035C870 246 870 246 869 245a211 211 0 0 1-.098-8.191l.005-2.485c.005-2.629.018-5.258.03-7.887q.008-2.666.014-5.333.017-6.552.049-13.104"/><path fill="#010510" d="M771.44 260.773q2.205.001 4.412.032l2.345.008c2.476.011 4.952.037 7.428.062q2.516.016 5.031.027 6.173.035 12.344.098l-1 2-33 1-2 6-2-2c.485-4.854 1.27-6.886 6.44-7.227"/><path fill="#ECC216" d="M326.375 247.875 329 250c-4.002 1.6-7.046.293-11-1v2h-2l-.812 1.703c-1.268 2.453-2.678 4.736-4.188 7.047l-1.562 2.422c-.475.603-.95 1.206-1.438 1.828h-2v10h-2c-.121-8.942 2.311-15.09 8-22 8.488-7.396 8.488-7.396 14.375-4.125"/><path fill="#EEC518" d="m273 234 3.148.875c7.023 1.89 13.393 3.505 20.723 3.133 3.304-.012 6.025.912 9.129 1.992v2h-16v-2l-1.723.07c-5.203.122-9.35-.393-14.277-2.07z"/><path fill="#DEBD22" d="m309 112 3 1c.95 2.363.95 2.363 1.688 5.313l.761 2.925C315 124 315 124 315 128l-3-1v-2l-6 4q.464-3.407.938-6.812l.527-3.833C308 115 308 115 309 112"/><path fill="#0C1A35" d="M517 326q2.938.172 5.875.375c1.09.07 2.181.14 3.305.21C529 327 529 327 531 329c1.052 3.06 1.105 5.882 1.063 9.098l-.024 2.927-.039 3.038q-.04 2.985-.062 5.972l-.036 2.668c0 2.46 0 2.46 1.098 5.297h-2c-1.282-2.563-1.16-4.473-1.21-7.34-.03-1.063-.058-2.126-.087-3.22a980 980 0 0 1-.133-6.743l-.093-3.224-.06-2.961c-.231-2.537-.231-2.537-1.728-4.342-2.746-1.902-5.45-1.344-8.689-1.17h-3z"/><path fill="#061330" d="M418 324c3.965 1.983 5.633 3.133 7.375 7.25L426 334c-6.875-3.75-6.875-3.75-8-6-3.47.458-6.674.891-10 2l-1 5 2 1c-1.937-.375-1.937-.375-4-1l-1-2c3.808-6.12 6.316-10.076 14-9"/><path fill="#09234C" d="m530 320-1 2c.281 2.008.61 4.01 1 6a402 402 0 0 1-4.937-.375l-2.778-.21L520 327l-1-2-5 1c.188-1.875.188-1.875 1-4 4.483-2.893 9.87-2.18 15-2"/><path fill="#E3C423" d="m480.309 233.734 3.013-.007 3.115.023 3.104-.023c9.971.025 9.971.025 14.459 2.273l1 3c-6.875-.875-6.875-.875-8-2a64 64 0 0 0-4.297-.133l-2.656-.004-2.797.012-2.75-.012-2.672.004-2.44.004c-2.458.062-2.458.062-5.065.762L472 238l-2-2c3.58-1.624 6.385-2.256 10.309-2.266"/><path fill="#040F29" d="m767.875 319.875 3.18-.008c5.063.228 5.063.228 6.945 1.133 4.154 5.447 3.137 11.415 2.688 17.875l-.186 3.242A714 714 0 0 1 780 350h-1l-.044-1.74a946 946 0 0 0-.269-7.885l-.068-2.738c-.21-5.234-.675-9.127-3.619-13.637-4.308-2.831-8.161-1.859-13-1l-3 1 1-3c2.702-1.351 4.86-1.132 7.875-1.125"/><path fill="#07142C" d="M636 318h6c.934 3.01 1.044 3.867 0 7-2.062 1.188-2.062 1.188-4 2l.688 2.563c.408 4.495-.591 6.477-2.688 10.437l-2 1 .254-1.941c.623-5.29.77-9.83-.254-15.059l6-1v-4z"/><path fill="#BF9E11" d="m325 304 3 1c-.55 5.83-2.245 10.583-4.562 15.938l-.999 2.36A977 977 0 0 1 320 329h-3c.582-4.776 2.02-8.628 4-13l1-3h3z"/><path fill="#051533" d="M754 257c1.498 2.996.34 4.75-.687 7.875l-1.012 3.18c-1.38 3.122-2.659 4.81-5.301 6.945-3.25.75-3.25.75-6 1v10h-3a532 532 0 0 1-.125-5.875l-.07-3.305C738 274 738 274 740 272v2l7-1c.182-.58.364-1.16.55-1.758 3.698-11.49 3.698-11.49 6.45-14.242"/><path fill="#0A254C" d="M412 349c10.4 1.4 10.4 1.4 13 4-2.139 2.139-3.133 2.427-6 3v2c-2.312.188-2.312.188-5 0-1.5-1.312-1.5-1.312-3-3a131 131 0 0 0-5-3c2.076-.553 3.844-1 6-1z"/><path fill="#08142D" d="M693 309c5.041 2.11 7.902 4.485 11 9 .813 3.375.813 3.375 1 6-3.782 1.837-5.946 2.158-10 1v-3l6-1c-2.074-5.069-4.272-7.268-9-10z"/><path fill="#A38713" d="M255 154c2.095 3.425 2.095 3.425 1.68 5.938l-.805 2.062-.871 2.352L254 167a694 694 0 0 0-2.187 6.375l-1.043 3.023c-.912 2.63-.912 2.63-.77 5.602h-2c-.376-7.654.526-15.051 4-22l.438-2c.562-2 .562-2 2.562-4"/><path fill="#030E22" d="M900 197h3v2l1.688.313c2.789.829 4.926 2.03 7.312 3.687v2h2v3h2c2.037 4.074 2.026 6.59 1 11a62 62 0 0 1-4.062-7l-1.036-2.062C911 208 911 208 910 205c-1.715-1.027-1.715-1.027-4-2-2.35-1.306-4.672-2.657-7-4z"/><path fill="#FCC609" d="M282.139 262.916c1.62-.047 3.242.008 4.861.084l2 2q-2.216.54-4.438 1.062l-2.496.598L280 267l-1-1a61 61 0 0 0-4.153-.205l-2.669-.06-2.9-.051-2.956-.063q-4.692-.097-9.385-.184l-6.345-.13q-7.796-.162-15.592-.307v-1a56760 56760 0 0 1 25.246-.573l12.1-.275q2.644-.058 5.29-.105 2.25-.044 4.503-.13"/><path fill="#EBC117" d="M185 220c1 3 1 3-.547 6.512a341 341 0 0 1-2.203 4.176c-2.826 5.344-5.227 10.608-7.25 16.312h-2l-1 3c.615-4.713 1.915-8.925 3.688-13.312l.793-1.983c2.218-5.353 4.994-10.093 8.519-14.705"/><path fill="#050F25" d="M632 349c2.75-.312 2.75-.312 6 0 3.106 2.697 3.907 4.363 4.5 8.438-.59 4.21-1.745 6.347-4.5 9.562-2.25.875-2.25.875-4 1v-3l2-1.625c2.98-3.54 2.342-6.923 2-11.375l-6-2z"/><path fill="#062A5D" d="m828.625 321.938 2.477.027L833 322v2l-5 1 1 2h-6l-4 7-3-1c.415-4.838 2.42-6.856 6-10 2.405-1.203 3.95-1.1 6.625-1.062"/><path fill="#061E45" d="M828 321c3.328-.227 5.418-.322 8.375 1.313C838 324 838 324 838 327a264 264 0 0 0 3 5v2c-4.645-1.507-4.645-1.507-6.437-4-2.12-2.714-4.304-3.13-7.563-4l1-2h5v-2h-5z"/><path fill="#B99715" d="M248 129c2.813.188 2.813.188 6 1 2.858 3.717 3.467 6.815 3.75 11.438l.234 3.308c.016 3.213-.358 6.109-.984 9.254-2.886-4.714-2.845-10.094-3.437-15.469-.487-3.056-.847-5.004-2.563-7.531z"/><path fill="#EFC619" d="M304 293c2.738 5.476-1.446 15.229-3.21 20.828-.964 2.65-2.071 4.93-3.79 7.172h-2l.48-1.59c1.286-4.269 2.56-8.54 3.797-12.824l.673-2.32q.672-2.319 1.336-4.639c1.602-5.515 1.602-5.515 2.714-6.627"/><path fill="#031332" d="m618 225 3 1v24l-2 1c-.857-5.884-1.125-11.56-1.062-17.5l.013-2.492q.02-3.004.049-6.008"/><path fill="#B0910E" d="m238 200 3 1c-.73 4.688-2.366 8.909-4.062 13.313l-.854 2.244Q235.046 219.28 234 222c-2-3-2-3-1.785-5.758.852-3.518 2.01-6.754 3.347-10.117l1.38-3.492z"/><path fill="#061126" d="M739 326c2.682 3.077 3.42 5.197 3.688 9.25l.199 2.703L743 340c-2.747 1.374-4.817 1.013-7.883.879l-3.535-.147-3.707-.17-3.73-.158A2975 2975 0 0 1 715 340v-1h25l-2-11z"/><path fill="#AD8F15" d="m189 250 2 1-.402 1.871c-1.068 5.12-1.867 10.09-2.157 15.316C188 270 188 270 185 272c-.463-8.312-.226-14.7 4-22"/><path fill="#EFC71D" d="M234 238c1 3 1 3-.437 5.938-4.18 4.995-8.836 7.02-15.25 7.875-3.274.249-6.131.11-9.313-.813v-1l3.29-.516q2.167-.365 4.335-.734l2.16-.332c4.893-.853 8.246-2.262 12.215-5.418 1.863-2.6 1.863-2.6 3-5"/><path fill="#A78C1F" d="M337 147c-2.769 1.419-5.57 2.672-8.437 3.875-6.361 2.84-9.75 5.609-12.563 12.125l-2-1c.445-5.04 2.713-7.376 6-11l3 1v-3c4.927-1.97 8.78-2.18 14-2"/><path fill="#C6A91C" d="M290 143v3l3 1 1 3c-7.429.143-7.429.143-11-1v-2l-5-1v-2c4.053-.982 7.839-1.082 12-1"/><path fill="#10264B" d="m758 322 1.625 1.438c2.803 1.844 5.071 2.187 8.375 2.562v1h-7l-2 5h-2v21h-1a770 770 0 0 1-.687-10.125l-.221-2.883c-.326-5.525-.24-9.186 2.908-13.992l-3-1z"/><path fill="#0B1C2D" d="M526 213h1l.262 1.688c1.704 9.258 6.508 15.461 12.738 22.312l-4 1-1.875-2.437c-1.867-2.602-1.867-2.602-4.125-3.563-2.68-6.201-4.616-12.23-4-19"/><path fill="#082A5B" d="M838 323c5.838 4.301 5.838 4.301 7 8 .078 2.332.09 4.668 0 7h-3v-3l-3-1h2l-1.875-3.375-1.055-1.898c-1.079-1.888-1.079-1.888-3.07-3.727z"/><path fill="#BB9917" d="M204 236c2 3.875 2 3.875 2 5l2.738-.07 3.575-.055 3.55-.07C219 241 219 241 222 243q-3.405.755-6.812 1.5l-3.833.844C208 246 208 246 205 246v-2h-2z"/><path fill="#152949" d="m856 319 3 2h-4v34h6l-2 3-6-1 1-37z"/><path fill="#062759" d="M818 342c1.713 1.631 3.107 3.158 4.438 5.125 1.796 2.156 2.832 2.499 5.562 2.875l-2 4c-4.417-1.388-7.083-3.397-10-7 .128-2.31.366-3.366 2-5"/><path fill="#030E22" d="M589 243c2.25.438 2.25.438 5 2 3.85 6.016 5.596 12.915 4.563 20l-.563 2h-1l-.734-3.29-1.016-4.335-.477-2.16c-1.162-4.872-2.867-8.15-5.773-12.215z"/><path fill="#071732" d="m427 212 2 1c.336 5.48-.355 9.167-3 14-2.535 2.345-5.128 4.085-8 6-2.187-.375-2.187-.375-4-1v-2l1.645-.516 2.168-.734 2.144-.703c2.585-1.325 3.58-2.54 5.043-5.047.783-2.803.783-2.803 1.188-5.75l.48-2.984z"/><path fill="#11172A" d="M357 190h23v1h-22v12h10v1l-2.75.438c-2.465.426-4.838.913-7.25 1.562l-4-6h2z"/><path fill="#0B1F33" d="M868 320h8c1.6 3.2.032 5.723-1 9l-6-1v-1h5c-1.184-1.416-1.184-1.416-4.562-1.062L866 326z"/><path fill="#1A2B4B" d="m532.688 252.938 3.574.027L539 253v1l-5 1v1h-8v22h-1v-18h-2v-6c3.422-1.14 6.087-1.098 9.688-1.062"/><path fill="#071027" d="m635 354-1 4-2.312-.937c-4.145-1.195-8.006-1.485-12.297-1.72C617 355 617 355 615 353c6.764-2.255 13.292-.739 20 1"/><path fill="#05275A" d="M392 350v4l-24-1c2.426-2.426 3.167-2.286 6.5-2.414l2.688-.117 2.812-.094 2.813-.117C389.147 350 389.147 350 392 350"/><path fill="#01030E" d="M869 256h12l1 2-10 2-.375 4.875c-.375 4.875-.375 4.875-2.625 7.125z"/><path fill="#A38915" d="M312 163h3l-3 16-3 1c-.345-6.334.707-11.103 3-17"/><path fill="#071831" d="m871 270 1 3 1.898-.07 2.477-.055 2.46-.07C881 273 881 273 883 275c.195 2.602.195 2.602.125 5.625l-.055 3.04L883 286h-2l-1-10-3.312.188C873 276 873 276 871.063 274.5L870 273z"/><path fill="#D3AE29" d="m324 137 1 2c2.649.777 5.25 1.452 7.938 2.063C340.8 142.9 340.8 142.9 343 144v2l-5 1v-2l-3.687.125c-3.536-.025-6.289-.109-9.313-2.125-.812-3.125-.812-3.125-1-6"/><path fill="#1D3451" d="M478 321h1v34h7l-1 3c-5.875-.875-5.875-.875-7-2-.089-2.594-.115-5.16-.098-7.754l.005-2.35c.005-2.486.018-4.972.03-7.459q.009-2.522.014-5.044.017-6.197.049-12.393"/><path fill="#05275A" d="M728 323c4.056.468 7.466.88 11 3v8l-3 1-1.187-3.187c-1.577-3.73-3.782-6.11-6.813-8.813"/><path fill="#877319" d="M504 236c2.33.932 3.759 1.69 5.313 3.688 1.032 3.472.605 5.825-.313 9.312-2.312 3-2.312 3-5 5-2.312-.187-2.312-.187-4-1 2.22-3.329 3.347-3.75 7-5v-9l-3-1z"/><path fill="#030B1B" d="m916 232 2 3c-1.037 5.07-3.607 9.16-7 13-2.312 1.438-2.312 1.438-4 2l-2-2 2.293-1.61c3.033-2.678 4.315-4.993 6.02-8.64l1.55-3.266z"/><path fill="#030C1F" d="m780 227 2 1c-1.926 6.856-4.247 13.433-7 20-2-7.175 1.047-13.467 4-20z"/><path fill="#0A1B3B" d="M897 222h1c.224 1.894.428 3.79.625 5.688l.352 3.199c.03 4.04-.667 6.745-3.493 9.695-3.95 2.803-6.461 4.03-11.484 3.418l1.625-.687c4.552-2.516 8.45-5.395 10.375-10.313.453-2.815.453-2.815.625-5.75l.227-2.984z"/><path fill="#071736" d="M976 206q2.937-.118 5.875-.187l3.305-.106L988 206c2.351 3.527 2.214 5.029 2.125 9.188l-.055 3.292L990 221l-2-1c-.379-2.25-.379-2.25-.562-5 .027-3.308.027-3.308-1.438-6a104 104 0 0 0-5.062-.562l-2.786-.254L976 208z"/><path fill="#040915" d="M393 202c3.77-.058 7.541-.094 11.313-.125 1.071-.017 2.143-.034 3.248-.05l3.115-.02 2.872-.032C416 202 416 202 419 204c-5.21.907-9.982 1.046-15.25.688l-2.14-.108c-3.657-.232-5.498-.506-8.61-2.58"/><path fill="#EAC21A" d="m219 342 4 1v2l13 3v2c-7.519.597-11.74-.856-18-5z"/><path fill="#091120" d="m453 270 2 1c-1.364 5.154-4.726 8.066-9 11h-2v2l-3-1c1-3 1-3 3.75-4.812 3.608-2.43 5.611-4.773 8.25-8.188"/><path fill="#091832" d="M415.195 189.734c6.878.028 13.205.11 19.805 2.266-3.224 1.938-5.27 2.165-8.984 1.758l-2.832-.293-2.934-.34-2.98-.316A850 850 0 0 1 410 192c2-2 2-2 5.195-2.266"/><path fill="#071024" d="m492 326 1 2h6v1l-9 2-2 8h-2c-1.573-8.023-1.573-8.023 1-12 2.625-.812 2.625-.812 5-1"/><path fill="#060F20" d="m820 352 2.938.938c3.697 1.079 7.31 1.454 11.144 1.718C836 355 836 355 838 357c-6.273 2.091-11.84.73-18-1z"/><path fill="#010512" d="M861 334c2.537 3.805 2.486 7.137 2.688 11.563l.142 2.365c.305 5.801.305 5.801-.83 8.072l-7-1v-1h5z"/><path fill="#080E22" d="m400 346 1.39 1.242 1.86 1.633 1.828 1.617c4.115 3.228 7.744 3.91 12.922 4.508v1c-3.689.652-7.25 1.122-11 1-3.78-2.678-5.805-5.957-8-10z"/><path fill="#0C1630" d="M364 318h1v40h-3q-.062-3.5 0-7l1-1c.16-2.373.26-4.721.316-7.098l.063-2.148q.097-3.408.183-6.817l.131-4.61q.161-5.663.307-11.327"/><path fill="#08142B" d="m432 254 2 1c.54 6.614-.008 10.606-4 16-2.562 2-2.562 2-5 3l-3-1 3.375-2.125c3.58-2.576 4.758-4.453 5.625-8.875.405-2.667.722-5.314 1-8"/><path fill="#071937" d="M572 207c1.875.938 1.875.938 4 3 .5 2.133.5 2.133.875 4.563.35 2.374.35 2.374 1.125 4.437 2.983 1.692 2.983 1.692 6 2-3.215 1.607-6.436 1.057-10 1l.195-6.055c-.012-2.184-.012-2.184-2.195-3.945l-1-3z"/><path fill="#0E1D30" d="M410 340h22l-1 3-3.125-.625c-3.998-.387-6.212.106-9.875 1.625v-2h-8z"/><path fill="#071226" d="M438 282v3c-3.976 2.715-8.139 2.224-12.75 2.125l-2.402-.027c-1.95-.024-3.899-.06-5.848-.098l1-2c2.695-.344 2.695-.344 6.125-.5 4.955-.3 9.2-.869 13.875-2.5"/><path fill="#030D20" d="m771 272 4 2v12h-9v-1h6v-9l-7-1v-1h6z"/><path fill="#AF900F" d="M200 214h2c2.213 4.425 1.29 9.965 0 14.563L201 231c-2.405-3.608-2.24-5.348-2.187-9.625l.019-3.54C199 215 199 215 200 214"/><path fill="#EAC01D" d="M183 289h1c.295 7.42-.077 14.793-2 22l-2 1c-1.086-3.259-.911-4.392-.223-7.668l.557-2.705.603-2.815.592-2.85q.726-3.483 1.471-6.962"/><path fill="#B19311" d="M328 289c2.477 3.715 2.435 6.696 2 11-1 3-1 3-2 5h-2c-.207-5.789.408-10.43 2-16"/><path fill="#AD8F13" d="m169 271 16 1c-4 4-4 4-7.437 4.563C174 276 174 276 169 271"/><path fill="#062A5F" d="M618 351q4.406-.118 8.813-.187l2.525-.077 2.432-.029 2.237-.048c2.515.43 3.387 1.416 4.993 3.341l-2 4-1.516-1.922c-3.221-2.695-6.195-2.962-10.234-3.328l-2.113-.234c-1.71-.188-3.424-.354-5.137-.516z"/><path fill="#09142D" d="M442 337c2.188.313 2.188.313 4 1l-1.875.688c-2.85 1.76-3.319 3.086-4.125 6.312.31 3.88.82 5.73 3 9l-3 1c-2-3-2-3-2-6l-2-1a274 274 0 0 1 1.313-3.812l.738-2.145c1.033-2.223 2.035-3.52 3.949-5.043"/><path fill="#071026" d="m701 345 3 3h-2l-.75 1.875c-1.456 2.476-2.628 3.076-5.25 4.125v2l-6-1 1.688-1.25c5.195-3.841 5.195-3.841 9.312-8.75"/><path fill="#2A303C" d="m358 274 3 1-1 10 10 1v1h-12l-2-6h2l-1-3c.438-2.187.438-2.187 1-4"/><path fill="#D7B515" d="M200 250c0 3 0 3-1.375 5.188-2.057 3.56-2.742 6.803-3.625 10.812h2l-1 2c-2.062-1.625-2.062-1.625-4-4-.318-4.66 1.636-7.009 4.563-10.375A230 230 0 0 1 200 250"/><path fill="#040F25" d="M699 228c1.793 5.379-1.351 10.63-3.687 15.563L694 246c-1.21-1.547-1.21-1.547-2-4a56.6 56.6 0 0 1 3.375-7.25l1.04-1.969A375 375 0 0 1 699 228"/><path fill="#1F2732" d="M372 228h1v19h-3a901 901 0 0 1-.125-7.812c-.017-.738-.034-1.476-.05-2.237-.036-3.863-.019-5.66 2.175-8.951"/><path fill="#061D46" d="M612 341c1.938.813 1.938.813 4 2l1 3 2.152.148 2.785.227 2.778.21L627 347l1 2q-2.874.079-5.75.125l-3.234.07c-2.968-.192-4.59-.511-7.016-2.195-.812-2.562-.812-2.562-1-5z"/><path fill="#0C264C" d="M446 335h4v2l3 1-5 2v3h-2l-1 4a340 340 0 0 1-.625-4.875l-.352-2.742L444 337z"/><path fill="#BA9812" d="M250 215c4.526 3.678 8.394 7.41 12 12-4.316 0-5.928-2.133-9-5v-2h-2v-2h-2z"/><path fill="#0A1C41" d="m432 345 1 3-2 3c-4.75-.875-4.75-.875-7-2 .313-1.937.313-1.937 1-4 3.1-1.033 4.056-1.178 7 0"/><path fill="#020C21" d="M847 332c2 3 2 3 1 9l-28-1v-1h26z"/><path fill="#051128" d="M722 325c7.156-.485 7.156-.485 10.938 1.688 2.251 2.524 2.785 3.982 3.062 7.312h-3l-1.187-2.312c-2.629-3.897-5.383-4.308-9.813-5.688z"/><path fill="#F7BF04" d="M195 273q5.718-.042 11.438-.062l3.298-.026 3.135-.01 2.904-.016C218 273 218 273 219 274c-.176 2.69-.618 5.329-1 8-2-3-2-3-2-8h-21z"/><path fill="#040F1F" d="M428.313 246.813C431 249 431 249 431.875 251.25L432 253h-2l-1.812-1.875c-4.125-4.007-8.61-4.469-14.188-5.125v-1c5.505-1.457 9.31-.925 14.313 1.813"/><path fill="#050D21" d="M669 327c2.3 3.45 2.808 6.138 3.625 10.188.26 1.272.52 2.544.79 3.855.192.976.386 1.952.585 2.957h-3c-2.26-3.595-2.209-6.566-2.125-10.75l.055-3.547z"/><path fill="#081A37" d="M792 312h3l-1 11h-7l-1 3v-5c2-1 2-1 6 0z"/><path fill="#A58711" d="m205 302 1 2h2c-1.35 3.837-3.078 6.652-5.625 9.813l-1.914 2.394L199 318l-2-3 3-1v-3l2-1c1.175-2.626 2.09-5.27 3-8"/><path fill="#05122F" d="m575 257 3 1c.322 4.672.43 7.139-1.687 11.375-2.379 2.7-3.888 3.674-7.313 4.625l2.438-2.5c3.72-4.425 3.562-8.85 3.562-14.5"/><path fill="#08214A" d="m635 355 3 2c0 2.313 0 2.313-1 5-2.518 1.547-5.07 2.584-8 3l-3-2 6-2 .375-2.437L633 356z"/><path fill="#071021" d="m678.934 353.953 3.504.297 3.496.266C689 355 689 355 692 357c-6.543.876-11.766 1.355-18-1 2-2 2-2 4.934-2.047"/><path fill="#CAAF1E" d="M468 237h2v2h-2v13c-3.332-3.332-3.817-4.414-4-9 1.138-2.327 2.168-4.168 4-6"/><path fill="#08172D" d="M840 345c2.343.256 4.678.593 7 1l1 2-4 6c-2.07-3.106-3.163-5.414-4-9"/><path fill="#071732" d="M419 320v2l-2.555.367-3.32.508-3.305.492c-2.94.396-2.94.396-4.82 2.633l-3-1c4.844-4.542 10.384-7.048 17-5"/><path fill="#071531" d="M682 313c4.599.2 8.075.434 12.063 2.875C696 318 696 318 696 321c-4.118-1.453-7.422-3.511-11-6z"/><path fill="#061021" d="M918 216h1c1.598 6.394 1.281 12.593 0 19-1.953-3.273-2.245-5.713-2.187-9.5l.019-2.844c.15-2.362.5-4.393 1.168-6.656"/><path fill="#040D23" d="M558 203c4.97.412 9.445.796 14 3v3l-16-3z"/><path fill="#060F1E" d="M450 354.375c3.034.32 5.948.625 9 .625l-1 2c-5.903 1.247-11.425 1.561-17-1 3.615-2.41 4.786-2.09 9-1.625"/><path fill="#051028" d="M533.063 321.25C536 323 536 323 538 326c-.031 2.74-.555 5.284-1 8h-1l-.687-3.812c-.802-3.269-1.01-3.96-3.813-6.063L529 323l-2-2c3-1 3-1 6.063.25"/><path fill="#081732" d="m611.066 272.902 2.496.036 2.504.027L618 273l-1 2h-7l.125 3.813c.114 3.478-.066 4.098-2.125 7.187q-.04-2.97-.062-5.937l-.036-3.34c.132-3.677.132-3.677 3.164-3.82"/><path fill="#061024" d="m759 195 3 1v12h7v1q-2.22.039-4.437.063l-2.497.035C760 209 760 209 759 208a153 153 0 0 1-.062-6.562l.027-3.63z"/><path fill="#050916" d="M773 336h1v18h5l1 3c-3.1 1.033-4.056 1.178-7 0-.958-2.875-1.067-4.29-.879-7.23l.147-2.432.17-2.526.158-2.56q.196-3.126.404-6.252"/><path fill="#08193B" d="M736 343h2v3h4v3h-2v-2h-5l-1 3c-3.245 2.283-6.125 2.176-10 2v-1l2.688-.75c3.992-1.507 7.353-3.331 9.312-7.25"/><path fill="#040F26" d="M762 325c7.256-.484 7.256-.484 10.5 1.625 1.88 2.976 1.814 4.918 1.5 8.375l-1-4h-2v-2l-10-1z"/><path fill="#9C8213" d="m325 304 3 1c-.568 5.455-1.946 9.91-4 15h-1l-1-7h3z"/><path fill="#031533" d="m798 275 4 1h-2l1 7 4 1c-2.906 1.257-4.796 2-8 2-.125-7.625-.125-7.625 1-11"/><path fill="#06152C" d="m718 326 4 1-2.062 2.25c-2.222 2.51-2.222 2.51-1.688 5.063L719 336l-3 1-2-1c.48-4.22 1.166-6.797 4-10"/><path fill="#082C5B" d="m842 350 1 4q-2.937.079-5.875.125l-3.305.07C831 354 831 354 829 352q2.123-.507 4.25-1l2.39-.562C838 350 838 350 842 350"/><path fill="#F8D217" d="m273 234 16 4c-3.905 2.603-6.628 1.81-11 1-1.34-.302-2.68-.615-4-1z"/><path fill="#927810" d="M292 358a500 500 0 0 1-5.312 3.063l-2.989 1.722C281 364 281 364 278 363h2l.5-1.875c2.085-2.954 4.205-3.14 7.625-3.926C290 357 290 357 292 358"/><path fill="#BF9D15" d="m308 340 2 3-8 8-2-3c1.375-1.5 1.375-1.5 3-3h2l.938-1.937C307 341 307 341 308 340"/><path fill="#09214D" d="M856 322c5.75.75 5.75.75 8 3l1 3h-3l-2 4-1-7-3 1z"/><path fill="#BC9D0E" d="M329 251c3.563 5.345 2.014 11.917 1 18h-1q-.29-3.937-.562-7.875l-.17-2.262c-.381-5.636-.381-5.636.732-7.863"/><path fill="#FBD629" d="m340 144-2 1v2c-.905.09-.905.09-1.828.184l-2.422.254c-.789.08-1.578.162-2.39.246-2.184.292-4.237.737-6.36 1.316l1-3c4.81-1.55 8.92-2.254 14-2"/><path fill="#B6971A" d="m315 128 8 10h-4l-1-2-3-1a129 129 0 0 1-1-6z"/><path fill="#846F0F" d="m266.188 365.438 2.73.308L271 366v1c-5.76 1.298-11.087 2.257-17 2l4-1v-2c3.2-1.067 4.885-.948 8.188-.562"/><path fill="#010D1D" d="M370 334h2c1.163 3.55.924 6.558.563 10.25l-.31 3.266L372 350h-2z"/><path fill="#04080D" d="M469 331h1l.184 3.727.253 4.898.12 2.45c.231 4.377.612 8.61 1.443 12.925h-3z"/><path fill="#062555" d="m498 322-1 4-9 2c2.747-5.101 4.038-6 10-6"/><path fill="#051430" d="m827 272 8 1-1 12h-1v-10h-6zM690 274h9v1l-7 1v9l-2 1z"/><path fill="#02071C" d="M838 195h1l1 11 8 1c-3.544 2.044-5.602 2.267-10 3z"/><path fill="#051029" d="M574 329c2 2 2 2 2.125 4.625L576 336h-2v14h-1q-.042-4.687-.062-9.375l-.026-2.695-.01-2.578-.016-2.38C573 331 573 331 574 329"/><path fill="#967B0F" d="M315 330h3c-1.557 4.671-4.084 8.087-7 12l-1-2c.936-2.36 1.933-4.696 3-7h2z"/><path fill="#061328" d="M585 327c2.375-.187 2.375-.187 5 0 2.68 4.019 2.156 6.242 2 11l-2-1c-.625-3.062-.625-3.062-1-6l-4-1z"/><path fill="#031129" d="M450 324h8v2l2 1q-2.156.253-4.312.5l-2.426.281C451 328 451 328 448 328z"/><path fill="#836D14" d="M181 312h1v5l3 1 1 3h9l-1 2c-2.914.971-4.64 1.094-7.625.313-2.734-1.512-3.916-2.55-5.375-5.313-.187-3.25-.187-3.25 0-6"/><path fill="#02081D" d="M551 285c-3.741 2.5-6.442 1.9-10.75 1.125l-3.547-.617L534 285v-1c5.83-1.59 11.207-.229 17 1"/><path fill="#0B1A35" d="M862 328h6v2l-1.437 1.375c-1.784 1.855-2.132 3.126-2.563 5.625h-2c-1.108-3.325-.845-5.622 0-9"/><path fill="#E6BB10" d="m195 317 3 1c-2 3-2 3-5 4-2.333.04-4.667.044-7 0l-1-3 3.875.125c2.144.117 2.144.117 4.125-.125z"/><path fill="#03102B" d="m645 273 2 1-1 12-2-1v-10l-2-1z"/><path fill="#030816" d="M636 251h1l.06 1.896c.095 2.827.205 5.653.315 8.479.03.985.062 1.97.094 2.984l.117 2.852.095 2.634c.131 2.365.131 2.365 2.319 4.155l-5-1z"/><path fill="#071331" d="M431 236c9.808.62 9.808.62 14 4v2l-2.047-.621-2.703-.816-2.672-.81A141 141 0 0 0 431 238z"/><path fill="#07132A" d="M444 343h3l.375 2.375c.416 2.766.416 2.766 2.625 4.625 1.317.697 2.65 1.37 4 2-3.217.22-5.434.268-8.375-1.125C444 349 444 349 443.75 345.813z"/><path fill="#987F14" d="m256 140 2 1-1 13c-2.372-4.745-2.251-6.813-2-12z"/><path fill="#B69510" d="m228 226 3 1c-.53 3.821-1.497 6.062-4 9-1-1-1-1-1.062-3.562L226 230h2z"/><path fill="#020D17" d="M358 202h12v3c-3.665.943-6.368 1.178-10 0z"/><path fill="#3B4149" d="M357 198h1v5h10v1l-2.75.438c-2.465.426-4.838.913-7.25 1.562l-4-6h2z"/><path fill="#C9AB1C" d="m276 120 3 1 1 5-3 2-3-7z"/><path fill="#040A16" d="m428 350 2 1c-1 3-1 3-3.25 4.688-2.886 1.377-4.602 1.582-7.75 1.312 2.744-2.947 5.383-5.192 9-7"/><path fill="#FBD11D" d="M241 349v2h11v1q-3.344.039-6.687.063l-3.762.035c-3.013-.083-5.634-.39-8.551-1.098 3.228-2.152 4.284-2.2 8-2"/><path fill="#081A36" d="M460 340h2q.118 2.437.188 4.875l.105 2.742L462 350l-3 2c-.625-2.312-.625-2.312-1-5l2-3z"/><path fill="#061129" d="M714 341c1.875.188 1.875.188 4 1 1.125 2.438 1.125 2.438 2 5l2 2c-4 0-4 0-5.687-1.187-1.614-2.23-1.948-4.111-2.313-6.813"/><path fill="#050E22" d="M839 323c2.313.188 2.313.188 5 1 1.875 2.25 1.875 2.25 3 5-.312 2.813-.312 2.813-1 5l-2-3-2.062-3.062C840 325 840 325 839 323"/><path fill="#0B2651" d="m513 322 3 3 3-1c2.333-.04 4.667-.044 7 0v1l-1.934.332-2.504.48-2.496.458L517 327l-1 3-1-3h-3z"/><path fill="#1A212E" d="M526 213h1l.332 1.723c1.047 5.1 2.46 9.561 4.668 14.277h-3c-2.106-5.528-3.379-10.07-3-16"/><path fill="#BC9C14" d="m238 200 3 1c-.523 2.763-1.109 5.326-2 8h-2c-1.033-2.788-1.045-3.868-.062-6.75z"/><path fill="#B29116" d="M249 169h2c.09 4.474-.143 8.606-1 13h-2a535 535 0 0 1-.062-4.25l-.036-2.39c.094-2.267.466-4.189 1.098-6.36"/><path fill="#051430" d="m407 342 2 3 1.625 1.5C412 348 412 348 412 351l-4 1c-2.125-6.625-2.125-6.625-1-10"/><path fill="#B59414" d="M201 329c2.913.086 4.568.58 6.668 2.625A127 127 0 0 1 212 337l-2 1c-4.875-4.625-4.875-4.625-6-8z"/><path fill="#040C22" d="m413 328-2.437.688L408 330c-.894 2.548-.894 2.548-1 5l2 1c-1.937-.375-1.937-.375-4-1l-1-2c1.25-2.562 1.25-2.562 3-5 3-1 3-1 6 0"/><path fill="#06172A" d="M833 327c2.313-.312 2.313-.312 5 0 1.819 2.383 3 3.958 3 7-3.403-1.012-4.757-1.648-6.812-4.625z"/><path fill="#08295A" d="M799 323h9v3h-9z"/><path fill="#032353" d="M868 322h6l-1 4h-7z"/><path fill="#07193E" d="M569 319c2.125.938 2.125.938 4 2v5l-1-2-4 1-1-5z"/><path fill="#072757" d="m550 309 5 1-1 4-5-1z"/><path fill="#061530" d="M659 274c2.338 2.87 3.648 5.574 5 9l2 2-3 1c-.866-1.43-1.718-2.87-2.562-4.312l-1.442-2.426C658 277 658 277 659 274"/><path fill="#061733" d="M907 249v2l-6 1v5l-3-2c.25-1.875.25-1.875 1-4 2.94-2.028 4.277-2 8-2"/><path fill="#C9A614" d="M326.375 247.875 329 250c-1.937.563-1.937.563-4 1l-1-1c-2.67-.141-5.324-.042-8 0 1-2 1-2 3.688-3.375C323 246 323 246 326.375 247.875"/><path fill="#846D0F" d="M308 241h1c-.35 8.193-.35 8.193-3.062 11.563L304 254c-.201-3.625.142-5.865 2-9h2z"/><path fill="#A68E18" d="M285 164h5c-2.853 2.932-5.65 5.643-9 8l1-6h3z"/><path fill="#D1B21F" d="m289 158 3 1-1 5c-2.867-.573-3.861-.861-6-3 1.813-1.562 1.813-1.562 4-3"/><path fill="#8C760F" d="m222 366 15 1-3 3c-2.918-.363-2.918-.363-6.187-1.312l-3.293-.926L222 367z"/><path fill="#967B12" d="M296 351h5c-5.143 5.571-5.143 5.571-9 6l-1-3h4z"/><path fill="#061530" d="M506 320h8l-2 4-5-1-1 2z"/><path fill="#101F38" d="M554 287h14c-2.462 2.462-3.555 2.694-7 3-3.812-.937-3.812-.937-7-2z"/><path fill="#062040" d="m764 267 2 1 .375 1.938c.434 2.26.434 2.26 2.688 3.312L771 274q-3.49.57-7 1l-1-1q.43-3.51 1-7"/><path fill="#061428" d="m442 231-1 2h-2v2c-2.375.625-2.375.625-5 1l-2-2c6.625-4.125 6.625-4.125 10-3"/><path fill="#071327" d="M422.5 204.813C425 206 425 206 427 208v3c-3.436-1.527-6.12-3.6-9-6 2-1 2-1 4.5-.187"/><path fill="#D7B012" d="M185 259c1.952 3.904 2.506 6.722 3 11l-3 2z"/><path fill="#071438" d="M564 229c2.729.033 5.297.564 8 1l1 3c-3.41 1.136-4.003.867-7.187-.437l-2.168-.872L562 231z"/><path fill="#957C0F" d="m213 361 3 1 2.125.375L220 363l1 3h-5v-2h-5v-2z"/><path fill="#D0A912" d="M190 333c1.108 3.325.845 5.622 0 9h2l1 5h-2c-2.61-3.915-2.22-7.452-2-12z"/><path fill="#052441" d="M590 338h3v15h-1v-11h-2z"/><path fill="#06132A" d="M448 339c4.602-.177 6.784-.108 11 2l-11 1z"/><path fill="#030E22" d="M579.848 324.902 586 325c-3.124 2.523-6.38 4.273-10 6 1.068-5.95 1.068-5.95 3.848-6.098"/><path fill="#051120" d="M695 322h8v3l-7 1z"/><path fill="#06132B" d="M589 321c3.375.25 3.375.25 7 1 1.438 2.063 1.438 2.063 2 4l-2 2z"/><path fill="#08244F" d="m634 318 6 1v4h-5z"/><path fill="#A8880E" d="m212 287 3 1-3 9h-1c-.125-6.625-.125-6.625 1-10"/><path fill="#02172B" d="m771 272 4 2-1 5-2-1v-2l-7-1v-1h6z"/><path fill="#263742" d="M370 248h3l-1 12c-2-2-2-2-2.195-4.383l.07-2.742.055-2.758z"/><path fill="#C9A411" d="M262 227q2.007 1.176 4 2.375l2.25 1.336L270 232v2c-2.741-.37-4.586-.686-6.812-2.375C262 230 262 230 262 227"/><path fill="#060E20" d="M668 349c2.884 1.293 4.872 2.66 7 5l-3 1c-2.687-1.437-2.687-1.437-5-3z"/><path fill="#0B1B38" d="M486 328c2.68 4.019 2.156 6.242 2 11h-2c-1.286-7.429-1.286-7.429 0-11"/><path fill="#0A1C36" d="M448 326c.25 2.313.25 2.313 0 5-2.044 1.976-3.118 3-6 3v-3h4l-1-4c2-1 2-1 3-1"/><path fill="#071D3A" d="m849 269 2 4c-2.762 2.762-5.207 2.579-9 3v-3l6-1z"/><path fill="#A38912" d="m193 241 2 1-3 9h-1c-.25-6.625-.25-6.625 2-10"/><path fill="#AA8C0B" d="M224 236h3c-.812 2.438-.812 2.438-2 5l-3 1-2-2 4-2z"/><path fill="#010727" d="m618 225 3 1-1 9h-2z"/><path fill="#0A1D40" d="M424 229c-5.415 4.062-5.415 4.062-8.375 3.75L414 232v-2c6.286-2.429 6.286-2.429 10-1"/><path fill="#08112A" d="m616 362 13 2v1h-13z"/><path fill="#9F8215" d="M200 355h5l2 4h2v2c-3.937-1.312-6.227-2.92-9-6"/><path fill="#0C1F3E" d="M608 353h2l-2 9h-3c.75-6.75.75-6.75 3-9"/><path fill="#0A1933" d="M616 346q2.72.172 5.438.375l3.058.21L627 347l1 2h-12z"/><path fill="#040E23" d="m821 341 2 3 1.625 2.063C826 348 826 348 826 350c-3.161-1.37-3.993-1.99-6-5 .375-2.187.375-2.187 1-4"/><path fill="#D2AE0F" d="M327 296c1.62 2.572 2.044 3.677 1.625 6.75L328 305h-2c-.098-6.152-.098-6.152 0-8z"/><path fill="#050918" d="M450 279c-3.75 3-3.75 3-6 3v2l-3-1 1-3c5.402-2.299 5.402-2.299 8-1"/><path fill="#061329" d="M802 263h3c1.498 3.371 2 5.204 2 9h-2l-.375-2.937L804 266l-2-1z"/><path fill="#F7C814" d="M223 250c-3.549 2.366-4.576 2.109-8.687 1.625l-3.012-.336L209 251v-1c4.793-1.392 9.151-.687 14 0"/><path fill="#D9B51F" d="m199 212 2 2c-2.621 0-4.51-.313-7-1l-1 3-4-1c3.297-3.043 5.56-3.483 10-3"/><path fill="#05142A" d="m719 207 2 1-2 7h-2c-.125-2.875-.125-2.875 0-6z"/><path fill="#B29526" d="M309 172h3v7l-3 1z"/><path fill="#030916" d="m413.125 354.438 2.758.308L418 355v1l-11 1-1-2c2.623-1.312 4.23-.896 7.125-.562"/><path fill="#0A2D5F" d="m425 352-2 2c-2.164-.023-2.164-.023-4.625-.375l-2.477-.336L414 353v-1c4.018-.841 7.018-1.054 11 0"/><path fill="#071F42" d="m629 334 2 3c-1.625 1.563-1.625 1.563-4 3-3.25-.312-3.25-.312-6-1v-1l3.438-.875L628 336z"/><path fill="#051326" d="M636 318h6c.934 3.01 1.044 3.867 0 7l-2-1v-5z"/><path fill="#987C0F" d="m216 273 3 1-1 8c-2.29-3.435-2.178-4.985-2-9"/><path fill="#253147" d="M371 265h1l1 8-4 2-3-2 4-1z"/><path fill="#99831F" d="M507 248c-.573 2.867-.861 3.861-3 6-2.125-.375-2.125-.375-4-1 3.333-5 3.333-5 7-5"/><path fill="#051631" d="m892 239 3 1c-2.872 2.703-4.31 3.948-8.312 4.25L884 244l1.75-.812c2.315-1.127 2.315-1.127 4.313-2.875z"/><path fill="#E4C222" d="M498 235h5l2 4-7-1z"/><path fill="#82711C" d="M311 113c2.566 3.85 2.551 6.435 3 11h-2c-1.203-2.405-1.1-3.95-1.062-6.625l.027-2.477z"/><path fill="#062350" d="m858 349 3 1v4h-5c.875-3.875.875-3.875 2-5"/><path fill="#F2C411" d="M190 273c2.625-.187 2.625-.187 5 0-1.375 1.5-1.375 1.5-3 3h-2l-1 4c-.625-1.812-.625-1.812-1-4z"/><path fill="#897311" d="m282 263 7 1c-2.967 1.648-5.656 2.443-9 3l-1-2h3z"/><path fill="#08152B" d="M425 247c4.75.75 4.75.75 7 3v3h-2a159 159 0 0 1-5-6"/><path fill="#F5CB18" d="M230 157c1.16 3.478.708 5.459 0 9h-2v-8z"/><path fill="#EBC019" d="M246 128v3c-4.625 2.125-4.625 2.125-8 1 2.622-2.154 4.644-3.4 8-4"/><path fill="#AF910F" d="m194 347 4 3-1 4-5-5h2z"/><path fill="#0C1F40" d="m801 348 7 2v2h-6z"/><path fill="#D1B413" d="m219 342 4 1v2l2 1c-3 1-3 1-5.187.063L218 345z"/><path fill="#062139" d="m610 331 1 9c-3.087-3.087-3.449-3.92-4-8 2-1 2-1 3-1"/><path fill="#071329" d="M823 326c2.625.375 2.625.375 5 1l-5 5-2-4z"/><path fill="#08122E" d="M522 321c-4.625 4-4.625 4-8 4l1-3c2.463-1.231 4.28-1.072 7-1"/><path fill="#A88A11" d="M197 229h2c1.033 2.788 1.045 3.868.063 6.75L198 238h-1z"/><path fill="#EBC322" d="m297 138 2 1c-2 3-2 3-4.164 3.512l-2.461.175c-1.226.1-1.226.1-2.477.2L288 143c2.934-1.956 5.782-3.562 9-5"/><path fill="#07253F" d="m695 343 1 4c-3 2-3 2-5.187 1.625L689 348l2.438-.812L694 346z"/><path fill="#E4BB1C" d="M201.25 327.313 204 328c-3.644 2.43-5.712 2.162-10 2 2.637-2.536 3.509-3.047 7.25-2.687"/><path fill="#060A17" d="m517 326 9 1v1c-6.625 1-6.625 1-10 1z"/><path fill="#0A1834" d="M549 307c2.625.375 2.625.375 5 1l-1.812.75c-2.474 1.414-3.622 2.9-5.188 5.25-.125-2.375-.125-2.375 0-5z"/><path fill="#091E3E" d="m954 270 2 1-1 3c-3.694 1.231-6.206.644-10 0v-1l6.152-.586L953 272z"/><path fill="#F2CA1A" d="M473.5 250.25c2.5.75 2.5.75 5.5 2.75l-11-1c3-2 3-2 5.5-1.75"/><path fill="#CFAC17" d="m273 234 9 3v1h-8z"/><path fill="#0E182A" d="m449 212 2 1v7h-2c-.8-3.287-1.097-4.71 0-8"/><path fill="#907612" d="M316 156h2c-.75 4.75-.75 4.75-3 7-.625-1.812-.625-1.812-1-4z"/><path fill="#000016" d="M852 337h1v5h-1z"/><path fill="#C1B709" d="m298 134 3 1-3 1z"/><path fill="#001212" d="M851 353h2l-1 2z"/><path fill="#0D3D4B" d="m771 350 1 2-2-1z"/><path fill="#001740" d="m784 192 3 1Z"/><path d="m948 473 2 1ZM948 441l2 1ZM948 417l2 1ZM948 385l2 1Z"/><path fill="#000035" d="m507 357 2 1Z"/><path fill="#00003D" d="m603 350 2 1Z"/><path d="m720 329 2 1ZM434 326l2 1Z"/><path fill="#002828" d="m447 318 2 1Z"/><path d="m418 318 2 1Z"/><path fill="#000035" d="m688 306 2 1Z"/><path d="m948 305 2 1Z"/><path fill="#000035" d="m800 272 2 1Z"/><path d="m891 193 2 1Z"/><path fill="#000035" d="m993 192 2 1ZM961 192l2 1Z"/><path fill="#002828" d="m856 192 2 1Z"/><path fill="#001831" d="m726 192 2 1Z"/><path d="m704 192 2 1ZM948 161l2 1Z"/></svg>